<svg xmlns="http://www.w3.org/2000/svg" fill="none" viewBox="0 0 469 94" height="94" width="469">
<rect fill="#0037CC" transform="translate(85.5 47)" height="47" width="264"></rect>
<path fill="white" d="M112.348 75.768C111.516 80.792 108.028 83.192 103.708 83.192C101.052 83.192 99.036 82.296 97.372 80.632C94.972 78.232 95.068 75.032 95.068 71.608C95.068 68.184 94.972 64.984 97.372 62.584C99.036 60.92 101.052 60.024 103.708 60.024C108.028 60.024 111.516 62.424 112.348 67.448H106.652C106.3 66.168 105.596 65.016 103.74 65.016C102.716 65.016 101.948 65.432 101.532 65.976C101.02 66.648 100.668 67.448 100.668 71.608C100.668 75.768 101.02 76.568 101.532 77.24C101.948 77.784 102.716 78.2 103.74 78.2C105.596 78.2 106.3 77.048 106.652 75.768H112.348ZM130.135 65.208H124.535V83H118.935V65.208H113.335V60.216H130.135V65.208ZM151.414 83H144.918L140.886 74.52H138.998V83H133.398V60.216H142.422C147.478 60.216 150.198 63.8 150.198 67.544C150.198 70.648 148.278 72.6 146.486 73.496L151.414 83ZM144.598 67.544C144.598 66.36 143.702 65.24 142.166 65.24H138.998V69.848H142.166C143.702 69.848 144.598 68.728 144.598 67.544ZM169.441 83H154.273V60.216H159.873V78.008H169.441V83ZM186.63 76.408H181.766V81.272H176.838V76.408H171.974V71.48H176.838V66.616H181.766V71.48H186.63V76.408ZM205.788 76.024C205.788 80.664 201.788 83.192 196.988 83.192C193.5 83.192 190.652 82.552 188.348 80.184L191.932 76.6C193.116 77.784 195.196 78.2 197.02 78.2C199.228 78.2 200.284 77.464 200.284 76.152C200.284 75.608 200.156 75.16 199.836 74.808C199.548 74.52 199.068 74.296 198.332 74.2L195.58 73.816C193.564 73.528 192.028 72.856 191.004 71.8C189.948 70.712 189.436 69.176 189.436 67.224C189.436 63.064 192.572 60.024 197.756 60.024C201.02 60.024 203.484 60.792 205.436 62.744L201.916 66.264C200.476 64.824 198.588 64.92 197.595 64.92C195.644 64.92 194.844 66.04 194.844 67.032C194.844 67.32 194.94 67.736 195.292 68.088C195.58 68.376 196.06 68.664 196.86 68.76L199.612 69.144C201.66 69.432 203.132 70.072 204.092 71.032C205.308 72.216 205.788 73.912 205.788 76.024ZM226.612 83H221.012V73.976H215.06V83H209.46V60.216H215.06V68.984H221.012V60.216H226.612V83ZM236.81 83H231.21V60.216H236.81V83ZM256.917 65.208H247.029V69.208H255.477V74.2H247.029V83H241.429V60.216H256.917V65.208ZM275.948 65.208H270.348V83H264.748V65.208H259.148V60.216H275.948V65.208ZM302.848 75.768C302.016 80.792 298.528 83.192 294.208 83.192C291.552 83.192 289.536 82.296 287.872 80.632C285.472 78.232 285.568 75.032 285.568 71.608C285.568 68.184 285.472 64.984 287.872 62.584C289.536 60.92 291.552 60.024 294.208 60.024C298.528 60.024 302.016 62.424 302.848 67.448H297.152C296.8 66.168 296.096 65.016 294.24 65.016C293.216 65.016 292.448 65.432 292.032 65.976C291.52 66.648 291.168 67.448 291.168 71.608C291.168 75.768 291.52 76.568 292.032 77.24C292.448 77.784 293.216 78.2 294.24 78.2C296.096 78.2 296.8 77.048 297.152 75.768H302.848ZM310.732 64.024H305.484V60.024H310.732V64.024ZM310.732 83H305.484V66.456H310.732V83ZM323.055 83H320.431C316.623 83 315.087 80.28 315.087 77.912V70.488H313.519V66.456H315.087V61.528H320.335V66.456H323.055V70.488H320.335V77.528C320.335 78.2 320.687 78.584 321.391 78.584H323.055V83ZM341.048 65.784L333.912 85.048C333.56 86.04 333.112 86.776 332.568 87.32C331.544 88.408 330.232 88.76 328.696 88.76H326.712V84.024H327.832C328.76 84.024 329.24 83.8 329.592 82.744L330.072 81.304L324.344 65.784H329.848L332.76 74.712L335.544 65.784H341.048Z"></path>
<rect fill="black" transform="translate(0.5 47)" height="47" width="85"></rect>
<path fill="white" d="M37.492 60.216L31.252 83H26.676L22.996 71.768L19.316 83H14.772L8.5 60.216H14.356L17.332 72.248L21.012 60.216H24.98L28.66 72.248L31.636 60.216H37.492ZM44.732 64.024H39.484V60.024H44.732V64.024ZM44.732 83H39.484V66.456H44.732V83ZM57.0548 83H54.4308C50.6228 83 49.0868 80.28 49.0868 77.912V70.488H47.5188V66.456H49.0868V61.528H54.3348V66.456H57.0548V70.488H54.3348V77.528C54.3348 78.2 54.6868 78.584 55.3908 78.584H57.0548V83ZM74.8558 83H69.6078V72.568C69.6078 70.712 68.2638 70.328 67.5918 70.328C66.9198 70.328 65.5758 70.712 65.5758 72.568V83H60.3278V60.216H65.5758V67.192C66.6638 66.104 68.0398 65.592 69.3518 65.592C73.0638 65.592 74.8558 68.344 74.8558 71.832V83Z"></path>
<rect fill="#75D200" transform="translate(47.5)" height="47" width="421"></rect>
<path fill="white" d="M63.404 36H57.804V13.216H63.404V36ZM91.8948 36H86.6468V25.696C86.6468 23.712 85.2388 23.328 84.5347 23.328C83.8308 23.328 82.4228 23.712 82.4228 25.696V36H77.1748V25.696C77.1748 23.712 75.7668 23.328 75.0628 23.328C74.3588 23.328 72.9508 23.712 72.9508 25.696V36H67.7028V18.784H72.8228V20.192C73.8788 19.136 75.4468 18.592 76.8228 18.592C78.5188 18.592 79.8948 19.136 81.0148 20.416C82.5188 19.104 83.8948 18.592 85.8788 18.592C87.5108 18.592 89.0788 19.136 90.0068 20.064C91.4788 21.536 91.8948 23.168 91.8948 24.992V36ZM109.175 36H104.055V34.592C102.999 35.648 102.039 36.16 100.215 36.16C98.4868 36.16 97.0468 35.584 96.0868 34.624C95.0948 33.632 94.5828 32.192 94.5828 30.592C94.5828 28 96.3428 25.6 100.439 25.6H103.927V25.152C103.927 23.584 103.159 23.008 101.335 23.008C99.9908 23.008 99.4148 23.328 98.5828 24.16L95.3188 20.896C97.0788 19.136 98.6788 18.592 101.591 18.592C106.519 18.592 109.175 20.64 109.175 24.832V36ZM103.927 29.536V29.088H101.271C100.247 29.088 99.6068 29.664 99.6068 30.464C99.6068 31.232 100.183 31.904 101.335 31.904C102.359 31.904 102.839 31.808 103.415 31.264C103.799 30.912 103.927 30.368 103.927 29.536ZM126.843 34.752C126.843 38.816 123.771 41.76 119.067 41.76C116.379 41.76 114.363 41.28 112.603 39.52L115.867 36.256C116.667 37.056 117.627 37.344 118.811 37.344C121.019 37.344 121.595 35.84 121.595 34.72V33.472C120.635 34.432 119.483 34.912 117.883 34.912C116.219 34.912 114.843 34.368 113.851 33.376C112.283 31.808 112.251 29.888 112.251 26.752C112.251 23.616 112.283 21.696 113.851 20.128C114.843 19.136 116.251 18.592 117.915 18.592C119.675 18.592 120.699 19.136 121.755 20.192V18.784H126.843V34.752ZM121.595 26.752C121.595 24.992 121.467 23.328 119.547 23.328C117.627 23.328 117.499 24.992 117.499 26.752C117.499 28.512 117.627 30.176 119.547 30.176C121.467 30.176 121.595 28.512 121.595 26.752ZM136.045 17.024H130.797V13.024H136.045V17.024ZM136.045 36H130.797V19.456H136.045V36ZM154.735 36H149.487V25.696C149.487 23.712 148.079 23.328 147.375 23.328C146.671 23.328 145.263 23.712 145.263 25.696V36H140.015V18.784H145.135V20.192C146.191 19.136 147.759 18.592 149.135 18.592C150.767 18.592 152.079 19.136 153.007 20.064C154.479 21.536 154.735 23.168 154.735 24.992V36ZM173.235 29.088H162.931C162.931 30.496 164.019 31.776 165.97 31.776C167.795 31.776 168.595 31.264 169.523 30.336L172.659 33.472C170.899 35.232 169.171 36.192 165.97 36.192C162.163 36.192 157.779 34.816 157.779 27.392C157.779 21.76 160.979 18.592 165.491 18.592C170.483 18.592 173.235 22.24 173.235 26.752V29.088ZM168.051 25.6C168.051 25.184 167.987 24.704 167.763 24.256C167.443 23.52 166.739 22.912 165.491 22.912C164.243 22.912 163.539 23.52 163.219 24.256C162.995 24.704 162.931 25.184 162.931 25.6H168.051ZM199.131 29.024C199.131 33.664 195.131 36.192 190.331 36.192C186.843 36.192 183.995 35.552 181.691 33.184L185.275 29.6C186.459 30.784 188.539 31.2 190.363 31.2C192.571 31.2 193.627 30.464 193.627 29.152C193.627 28.608 193.499 28.16 193.179 27.808C192.891 27.52 192.411 27.296 191.675 27.2L188.923 26.816C186.907 26.528 185.371 25.856 184.347 24.8C183.291 23.712 182.779 22.176 182.779 20.224C182.779 16.064 185.915 13.024 191.099 13.024C194.363 13.024 196.827 13.792 198.779 15.744L195.259 19.264C193.819 17.824 191.931 17.92 190.939 17.92C188.987 17.92 188.187 19.04 188.187 20.032C188.187 20.32 188.283 20.736 188.635 21.088C188.923 21.376 189.403 21.664 190.203 21.76L192.955 22.144C195.003 22.432 196.475 23.072 197.435 24.032C198.651 25.216 199.131 26.912 199.131 29.024ZM207.732 17.024H202.484V13.024H207.732V17.024ZM207.732 36H202.484V19.456H207.732V36ZM226.423 36H221.175V25.696C221.175 23.712 219.767 23.328 219.063 23.328C218.359 23.328 216.951 23.712 216.951 25.696V36H211.703V18.784H216.823V20.192C217.879 19.136 219.447 18.592 220.823 18.592C222.455 18.592 223.767 19.136 224.695 20.064C226.167 21.536 226.423 23.168 226.423 24.992V36ZM244.218 34.752C244.218 38.816 241.146 41.76 236.442 41.76C233.754 41.76 231.738 41.28 229.978 39.52L233.242 36.256C234.042 37.056 235.002 37.344 236.186 37.344C238.394 37.344 238.97 35.84 238.97 34.72V33.472C238.01 34.432 236.858 34.912 235.258 34.912C233.594 34.912 232.218 34.368 231.226 33.376C229.658 31.808 229.626 29.888 229.626 26.752C229.626 23.616 229.658 21.696 231.226 20.128C232.218 19.136 233.626 18.592 235.29 18.592C237.05 18.592 238.074 19.136 239.13 20.192V18.784H244.218V34.752ZM238.97 26.752C238.97 24.992 238.842 23.328 236.922 23.328C235.002 23.328 234.874 24.992 234.874 26.752C234.874 28.512 235.002 30.176 236.922 30.176C238.842 30.176 238.97 28.512 238.97 26.752ZM261.644 36H256.524V34.592C255.468 35.648 254.508 36.16 252.684 36.16C250.956 36.16 249.516 35.584 248.556 34.624C247.564 33.632 247.052 32.192 247.052 30.592C247.052 28 248.812 25.6 252.908 25.6H256.396V25.152C256.396 23.584 255.628 23.008 253.804 23.008C252.46 23.008 251.884 23.328 251.052 24.16L247.788 20.896C249.548 19.136 251.148 18.592 254.06 18.592C258.988 18.592 261.644 20.64 261.644 24.832V36ZM256.396 29.536V29.088H253.74C252.716 29.088 252.076 29.664 252.076 30.464C252.076 31.232 252.652 31.904 253.804 31.904C254.828 31.904 255.308 31.808 255.884 31.264C256.268 30.912 256.396 30.368 256.396 29.536ZM280.176 27.392C280.176 29.92 280.272 32.928 278.576 34.624C277.584 35.616 276.08 36.192 274.416 36.192C272.72 36.192 271.536 35.712 270.576 34.752V41.568H265.328V18.784H270.416V20.192C271.472 19.136 272.592 18.592 274.384 18.592C276.048 18.592 277.584 19.168 278.576 20.16C280.272 21.856 280.176 24.864 280.176 27.392ZM274.928 27.392C274.928 24.896 274.704 23.328 272.752 23.328C270.8 23.328 270.576 24.896 270.576 27.392C270.576 29.888 270.8 31.456 272.752 31.456C274.704 31.456 274.928 29.888 274.928 27.392ZM297.787 27.392C297.787 30.784 297.339 32.416 295.899 33.984C294.875 35.072 293.147 36.192 290.363 36.192C287.579 36.192 285.851 35.072 284.827 33.984C283.387 32.416 282.939 30.784 282.939 27.392C282.939 24.032 283.387 22.368 284.827 20.8C285.851 19.712 287.579 18.592 290.363 18.592C293.147 18.592 294.875 19.712 295.899 20.8C297.339 22.368 297.787 24.032 297.787 27.392ZM292.539 27.392C292.539 25.696 292.443 24.48 291.771 23.808C291.451 23.488 291.003 23.328 290.363 23.328C289.723 23.328 289.275 23.488 288.955 23.808C288.283 24.48 288.187 25.696 288.187 27.392C288.187 29.088 288.283 30.304 288.955 30.976C289.275 31.296 289.723 31.456 290.363 31.456C291.003 31.456 291.451 31.296 291.771 30.976C292.443 30.304 292.539 29.088 292.539 27.392ZM314.356 20.192L310.388 24.224C309.876 23.712 309.396 23.328 308.5 23.328C307.796 23.328 306.388 23.744 306.388 25.696V36H301.14V18.784H306.26V20.192C307.028 19.424 308.532 18.592 310.324 18.592C312.02 18.592 313.172 19.008 314.356 20.192ZM330.047 29.088H319.743C319.743 30.496 320.831 31.776 322.783 31.776C324.607 31.776 325.407 31.264 326.335 30.336L329.471 33.472C327.711 35.232 325.983 36.192 322.783 36.192C318.975 36.192 314.591 34.816 314.591 27.392C314.591 21.76 317.791 18.592 322.303 18.592C327.295 18.592 330.047 22.24 330.047 26.752V29.088ZM324.863 25.6C324.863 25.184 324.799 24.704 324.575 24.256C324.255 23.52 323.551 22.912 322.303 22.912C321.055 22.912 320.351 23.52 320.031 24.256C319.807 24.704 319.743 25.184 319.743 25.6H324.863ZM338.322 17.92L333.074 21.696V13.216H338.322V17.92ZM353.514 30.368C353.514 34.432 350.058 36.192 346.058 36.192C343.466 36.192 340.938 36.064 338.57 33.696L341.962 30.304C343.402 31.744 345.258 31.744 346.154 31.744C346.922 31.744 348.394 31.52 348.394 30.624C348.394 30.144 348.17 29.632 347.146 29.536L344.49 29.28C341.514 28.992 339.498 27.648 339.498 24.288C339.498 20.48 342.922 18.592 346.346 18.592C349.162 18.592 351.434 19.008 353.13 20.704L349.898 23.936C349.034 23.072 347.594 22.912 346.25 22.912C344.97 22.912 344.554 23.52 344.554 23.904C344.554 24.096 344.49 24.736 345.674 24.864L348.33 25.12C351.946 25.472 353.514 27.616 353.514 30.368ZM379.261 18.208H369.373V22.208H377.821V27.2H369.373V36H363.773V13.216H379.261V18.208ZM396.107 36H390.987V34.592C389.931 35.648 388.363 36.192 386.987 36.192C385.355 36.192 384.043 35.648 383.115 34.72C381.643 33.248 381.387 31.616 381.387 29.792V18.784H386.635V29.088C386.635 31.072 388.043 31.456 388.747 31.456C389.451 31.456 390.859 31.072 390.859 29.088V18.784H396.107V36ZM408.43 36H405.806C401.998 36 400.462 33.28 400.462 30.912V23.488H398.894V19.456H400.462V14.528H405.71V19.456H408.43V23.488H405.71V30.528C405.71 31.2 406.062 31.584 406.766 31.584H408.43V36ZM426.263 36H421.143V34.592C420.087 35.648 418.519 36.192 417.143 36.192C415.511 36.192 414.199 35.648 413.271 34.72C411.799 33.248 411.543 31.616 411.543 29.792V18.784H416.791V29.088C416.791 31.072 418.199 31.456 418.903 31.456C419.607 31.456 421.015 31.072 421.015 29.088V18.784H426.263V36ZM443.45 20.192L439.482 24.224C438.97 23.712 438.49 23.328 437.594 23.328C436.89 23.328 435.482 23.744 435.482 25.696V36H430.234V18.784H435.354V20.192C436.122 19.424 437.626 18.592 439.418 18.592C441.114 18.592 442.266 19.008 443.45 20.192ZM459.141 29.088H448.837C448.837 30.496 449.925 31.776 451.877 31.776C453.701 31.776 454.501 31.264 455.429 30.336L458.565 33.472C456.805 35.232 455.077 36.192 451.877 36.192C448.069 36.192 443.685 34.816 443.685 27.392C443.685 21.76 446.885 18.592 451.397 18.592C456.389 18.592 459.141 22.24 459.141 26.752V29.088ZM453.957 25.6C453.957 25.184 453.893 24.704 453.669 24.256C453.349 23.52 452.645 22.912 451.397 22.912C450.149 22.912 449.445 23.52 449.125 24.256C448.901 24.704 448.837 25.184 448.837 25.6H453.957Z"></path>
<path fill="#FFD400" d="M47.5 0H0.5V47H47.5V0Z"></path>
<path fill="white" d="M39.0948 15.2905C40.7192 18.2765 41.4217 21.6772 41.1134 25.0625C40.805 28.4477 39.4997 31.6655 37.3625 34.309C35.2254 36.9524 32.3523 38.9027 29.1067 39.9132C25.8611 40.9237 22.3887 40.949 19.1286 39.986C15.8686 39.023 12.9674 37.1148 10.7918 34.5029C8.6163 31.891 7.26417 28.6926 6.90645 25.3121C6.54872 21.9317 7.20147 18.5212 8.78215 15.5117C10.3628 12.5023 12.8004 10.0292 15.7867 8.40519C19.7906 6.22771 24.4956 5.72983 28.8666 7.02104C33.2376 8.31225 36.9168 11.2868 39.0948 15.2905Z"></path>
<path fill="black" d="M37.1417 16.3545C37.9651 17.8676 38.3214 19.591 38.1653 21.3065C38.0093 23.0221 37.348 24.6529 36.2651 25.9926C35.1821 27.3323 33.7262 28.3208 32.0815 28.833C30.4367 29.3452 28.677 29.3581 27.0249 28.8701C25.3728 28.3822 23.9025 27.4152 22.8 26.0915C21.6975 24.7679 21.0123 23.147 20.8311 21.4339C20.6499 19.7208 20.9807 17.9925 21.7819 16.4674C22.583 14.9424 23.8184 13.6892 25.3318 12.8663C26.3362 12.3196 27.4385 11.9762 28.5757 11.8556C29.7129 11.7351 30.8627 11.8398 31.9594 12.1637C33.0562 12.4876 34.0783 13.0245 34.9675 13.7435C35.8567 14.4626 36.5955 15.3499 37.1417 16.3545"></path>
<path fill="white" d="M32.2399 15.0131C32.3929 15.2936 32.4592 15.6132 32.4305 15.9314C32.4017 16.2496 32.2793 16.5522 32.0785 16.8008C31.8778 17.0494 31.6078 17.2328 31.3028 17.3279C30.9978 17.423 30.6714 17.4255 30.3649 17.3351C30.0585 17.2446 29.7858 17.0653 29.5813 16.8198C29.3768 16.5743 29.2497 16.2737 29.2161 15.956C29.1825 15.6382 29.2439 15.3177 29.3926 15.0348C29.5413 14.752 29.7705 14.5196 30.0512 14.3671C30.2373 14.2655 30.4416 14.2016 30.6524 14.179C30.8632 14.1565 31.0763 14.1758 31.2797 14.2358C31.483 14.2958 31.6725 14.3954 31.8373 14.5288C32.002 14.6621 32.1389 14.8267 32.2399 15.0131"></path>
<path fill="#FF0000" d="M396.5 47H349.5V94H396.5V47Z"></path>
<path fill="white" d="M357.423 76.2624V64.7375L365.763 70.5019L357.423 76.2624Z"></path>
<path fill="white" d="M368.83 76.2624V64.7375L377.17 70.5019L368.83 76.2624Z"></path>
<path fill="white" d="M380.237 76.2624V64.7375L388.577 70.5019L380.237 76.2624Z"></path>
</svg>
