<svg xmlns="http://www.w3.org/2000/svg" fill="none" viewBox="0 0 367 135" height="135" width="367">
<rect fill="black" height="45" width="186" y="45" x="177.729"></rect>
<rect fill="#75D200" height="45" width="131" y="45" x="6.72913"></rect>
<rect fill="#FF0000" height="45" width="40" y="45" x="137.729"></rect>
<rect fill="#FFD700" height="45" width="367"></rect>
<path fill="black" d="M35.5337 15.216L29.2937 38H24.7177L21.0377 26.768L17.3577 38H12.8137L6.54175 15.216H12.3977L15.3737 27.248L19.0537 15.216H23.0217L26.7017 27.248L29.6777 15.216H35.5337ZM52.0537 38H46.8057V27.568C46.8057 25.712 45.4617 25.328 44.7897 25.328C44.1177 25.328 42.7737 25.712 42.7737 27.568V38H37.5257V15.216H42.7737V22.192C43.8617 21.104 45.2377 20.592 46.5497 20.592C50.2617 20.592 52.0537 23.344 52.0537 26.832V38ZM70.1095 29.392C70.1095 32.784 69.6615 34.416 68.2215 35.984C67.1975 37.072 65.4695 38.192 62.6855 38.192C59.9015 38.192 58.1735 37.072 57.1495 35.984C55.7095 34.416 55.2615 32.784 55.2615 29.392C55.2615 26.032 55.7095 24.368 57.1495 22.8C58.1735 21.712 59.9015 20.592 62.6855 20.592C65.4695 20.592 67.1975 21.712 68.2215 22.8C69.6615 24.368 70.1095 26.032 70.1095 29.392ZM64.8615 29.392C64.8615 27.696 64.7655 26.48 64.0935 25.808C63.7735 25.488 63.3255 25.328 62.6855 25.328C62.0455 25.328 61.5975 25.488 61.2775 25.808C60.6055 26.48 60.5095 27.696 60.5095 29.392C60.5095 31.088 60.6055 32.304 61.2775 32.976C61.5975 33.296 62.0455 33.456 62.6855 33.456C63.3255 33.456 63.7735 33.296 64.0935 32.976C64.7655 32.304 64.8615 31.088 64.8615 29.392ZM96.173 31.024C96.173 35.664 92.173 38.192 87.373 38.192C83.885 38.192 81.037 37.552 78.733 35.184L82.317 31.6C83.501 32.784 85.581 33.2 87.405 33.2C89.613 33.2 90.669 32.464 90.669 31.152C90.669 30.608 90.541 30.16 90.221 29.808C89.933 29.52 89.453 29.296 88.717 29.2L85.965 28.816C83.949 28.528 82.413 27.856 81.389 26.8C80.333 25.712 79.821 24.176 79.821 22.224C79.821 18.064 82.957 15.024 88.141 15.024C91.405 15.024 93.869 15.792 95.821 17.744L92.301 21.264C90.861 19.824 88.973 19.92 87.981 19.92C86.029 19.92 85.229 21.04 85.229 22.032C85.229 22.32 85.325 22.736 85.677 23.088C85.965 23.376 86.445 23.664 87.245 23.76L89.997 24.144C92.045 24.432 93.517 25.072 94.477 26.032C95.693 27.216 96.173 28.912 96.173 31.024ZM114.054 38H108.806V27.568C108.806 25.712 107.462 25.328 106.79 25.328C106.118 25.328 104.774 25.712 104.774 27.568V38H99.5257V15.216H104.774V22.192C105.862 21.104 107.238 20.592 108.55 20.592C112.262 20.592 114.054 23.344 114.054 26.832V38ZM131.341 38H126.221V36.592C125.165 37.648 124.205 38.16 122.381 38.16C120.653 38.16 119.213 37.584 118.253 36.624C117.261 35.632 116.749 34.192 116.749 32.592C116.749 30 118.509 27.6 122.605 27.6H126.093V27.152C126.093 25.584 125.325 25.008 123.501 25.008C122.157 25.008 121.581 25.328 120.749 26.16L117.485 22.896C119.245 21.136 120.845 20.592 123.757 20.592C128.685 20.592 131.341 22.64 131.341 26.832V38ZM126.093 31.536V31.088H123.437C122.413 31.088 121.773 31.664 121.773 32.464C121.773 33.232 122.349 33.904 123.501 33.904C124.525 33.904 125.005 33.808 125.581 33.264C125.965 32.912 126.093 32.368 126.093 31.536ZM149.874 29.392C149.874 31.92 149.97 34.928 148.274 36.624C147.282 37.616 145.778 38.192 144.114 38.192C142.418 38.192 141.234 37.712 140.274 36.752V43.568H135.026V20.784H140.114V22.192C141.17 21.136 142.29 20.592 144.082 20.592C145.746 20.592 147.282 21.168 148.274 22.16C149.97 23.856 149.874 26.864 149.874 29.392ZM144.626 29.392C144.626 26.896 144.402 25.328 142.45 25.328C140.498 25.328 140.274 26.896 140.274 29.392C140.274 31.888 140.498 33.456 142.45 33.456C144.402 33.456 144.626 31.888 144.626 29.392ZM167.932 31.088H157.628C157.628 32.496 158.716 33.776 160.668 33.776C162.492 33.776 163.292 33.264 164.22 32.336L167.356 35.472C165.596 37.232 163.868 38.192 160.668 38.192C156.86 38.192 152.476 36.816 152.476 29.392C152.476 23.76 155.676 20.592 160.188 20.592C165.18 20.592 167.932 24.24 167.932 28.752V31.088ZM162.748 27.6C162.748 27.184 162.684 26.704 162.46 26.256C162.14 25.52 161.436 24.912 160.188 24.912C158.94 24.912 158.236 25.52 157.916 26.256C157.692 26.704 157.628 27.184 157.628 27.6H162.748ZM184.399 32.368C184.399 36.432 180.943 38.192 176.943 38.192C174.351 38.192 171.823 38.064 169.455 35.696L172.847 32.304C174.287 33.744 176.143 33.744 177.039 33.744C177.807 33.744 179.279 33.52 179.279 32.624C179.279 32.144 179.055 31.632 178.031 31.536L175.375 31.28C172.399 30.992 170.383 29.648 170.383 26.288C170.383 22.48 173.807 20.592 177.231 20.592C180.047 20.592 182.319 21.008 184.015 22.704L180.783 25.936C179.919 25.072 178.479 24.912 177.135 24.912C175.855 24.912 175.439 25.52 175.439 25.904C175.439 26.096 175.375 26.736 176.559 26.864L179.215 27.12C182.831 27.472 184.399 29.616 184.399 32.368ZM210.114 20.208H204.514V38H198.914V20.208H193.314V15.216H210.114V20.208ZM227.585 38H222.337V27.568C222.337 25.712 220.993 25.328 220.321 25.328C219.649 25.328 218.305 25.712 218.305 27.568V38H213.057V15.216H218.305V22.192C219.393 21.104 220.769 20.592 222.081 20.592C225.793 20.592 227.585 23.344 227.585 26.832V38ZM246.089 31.088H235.785C235.785 32.496 236.873 33.776 238.825 33.776C240.649 33.776 241.449 33.264 242.377 32.336L245.513 35.472C243.753 37.232 242.025 38.192 238.825 38.192C235.017 38.192 230.633 36.816 230.633 29.392C230.633 23.76 233.833 20.592 238.345 20.592C243.337 20.592 246.089 24.24 246.089 28.752V31.088ZM240.905 27.6C240.905 27.184 240.841 26.704 240.617 26.256C240.297 25.52 239.593 24.912 238.345 24.912C237.097 24.912 236.393 25.52 236.073 26.256C235.849 26.704 235.785 27.184 235.785 27.6H240.905ZM283.377 15.216L277.137 38H272.561L268.881 26.768L265.201 38H260.657L254.385 15.216H260.241L263.217 27.248L266.897 15.216H270.865L274.545 27.248L277.521 15.216H283.377ZM298.328 29.392C298.328 32.784 297.88 34.416 296.44 35.984C295.416 37.072 293.688 38.192 290.904 38.192C288.12 38.192 286.392 37.072 285.368 35.984C283.928 34.416 283.48 32.784 283.48 29.392C283.48 26.032 283.928 24.368 285.368 22.8C286.392 21.712 288.12 20.592 290.904 20.592C293.688 20.592 295.416 21.712 296.44 22.8C297.88 24.368 298.328 26.032 298.328 29.392ZM293.08 29.392C293.08 27.696 292.984 26.48 292.312 25.808C291.992 25.488 291.544 25.328 290.904 25.328C290.264 25.328 289.816 25.488 289.496 25.808C288.824 26.48 288.728 27.696 288.728 29.392C288.728 31.088 288.824 32.304 289.496 32.976C289.816 33.296 290.264 33.456 290.904 33.456C291.544 33.456 291.992 33.296 292.312 32.976C292.984 32.304 293.08 31.088 293.08 29.392ZM314.898 22.192L310.93 26.224C310.418 25.712 309.938 25.328 309.042 25.328C308.338 25.328 306.93 25.744 306.93 27.696V38H301.682V20.784H306.802V22.192C307.57 21.424 309.074 20.592 310.866 20.592C312.562 20.592 313.714 21.008 314.898 22.192ZM324.837 38H322.053C318.245 38 316.709 35.28 316.709 32.912V15.216H321.957V32.528C321.957 33.2 322.309 33.584 323.013 33.584H324.837V38ZM342.016 38H336.928V36.592C335.872 37.648 334.752 38.192 332.96 38.192C331.296 38.192 329.76 37.616 328.768 36.624C327.072 34.928 327.168 31.92 327.168 29.392C327.168 26.864 327.072 23.856 328.768 22.16C329.76 21.168 331.264 20.592 332.928 20.592C334.624 20.592 335.808 21.072 336.768 22.032V15.216H342.016V38ZM336.768 29.392C336.768 26.896 336.544 25.328 334.592 25.328C332.64 25.328 332.416 26.896 332.416 29.392C332.416 31.888 332.64 33.456 334.592 33.456C336.544 33.456 336.768 31.888 336.768 29.392ZM360.266 21.744C360.266 23.408 359.53 24.688 358.634 25.84L356.426 28.624C356.138 28.976 355.85 29.584 355.85 30.128V30.416H350.602V29.68C350.602 28.24 350.954 27.248 351.914 26.128L354.154 23.504C354.634 22.96 355.018 22.224 355.018 21.712C355.018 20.592 354.378 19.76 353.098 19.76C351.754 19.76 351.178 20.624 351.178 21.776H345.93C345.93 17.424 349.226 15.024 353.098 15.024C356.874 15.024 360.266 17.296 360.266 21.744ZM355.914 38H350.538V32.848H355.914V38Z"></path>
<path fill="white" d="M204.495 60.2031H198.885V78H193.292V60.2031H187.682V55.2188H204.495V60.2031ZM222.12 71.0938H211.823C211.823 71.8438 212.094 72.4792 212.635 73C213.187 73.5208 213.927 73.7812 214.854 73.7812C215.729 73.7812 216.411 73.6667 216.901 73.4375C217.401 73.2083 217.901 72.8438 218.401 72.3438L221.542 75.4688C220.594 76.4167 219.63 77.1094 218.651 77.5469C217.672 77.974 216.406 78.1875 214.854 78.1875C209.396 78.1875 206.667 75.2552 206.667 69.3906C206.667 66.6302 207.375 64.474 208.792 62.9219C210.219 61.3698 212.078 60.5938 214.37 60.5938C215.984 60.5938 217.375 60.9531 218.542 61.6719C219.719 62.3906 220.609 63.3646 221.214 64.5938C221.818 65.8229 222.12 67.2083 222.12 68.75V71.0938ZM216.932 67.5938C216.932 67.0833 216.839 66.6354 216.651 66.25C216.484 65.8646 216.203 65.5469 215.807 65.2969C215.422 65.0365 214.943 64.9062 214.37 64.9062C213.797 64.9062 213.312 65.0365 212.917 65.2969C212.531 65.5469 212.26 65.8646 212.104 66.25C211.917 66.6354 211.823 67.0833 211.823 67.5938H216.932ZM237.979 75.9844C237.521 76.4427 236.995 76.8438 236.401 77.1875C235.818 77.5208 235.177 77.7708 234.479 77.9375C233.781 78.1042 233.057 78.1875 232.307 78.1875C231.089 78.1875 229.901 77.9531 228.745 77.4844C227.599 77.0156 226.615 76.1198 225.792 74.7969C224.979 73.474 224.573 71.6719 224.573 69.3906C224.573 67.1094 224.979 65.3073 225.792 63.9844C226.615 62.6615 227.599 61.7656 228.745 61.2969C229.901 60.8281 231.089 60.5938 232.307 60.5938C233.474 60.5938 234.531 60.7812 235.479 61.1562C236.427 61.5312 237.26 62.0781 237.979 62.7969L234.432 66.3594C233.745 65.6719 233.036 65.3281 232.307 65.3281C231.672 65.3281 231.13 65.5521 230.682 66C230.109 66.6042 229.823 67.7344 229.823 69.3906C229.823 71.0469 230.109 72.1771 230.682 72.7812C231.13 73.2292 231.672 73.4531 232.307 73.4531C233.047 73.4531 233.755 73.1146 234.432 72.4375L237.979 75.9844ZM255.089 78H249.839V67.5625C249.839 66.7396 249.62 66.1615 249.182 65.8281C248.755 65.4948 248.302 65.3281 247.823 65.3281C247.344 65.3281 246.885 65.5 246.448 65.8438C246.021 66.1875 245.807 66.7604 245.807 67.5625V78H240.557V55.2188H245.807V62.1875C246.328 61.6667 246.917 61.2708 247.573 61C248.24 60.7292 248.911 60.5938 249.589 60.5938C250.786 60.5938 251.797 60.8646 252.62 61.4062C253.443 61.9375 254.057 62.6823 254.464 63.6406C254.88 64.599 255.089 65.6615 255.089 66.8281V78ZM273.62 78H268.37V67.7031C268.37 66.8177 268.141 66.2031 267.682 65.8594C267.234 65.5052 266.76 65.3281 266.26 65.3281C265.76 65.3281 265.281 65.5052 264.823 65.8594C264.375 66.2135 264.151 66.8281 264.151 67.7031V78H258.901V60.7812H264.026V62.1875C264.526 61.6875 265.141 61.2969 265.87 61.0156C266.609 60.7344 267.328 60.5938 268.026 60.5938C269.62 60.5938 270.906 61.0833 271.885 62.0625C272.562 62.7188 273.021 63.4427 273.26 64.2344C273.5 65.026 273.62 65.9427 273.62 66.9844V78ZM291.667 69.3906C291.667 71.0885 291.531 72.4219 291.26 73.3906C290.99 74.349 290.5 75.2135 289.792 75.9844C288.406 77.4531 286.557 78.1875 284.245 78.1875C281.922 78.1875 280.078 77.4531 278.714 75.9844C278.245 75.4844 277.87 74.9375 277.589 74.3438C277.307 73.75 277.109 73.0729 276.995 72.3125C276.88 71.5417 276.823 70.5677 276.823 69.3906C276.823 68.224 276.88 67.2604 276.995 66.5C277.109 65.7292 277.307 65.0521 277.589 64.4688C277.87 63.875 278.245 63.3177 278.714 62.7969C279.318 62.1615 280.073 61.6354 280.979 61.2188C281.885 60.8021 282.974 60.5938 284.245 60.5938C285.516 60.5938 286.604 60.8021 287.51 61.2188C288.427 61.625 289.187 62.151 289.792 62.7969C290.5 63.5677 290.99 64.4375 291.26 65.4062C291.531 66.375 291.667 67.7031 291.667 69.3906ZM286.417 69.3906C286.417 68.3906 286.365 67.6198 286.26 67.0781C286.167 66.526 285.964 66.1042 285.651 65.8125C285.339 65.4896 284.87 65.3281 284.245 65.3281C283.63 65.3281 283.161 65.4896 282.839 65.8125C282.526 66.125 282.318 66.5729 282.214 67.1562C282.12 67.7292 282.073 68.474 282.073 69.3906C282.073 70.3073 282.12 71.0521 282.214 71.625C282.318 72.1875 282.526 72.6354 282.839 72.9688C283.161 73.2917 283.63 73.4531 284.245 73.4531C284.87 73.4531 285.339 73.2969 285.651 72.9844C285.964 72.6615 286.167 72.2344 286.26 71.7031C286.365 71.1615 286.417 70.3906 286.417 69.3906ZM302.995 78H300.214C299.016 78 298.016 77.7552 297.214 77.2656C296.411 76.7656 295.818 76.125 295.432 75.3438C295.057 74.5521 294.87 73.7396 294.87 72.9062V55.2188H300.12V72.5312C300.12 73.2292 300.469 73.5781 301.167 73.5781H302.995V78ZM320.167 69.3906C320.167 71.0885 320.031 72.4219 319.76 73.3906C319.49 74.349 319 75.2135 318.292 75.9844C316.906 77.4531 315.057 78.1875 312.745 78.1875C310.422 78.1875 308.578 77.4531 307.214 75.9844C306.745 75.4844 306.37 74.9375 306.089 74.3438C305.807 73.75 305.609 73.0729 305.495 72.3125C305.38 71.5417 305.323 70.5677 305.323 69.3906C305.323 68.224 305.38 67.2604 305.495 66.5C305.609 65.7292 305.807 65.0521 306.089 64.4688C306.37 63.875 306.745 63.3177 307.214 62.7969C307.818 62.1615 308.573 61.6354 309.479 61.2188C310.385 60.8021 311.474 60.5938 312.745 60.5938C314.016 60.5938 315.104 60.8021 316.01 61.2188C316.927 61.625 317.687 62.151 318.292 62.7969C319 63.5677 319.49 64.4375 319.76 65.4062C320.031 66.375 320.167 67.7031 320.167 69.3906ZM314.917 69.3906C314.917 68.3906 314.865 67.6198 314.76 67.0781C314.667 66.526 314.464 66.1042 314.151 65.8125C313.839 65.4896 313.37 65.3281 312.745 65.3281C312.13 65.3281 311.661 65.4896 311.339 65.8125C311.026 66.125 310.818 66.5729 310.714 67.1562C310.62 67.7292 310.573 68.474 310.573 69.3906C310.573 70.3073 310.62 71.0521 310.714 71.625C310.818 72.1875 311.026 72.6354 311.339 72.9688C311.661 73.2917 312.13 73.4531 312.745 73.4531C313.37 73.4531 313.839 73.2969 314.151 72.9844C314.464 72.6615 314.667 72.2344 314.76 71.7031C314.865 71.1615 314.917 70.3906 314.917 69.3906ZM337.51 76.75C337.51 77.75 337.328 78.6823 336.964 79.5469C336.599 80.4115 336.073 81.1562 335.385 81.7812C334.698 82.4167 333.865 82.9062 332.885 83.25C331.917 83.5938 330.865 83.7656 329.729 83.7656C328.76 83.7656 327.906 83.6979 327.167 83.5625C326.427 83.4271 325.729 83.1927 325.073 82.8594C324.427 82.5365 323.828 82.0885 323.276 81.5156L326.526 78.25C326.911 78.6354 327.349 78.9115 327.839 79.0781C328.339 79.2552 328.885 79.3438 329.479 79.3438C330.469 79.3438 331.177 79.0781 331.604 78.5469C332.042 78.026 332.26 77.4167 332.26 76.7188V75.4688C331.312 76.4271 330.078 76.9062 328.557 76.9062C326.88 76.9062 325.531 76.3958 324.51 75.375C324.01 74.875 323.646 74.3229 323.417 73.7188C323.187 73.1042 323.047 72.4479 322.995 71.75C322.943 71.0521 322.917 70.0521 322.917 68.75C322.917 67.75 322.927 66.9844 322.948 66.4531C322.979 65.9219 323.047 65.3802 323.151 64.8281C323.255 64.2656 323.411 63.7708 323.62 63.3438C323.828 62.9167 324.125 62.5104 324.51 62.125C324.99 61.6458 325.583 61.2708 326.292 61C327.01 60.7292 327.776 60.5938 328.589 60.5938C329.432 60.5938 330.151 60.724 330.745 60.9844C331.339 61.2448 331.896 61.6458 332.417 62.1875V60.7812H337.51V76.75ZM332.26 68.75C332.26 68.0417 332.219 67.4479 332.135 66.9688C332.052 66.4896 331.859 66.099 331.557 65.7969C331.255 65.4844 330.807 65.3281 330.214 65.3281C329.62 65.3281 329.172 65.4844 328.87 65.7969C328.568 66.099 328.375 66.4896 328.292 66.9688C328.208 67.4375 328.167 68.0312 328.167 68.75C328.167 69.4583 328.208 70.0521 328.292 70.5312C328.375 71.0104 328.568 71.4062 328.87 71.7188C329.172 72.0208 329.62 72.1719 330.214 72.1719C330.807 72.1719 331.255 72.0208 331.557 71.7188C331.859 71.4062 332.052 71.0156 332.135 70.5469C332.219 70.0677 332.26 69.4688 332.26 68.75ZM356.214 60.7812L349.073 80.0469C348.74 81.0052 348.292 81.7604 347.729 82.3125C346.833 83.2812 345.547 83.7656 343.87 83.7656H341.885V79.0312H342.995C343.484 79.0312 343.859 78.9427 344.12 78.7656C344.38 78.5885 344.594 78.25 344.76 77.75L345.245 76.2969L339.51 60.7812H345.01L347.932 69.7188L350.714 60.7812H356.214Z"></path>
<path fill="white" d="M34.3229 71.3267C34.3229 72.8162 33.927 74.1027 33.1354 75.186C32.3541 76.2694 31.2916 77.0923 29.9479 77.6548C28.6145 78.2069 27.1406 78.4829 25.526 78.4829C23.6406 78.4829 22 78.259 20.6041 77.811C19.2083 77.3631 17.9687 76.5871 16.8854 75.4829L20.4791 71.8892C21.0416 72.4517 21.7812 72.8631 22.6979 73.1235C23.6145 73.3735 24.5677 73.4985 25.5573 73.4985C27.7343 73.4985 28.8229 72.8162 28.8229 71.4517C28.8229 70.8683 28.6718 70.4204 28.3698 70.1079C28.0677 69.7954 27.5677 69.5923 26.8698 69.4985L24.1198 69.1079C22.0989 68.8267 20.5729 68.1548 19.5416 67.0923C18.5 66.0194 17.9791 64.4933 17.9791 62.5142C17.9791 61.1287 18.3125 59.8944 18.9791 58.811C19.6562 57.7173 20.6198 56.8631 21.8698 56.2485C23.1302 55.634 24.6041 55.3267 26.2916 55.3267C27.9687 55.3267 29.4323 55.5454 30.6823 55.9829C31.9427 56.41 33.0416 57.0975 33.9791 58.0454L30.4635 61.561C29.8802 60.9777 29.25 60.6079 28.5729 60.4517C27.8958 60.2954 27.0833 60.2173 26.1354 60.2173C25.2395 60.2173 24.5573 60.4308 24.0885 60.8579C23.6198 61.285 23.3854 61.7746 23.3854 62.3267C23.3854 62.7329 23.5364 63.0871 23.8385 63.3892C24.1927 63.7433 24.7135 63.9673 25.401 64.061L28.151 64.436C30.151 64.7277 31.6458 65.3579 32.6354 66.3267C33.2291 66.8996 33.6562 67.5975 33.9166 68.4204C34.1875 69.2329 34.3229 70.2017 34.3229 71.3267ZM50.3229 76.2798C49.8645 76.7381 49.3385 77.1392 48.7448 77.4829C48.1614 77.8162 47.5208 78.0662 46.8229 78.2329C46.125 78.3996 45.401 78.4829 44.651 78.4829C43.4323 78.4829 42.2448 78.2485 41.0885 77.7798C39.9427 77.311 38.9583 76.4152 38.1354 75.0923C37.3229 73.7694 36.9166 71.9673 36.9166 69.686C36.9166 67.4048 37.3229 65.6027 38.1354 64.2798C38.9583 62.9569 39.9427 62.061 41.0885 61.5923C42.2448 61.1235 43.4323 60.8892 44.651 60.8892C45.8177 60.8892 46.875 61.0767 47.8229 61.4517C48.7708 61.8267 49.6041 62.3735 50.3229 63.0923L46.776 66.6548C46.0885 65.9673 45.3802 65.6235 44.651 65.6235C44.0156 65.6235 43.4739 65.8475 43.026 66.2954C42.4531 66.8996 42.1666 68.0298 42.1666 69.686C42.1666 71.3423 42.4531 72.4725 43.026 73.0767C43.4739 73.5246 44.0156 73.7485 44.651 73.7485C45.3906 73.7485 46.0989 73.41 46.776 72.7329L50.3229 76.2798ZM58.151 59.3267H52.901V55.3267H58.151V59.3267ZM58.151 78.2954H52.901V61.7485H58.151V78.2954ZM76.8073 71.3892H66.5104C66.5104 72.1392 66.7812 72.7746 67.3229 73.2954C67.875 73.8162 68.6145 74.0767 69.5416 74.0767C70.4166 74.0767 71.0989 73.9621 71.5885 73.7329C72.0885 73.5037 72.5885 73.1392 73.0885 72.6392L76.2291 75.7642C75.2812 76.7121 74.3177 77.4048 73.3385 77.8423C72.3593 78.2694 71.0937 78.4829 69.5416 78.4829C64.0833 78.4829 61.3541 75.5506 61.3541 69.686C61.3541 66.9256 62.0625 64.7694 63.4791 63.2173C64.9062 61.6652 66.7656 60.8892 69.0573 60.8892C70.6718 60.8892 72.0625 61.2485 73.2291 61.9673C74.4062 62.686 75.2968 63.66 75.901 64.8892C76.5052 66.1183 76.8073 67.5037 76.8073 69.0454V71.3892ZM71.6198 67.8892C71.6198 67.3787 71.526 66.9308 71.3385 66.5454C71.1718 66.16 70.8906 65.8423 70.4948 65.5923C70.1093 65.3319 69.6302 65.2017 69.0573 65.2017C68.4843 65.2017 68 65.3319 67.6041 65.5923C67.2187 65.8423 66.9479 66.16 66.7916 66.5454C66.6041 66.9308 66.5104 67.3787 66.5104 67.8892H71.6198ZM94.7448 78.2954H89.4948V67.9985C89.4948 67.1131 89.2656 66.4985 88.8073 66.1548C88.3593 65.8006 87.8854 65.6235 87.3854 65.6235C86.8854 65.6235 86.4062 65.8006 85.9479 66.1548C85.5 66.509 85.276 67.1235 85.276 67.9985V78.2954H80.026V61.0767H85.151V62.4829C85.651 61.9829 86.2656 61.5923 86.9948 61.311C87.7343 61.0298 88.4531 60.8892 89.151 60.8892C90.7448 60.8892 92.0312 61.3787 93.0104 62.3579C93.6875 63.0142 94.1458 63.7381 94.3854 64.5298C94.625 65.3215 94.7448 66.2381 94.7448 67.2798V78.2954ZM111.198 76.2798C110.74 76.7381 110.214 77.1392 109.62 77.4829C109.036 77.8162 108.396 78.0662 107.698 78.2329C107 78.3996 106.276 78.4829 105.526 78.4829C104.307 78.4829 103.12 78.2485 101.964 77.7798C100.818 77.311 99.8333 76.4152 99.0104 75.0923C98.1979 73.7694 97.7916 71.9673 97.7916 69.686C97.7916 67.4048 98.1979 65.6027 99.0104 64.2798C99.8333 62.9569 100.818 62.061 101.964 61.5923C103.12 61.1235 104.307 60.8892 105.526 60.8892C106.693 60.8892 107.75 61.0767 108.698 61.4517C109.646 61.8267 110.479 62.3735 111.198 63.0923L107.651 66.6548C106.964 65.9673 106.255 65.6235 105.526 65.6235C104.891 65.6235 104.349 65.8475 103.901 66.2954C103.328 66.8996 103.042 68.0298 103.042 69.686C103.042 71.3423 103.328 72.4725 103.901 73.0767C104.349 73.5246 104.891 73.7485 105.526 73.7485C106.266 73.7485 106.974 73.41 107.651 72.7329L111.198 76.2798ZM128.464 71.3892H118.167C118.167 72.1392 118.437 72.7746 118.979 73.2954C119.531 73.8162 120.271 74.0767 121.198 74.0767C122.073 74.0767 122.755 73.9621 123.245 73.7329C123.745 73.5037 124.245 73.1392 124.745 72.6392L127.885 75.7642C126.937 76.7121 125.974 77.4048 124.995 77.8423C124.016 78.2694 122.75 78.4829 121.198 78.4829C115.74 78.4829 113.01 75.5506 113.01 69.686C113.01 66.9256 113.719 64.7694 115.135 63.2173C116.562 61.6652 118.422 60.8892 120.714 60.8892C122.328 60.8892 123.719 61.2485 124.885 61.9673C126.062 62.686 126.953 63.66 127.557 64.8892C128.161 66.1183 128.464 67.5037 128.464 69.0454V71.3892ZM123.276 67.8892C123.276 67.3787 123.182 66.9308 122.995 66.5454C122.828 66.16 122.547 65.8423 122.151 65.5923C121.766 65.3319 121.286 65.2017 120.714 65.2017C120.141 65.2017 119.656 65.3319 119.26 65.5923C118.875 65.8423 118.604 66.16 118.448 66.5454C118.26 66.9308 118.167 67.3787 118.167 67.8892H123.276Z"></path>
<path fill="white" d="M164.948 69.4062H160.089V74.2656H155.167V69.4062H150.292V64.4844H155.167V59.6094H160.089V64.4844H164.948V69.4062Z"></path>
<rect fill="#FF0000" height="45" width="40" y="90" x="66.7291"></rect>
<rect fill="#00C5E4" height="45" width="202" y="90" x="106.729"></rect>
<path fill="white" d="M93.9479 114.406H89.0885V119.266H84.1666V114.406H79.2916V109.484H84.1666V104.609H89.0885V109.484H93.9479V114.406Z"></path>
<path fill="white" d="M136.526 121H121.026V98.2188H136.526V103.203H126.635V107.016H135.089V112.016H126.635V116.016H136.526V121ZM154.901 121H149.651V110.703C149.651 109.818 149.422 109.203 148.964 108.859C148.516 108.505 148.042 108.328 147.542 108.328C147.042 108.328 146.562 108.505 146.104 108.859C145.656 109.214 145.432 109.828 145.432 110.703V121H140.182V103.781H145.307V105.188C145.807 104.688 146.422 104.297 147.151 104.016C147.891 103.734 148.609 103.594 149.307 103.594C150.901 103.594 152.187 104.083 153.167 105.062C153.844 105.719 154.302 106.443 154.542 107.234C154.781 108.026 154.901 108.943 154.901 109.984V121ZM172.698 119.75C172.698 120.75 172.516 121.682 172.151 122.547C171.786 123.411 171.26 124.156 170.573 124.781C169.885 125.417 169.052 125.906 168.073 126.25C167.104 126.594 166.052 126.766 164.917 126.766C163.948 126.766 163.094 126.698 162.354 126.562C161.615 126.427 160.917 126.193 160.26 125.859C159.615 125.536 159.016 125.089 158.464 124.516L161.714 121.25C162.099 121.635 162.536 121.911 163.026 122.078C163.526 122.255 164.073 122.344 164.667 122.344C165.656 122.344 166.365 122.078 166.792 121.547C167.229 121.026 167.448 120.417 167.448 119.719V118.469C166.5 119.427 165.266 119.906 163.745 119.906C162.068 119.906 160.719 119.396 159.698 118.375C159.198 117.875 158.833 117.323 158.604 116.719C158.375 116.104 158.234 115.448 158.182 114.75C158.13 114.052 158.104 113.052 158.104 111.75C158.104 110.75 158.115 109.984 158.135 109.453C158.167 108.922 158.234 108.38 158.339 107.828C158.443 107.266 158.599 106.771 158.807 106.344C159.016 105.917 159.312 105.51 159.698 105.125C160.177 104.646 160.771 104.271 161.479 104C162.198 103.729 162.964 103.594 163.776 103.594C164.62 103.594 165.339 103.724 165.932 103.984C166.526 104.245 167.083 104.646 167.604 105.188V103.781H172.698V119.75ZM167.448 111.75C167.448 111.042 167.406 110.448 167.323 109.969C167.24 109.49 167.047 109.099 166.745 108.797C166.443 108.484 165.995 108.328 165.401 108.328C164.807 108.328 164.359 108.484 164.057 108.797C163.755 109.099 163.562 109.49 163.479 109.969C163.396 110.438 163.354 111.031 163.354 111.75C163.354 112.458 163.396 113.052 163.479 113.531C163.562 114.01 163.755 114.406 164.057 114.719C164.359 115.021 164.807 115.172 165.401 115.172C165.995 115.172 166.443 115.021 166.745 114.719C167.047 114.406 167.24 114.016 167.323 113.547C167.406 113.068 167.448 112.469 167.448 111.75ZM181.932 102.031H176.682V98.0312H181.932V102.031ZM181.932 121H176.682V104.453H181.932V121ZM200.62 121H195.37V110.703C195.37 109.818 195.141 109.203 194.682 108.859C194.234 108.505 193.76 108.328 193.26 108.328C192.76 108.328 192.281 108.505 191.823 108.859C191.375 109.214 191.151 109.828 191.151 110.703V121H185.901V103.781H191.026V105.188C191.526 104.688 192.141 104.297 192.87 104.016C193.609 103.734 194.328 103.594 195.026 103.594C196.62 103.594 197.906 104.083 198.885 105.062C199.562 105.719 200.021 106.443 200.26 107.234C200.5 108.026 200.62 108.943 200.62 109.984V121ZM219.12 114.094H208.823C208.823 114.844 209.094 115.479 209.635 116C210.187 116.521 210.927 116.781 211.854 116.781C212.729 116.781 213.411 116.667 213.901 116.438C214.401 116.208 214.901 115.844 215.401 115.344L218.542 118.469C217.594 119.417 216.63 120.109 215.651 120.547C214.672 120.974 213.406 121.188 211.854 121.188C206.396 121.188 203.667 118.255 203.667 112.391C203.667 109.63 204.375 107.474 205.792 105.922C207.219 104.37 209.078 103.594 211.37 103.594C212.984 103.594 214.375 103.953 215.542 104.672C216.719 105.391 217.609 106.365 218.214 107.594C218.818 108.823 219.12 110.208 219.12 111.75V114.094ZM213.932 110.594C213.932 110.083 213.839 109.635 213.651 109.25C213.484 108.865 213.203 108.547 212.807 108.297C212.422 108.036 211.943 107.906 211.37 107.906C210.797 107.906 210.312 108.036 209.917 108.297C209.531 108.547 209.26 108.865 209.104 109.25C208.917 109.635 208.823 110.083 208.823 110.594H213.932ZM237.026 114.094H226.729C226.729 114.844 227 115.479 227.542 116C228.094 116.521 228.833 116.781 229.76 116.781C230.635 116.781 231.318 116.667 231.807 116.438C232.307 116.208 232.807 115.844 233.307 115.344L236.448 118.469C235.5 119.417 234.536 120.109 233.557 120.547C232.578 120.974 231.312 121.188 229.76 121.188C224.302 121.188 221.573 118.255 221.573 112.391C221.573 109.63 222.281 107.474 223.698 105.922C225.125 104.37 226.984 103.594 229.276 103.594C230.891 103.594 232.281 103.953 233.448 104.672C234.625 105.391 235.516 106.365 236.12 107.594C236.724 108.823 237.026 110.208 237.026 111.75V114.094ZM231.839 110.594C231.839 110.083 231.745 109.635 231.557 109.25C231.391 108.865 231.109 108.547 230.714 108.297C230.328 108.036 229.849 107.906 229.276 107.906C228.703 107.906 228.219 108.036 227.823 108.297C227.437 108.547 227.167 108.865 227.01 109.25C226.823 109.635 226.729 110.083 226.729 110.594H231.839ZM253.464 105.188L249.495 109.219C249.203 108.927 248.922 108.708 248.651 108.562C248.38 108.406 248.031 108.328 247.604 108.328C247.115 108.328 246.641 108.51 246.182 108.875C245.724 109.229 245.495 109.839 245.495 110.703V121H240.245V103.781H245.37V105.188C245.807 104.75 246.38 104.375 247.089 104.062C247.807 103.75 248.589 103.594 249.432 103.594C250.286 103.594 251.026 103.714 251.651 103.953C252.276 104.193 252.88 104.604 253.464 105.188ZM260.714 102.031H255.464V98.0312H260.714V102.031ZM260.714 121H255.464V104.453H260.714V121ZM279.401 121H274.151V110.703C274.151 109.818 273.922 109.203 273.464 108.859C273.016 108.505 272.542 108.328 272.042 108.328C271.542 108.328 271.062 108.505 270.604 108.859C270.156 109.214 269.932 109.828 269.932 110.703V121H264.682V103.781H269.807V105.188C270.307 104.688 270.922 104.297 271.651 104.016C272.391 103.734 273.109 103.594 273.807 103.594C275.401 103.594 276.687 104.083 277.667 105.062C278.344 105.719 278.802 106.443 279.042 107.234C279.281 108.026 279.401 108.943 279.401 109.984V121ZM297.198 119.75C297.198 120.75 297.016 121.682 296.651 122.547C296.286 123.411 295.76 124.156 295.073 124.781C294.385 125.417 293.552 125.906 292.573 126.25C291.604 126.594 290.552 126.766 289.417 126.766C288.448 126.766 287.594 126.698 286.854 126.562C286.115 126.427 285.417 126.193 284.76 125.859C284.115 125.536 283.516 125.089 282.964 124.516L286.214 121.25C286.599 121.635 287.036 121.911 287.526 122.078C288.026 122.255 288.573 122.344 289.167 122.344C290.156 122.344 290.865 122.078 291.292 121.547C291.729 121.026 291.948 120.417 291.948 119.719V118.469C291 119.427 289.766 119.906 288.245 119.906C286.568 119.906 285.219 119.396 284.198 118.375C283.698 117.875 283.333 117.323 283.104 116.719C282.875 116.104 282.734 115.448 282.682 114.75C282.63 114.052 282.604 113.052 282.604 111.75C282.604 110.75 282.615 109.984 282.635 109.453C282.667 108.922 282.734 108.38 282.839 107.828C282.943 107.266 283.099 106.771 283.307 106.344C283.516 105.917 283.812 105.51 284.198 105.125C284.677 104.646 285.271 104.271 285.979 104C286.698 103.729 287.464 103.594 288.276 103.594C289.12 103.594 289.839 103.724 290.432 103.984C291.026 104.245 291.583 104.646 292.104 105.188V103.781H297.198V119.75ZM291.948 111.75C291.948 111.042 291.906 110.448 291.823 109.969C291.74 109.49 291.547 109.099 291.245 108.797C290.943 108.484 290.495 108.328 289.901 108.328C289.307 108.328 288.859 108.484 288.557 108.797C288.255 109.099 288.062 109.49 287.979 109.969C287.896 110.438 287.854 111.031 287.854 111.75C287.854 112.458 287.896 113.052 287.979 113.531C288.062 114.01 288.255 114.406 288.557 114.719C288.859 115.021 289.307 115.172 289.901 115.172C290.495 115.172 290.943 115.021 291.245 114.719C291.547 114.406 291.74 114.016 291.823 113.547C291.906 113.068 291.948 112.469 291.948 111.75Z"></path>
</svg>
