<svg height="158.28" width="311" xmlns="http://www.w3.org/2000/svg">
  <path d="M190.922 102.321h15.028l-7.474-10.265-7.554 10.265zm-17.574 10.128l17.409-22.131 1.941-2.466c-.452-1.418-1.286-2.984-2.82-4.113l10.65.002 1.151.058 21.844 28.65h-10.265l-3.942-5.383h-21.844l-3.941 5.383h-10.183zm-33.057 0h9.525V88.817h15.111v-5.018H125.18v5.018h15.111v23.632zm-71.256-4.699c6.488 3.787 14.864 5.293 22.091 5.293 11.825 0 22.747-3.604 22.747-9.581 0-11.907-33.259-5.475-33.259-11.907 0-1.734 2.957-3.878 10.84-3.878 5.01 0 9.28.866 13.961 3.422l7.062-3.514c-5.091-2.874-11.99-4.38-20.53-4.38-11.744 0-21.352 3.514-21.352 8.623 0 11.68 33.259 5.521 33.259 11.907 0 2.737-5.091 4.243-12.318 4.289-5.995 0-11.415-1.597-15.274-3.878l-7.227 3.604zm-51.22-18.933v18.613h12.236c11.086 0 18.148-4.242 18.148-9.307s-7.062-9.307-18.148-9.307H17.815v.001zm-9.526 1.364c-.178-1.647-.844-4.558-3.289-6.358l3.289.001 21.762-.025c17.41 0 27.675 6.752 27.675 14.325s-10.676 14.325-27.675 14.325H8.289V90.181z" fill="#164194"></path>
  <path d="M283.918 47.198s20.481 30.933-15.477 24.732-75.751-46.342-75.751-46.342 13.173 24.528 52.269 45.296c39.095 20.768 66.341 20.088 60.211.697-4.181-13.228-21.252-24.383-21.252-24.383z" fill="#009870"></path>
  <path d="M163.341 66.745s78.336-49.807 111.472-57.382c33.137-7.575 20.508 11.651 13.208 21.166-6.723 8.761-30.756 35.92-30.756 35.92s26.328-34.814-19.771-25.302c-24.898 5.137-74.153 25.598-74.153 25.598z" fill="#164194"></path>
  <path d="M165.979 13.368c6.455-11.646 34.643-8.563 64.799 6.47-23.032-8.826-42.63-9.398-47.75-.161-6.564 11.841 19.146 35.75 45.037 51.82 10.839 6.727 17.369 11.092 30.142 17.228-10.356-2.859-22.563-7.304-44.751-19.191-34.389-18.423-54.419-43.642-47.477-56.166z" fill="#EC6608"></path>
  <path d="M10.873 149.84h2.121v-9.036h4.964v-1.115H5.934v1.115h4.939v9.036z" fill="#164194"></path>
  <path d="M28.724 146.437c.048-.15.072-.361.072-.633 0-1.34-.988-3.434-4.795-3.434-3.397 0-5.494 1.732-5.494 3.946 0 2.184 2.168 3.675 5.735 3.675 1.855 0 3.157-.256 3.904-.467l-.386-.935c-.771.196-1.711.362-3.229.362-2.121 0-3.928-.738-3.976-2.53l8.169.016zm-8.144-.964c.168-.919 1.084-2.153 3.253-2.153 2.361 0 2.94 1.325 2.916 2.153H20.58z" fill="#164194" clip-rule="evenodd" fill-rule="evenodd"></path>
  <path d="M40.58 148.59a9.206 9.206 0 01-2.603.347c-2.313 0-4.048-1.039-4.048-2.726 0-1.521 1.446-2.771 4.121-2.771 1.157 0 1.952.181 2.458.347l.482-1.01c-.578-.195-1.687-.391-2.94-.391-3.807 0-6.265 1.642-6.265 3.885 0 2.244 2.289 3.735 5.807 3.735 1.566 0 2.795-.256 3.35-.422l-.362-.994zm4.047 1.25h2.121v-4.397c0-.256.024-.451.145-.633.41-.723 1.47-1.325 2.843-1.325 2 0 2.699.979 2.699 2.169v4.187h2.12v-4.337c0-2.516-2.506-3.117-4.072-3.117-.795 0-1.542.135-2.168.376-.651.211-1.181.558-1.518.934h-.048v-4.548h-2.121v10.691h-.001zm14.572 0h2.121v-4.397c0-.211.048-.451.145-.617.385-.738 1.47-1.355 2.843-1.355 2 0 2.699.994 2.699 2.169v4.201h2.121v-4.353c0-2.5-2.506-3.102-4.121-3.102-1.928 0-3.277.678-3.855 1.355h-.048l-.12-1.19h-1.879c.072.603.096 1.205.096 1.973v5.316h-.002z" fill="#164194"></path>
  <path d="M78.542 150.006c2.771 0 5.783-1.175 5.783-3.886 0-2.214-2.265-3.734-5.615-3.734-3.205 0-5.783 1.431-5.783 3.87 0 2.305 2.458 3.75 5.59 3.75h.025zm.024-.994c-2.048 0-3.494-1.205-3.494-2.801 0-1.386 1.084-2.832 3.566-2.832 2.506 0 3.494 1.552 3.494 2.786 0 1.657-1.518 2.847-3.542 2.847h-.024z" fill="#164194" clip-rule="evenodd" fill-rule="evenodd"></path>
  <path d="M88.201 149.84h2.121v-10.693h-2.121v10.693z" fill="#164194"></path>
  <path d="M99.812 150.006c2.771 0 5.783-1.175 5.783-3.886 0-2.214-2.265-3.734-5.615-3.734-3.205 0-5.783 1.431-5.783 3.87 0 2.305 2.458 3.75 5.591 3.75h.024zm.024-.994c-2.048 0-3.494-1.205-3.494-2.801 0-1.386 1.084-2.832 3.566-2.832 2.506 0 3.494 1.552 3.494 2.786 0 1.657-1.518 2.847-3.542 2.847h-.024zm19.635-4.473c0-.889.024-1.476.096-1.988h-1.879l-.072 1.085h-.048c-.53-.603-1.615-1.25-3.639-1.25-2.699 0-5.277 1.385-5.277 3.854 0 2.033 2.073 3.57 4.964 3.57 1.807 0 3.084-.543 3.711-1.221h.048v.799c0 1.853-1.59 2.56-3.759 2.56-1.446 0-2.651-.271-3.422-.587l-.53 1.024c.94.392 2.482.602 3.88.602 1.47 0 3.108-.226 4.265-.873 1.108-.647 1.663-1.656 1.663-3.344v-4.231h-.001zm-2.12 2.184c0 .241-.048.497-.168.708-.434.858-1.615 1.37-2.94 1.37-2.265 0-3.446-1.204-3.446-2.62 0-1.702 1.446-2.771 3.47-2.771 1.566 0 2.578.633 2.964 1.416.097.181.121.377.121.587v1.31h-.001z" fill="#164194" clip-rule="evenodd" fill-rule="evenodd"></path>
  <path d="M122.595 142.551l4.289 6.732c.121.15.169.256.169.331 0 .091-.073.181-.169.316a5.19 5.19 0 01-1.783 1.476 6.082 6.082 0 01-1.855.647l.53 1.115c.53-.061 1.542-.286 2.603-.844 1.446-.798 2.482-2.078 4-4.578l3.181-5.196h-2.241l-2.313 4.277c-.29.527-.53 1.084-.747 1.521h-.048a14.135 14.135 0 00-.771-1.491l-2.53-4.308h-2.315v.002z" fill="#164194"></path>
  <path d="M151.478 146.647l1.735 3.192h2.241l-5.542-10.15h-2.53l-5.519 10.15h2.169l1.687-3.192h5.759zm-5.325-1.024l1.59-2.937c.313-.617.578-1.25.795-1.838h.072c.241.588.482 1.19.819 1.853l1.615 2.922h-4.891zm22.498-1.084c0-.889.024-1.476.096-1.988h-1.879l-.072 1.085h-.048c-.531-.603-1.615-1.25-3.639-1.25-2.699 0-5.277 1.385-5.277 3.854 0 2.033 2.072 3.57 4.964 3.57 1.807 0 3.084-.543 3.711-1.221h.048v.799c0 1.853-1.591 2.56-3.759 2.56-1.446 0-2.651-.271-3.422-.587l-.53 1.024c.939.392 2.482.602 3.88.602 1.47 0 3.108-.226 4.265-.873 1.108-.647 1.663-1.656 1.663-3.344v-4.231h-.001zm-2.121 2.184c0 .241-.048.497-.169.708-.434.858-1.614 1.37-2.939 1.37-2.265 0-3.445-1.204-3.445-2.62 0-1.702 1.445-2.771 3.47-2.771 1.566 0 2.578.633 2.964 1.416.097.181.12.377.12.587v1.31h-.001zm16.185-.286c.048-.15.071-.361.071-.633 0-1.34-.987-3.434-4.795-3.434-3.397 0-5.494 1.732-5.494 3.946 0 2.184 2.169 3.675 5.735 3.675 1.855 0 3.156-.256 3.903-.467l-.386-.935c-.771.196-1.71.362-3.229.362-2.12 0-3.928-.738-3.976-2.53l8.171.016zm-8.146-.964c.169-.919 1.085-2.153 3.253-2.153 2.361 0 2.94 1.325 2.916 2.153h-6.169z" fill="#164194" clip-rule="evenodd" fill-rule="evenodd"></path>
  <path d="M186.618 149.84h2.12v-4.397c0-.211.049-.451.146-.617.385-.738 1.47-1.355 2.843-1.355 2 0 2.699.994 2.699 2.169v4.201h2.12v-4.353c0-2.5-2.506-3.102-4.12-3.102-1.928 0-3.277.678-3.855 1.355h-.049l-.12-1.19h-1.88c.072.603.097 1.205.097 1.973v5.316h-.001zm22.524-1.25a9.206 9.206 0 01-2.603.347c-2.313 0-4.048-1.039-4.048-2.726 0-1.521 1.445-2.771 4.12-2.771 1.157 0 1.952.181 2.458.347l.481-1.01c-.577-.195-1.687-.391-2.939-.391-3.807 0-6.265 1.642-6.265 3.885 0 2.244 2.289 3.735 5.807 3.735 1.566 0 2.796-.256 3.35-.422l-.361-.994zm2.938-6.039l4.29 6.732c.12.15.168.256.168.331 0 .091-.072.181-.168.316a5.2 5.2 0 01-1.783 1.476 6.1 6.1 0 01-1.855.647l.529 1.115c.53-.061 1.543-.286 2.603-.844 1.446-.798 2.482-2.078 4-4.578l3.182-5.196h-2.241l-2.313 4.277c-.289.527-.53 1.084-.747 1.521h-.048a14.327 14.327 0 00-.771-1.491l-2.53-4.308h-2.316v.002z" fill="#164194"></path>
  <path d="M7.765 133.385c1.084.09 2.313.12 3.832.12 3.156 0 5.663-.512 7.205-1.461 1.494-.934 2.337-2.289 2.337-3.945 0-1.642-.843-2.832-2.313-3.66-1.422-.828-3.566-1.25-6.579-1.25-1.663 0-3.181.091-4.482.211v9.985zm2.12-9.022c.554-.075 1.374-.136 2.458-.136 4.434 0 6.603 1.491 6.578 3.916 0 2.741-2.434 4.322-6.916 4.307-.819 0-1.59 0-2.121-.06v-8.027h.001zm25.158 5.648c.048-.15.072-.361.072-.633 0-1.34-.988-3.434-4.795-3.434-3.397 0-5.494 1.732-5.494 3.946 0 2.184 2.168 3.675 5.735 3.675 1.855 0 3.157-.257 3.904-.467l-.386-.934c-.771.195-1.711.361-3.229.361-2.121 0-3.928-.738-3.976-2.53l8.169.016zm-8.145-.964c.168-.919 1.084-2.153 3.253-2.153 2.361 0 2.94 1.325 2.916 2.153h-6.169z" fill="#164194" clip-rule="evenodd" fill-rule="evenodd"></path>
  <path d="M41.823 133.414v-6.28h2.795v-1.009h-2.819v-.392c0-1.114.482-2.108 2.265-2.108.627 0 1.037.075 1.374.166l.265-1.024a7.423 7.423 0 00-1.807-.211c-.964 0-2.024.196-2.819.678-.988.588-1.374 1.521-1.374 2.545v.347h-1.614v1.009h1.614v6.28h2.12v-.001z" fill="#164194"></path>
  <path d="M57.4 130.011c.048-.15.072-.361.072-.633 0-1.34-.988-3.434-4.795-3.434-3.397 0-5.494 1.732-5.494 3.946 0 2.184 2.168 3.675 5.735 3.675 1.855 0 3.157-.257 3.904-.467l-.386-.934c-.771.195-1.711.361-3.229.361-2.121 0-3.928-.738-3.976-2.53l8.169.016zm-8.145-.964c.168-.919 1.084-2.153 3.253-2.153 2.361 0 2.94 1.325 2.916 2.153h-6.169z" fill="#164194" clip-rule="evenodd" fill-rule="evenodd"></path>
  <path d="M61.866 133.414h2.121v-4.397c0-.211.048-.451.145-.617.386-.738 1.47-1.355 2.844-1.355 2 0 2.699.994 2.699 2.169v4.201h2.121v-4.352c0-2.5-2.506-3.103-4.121-3.103-1.928 0-3.277.678-3.855 1.355h-.05l-.121-1.19H61.77c.072.603.096 1.205.096 1.974v5.315zm23.086-1.249a9.242 9.242 0 01-2.602.346c-2.313 0-4.048-1.039-4.048-2.726 0-1.521 1.446-2.771 4.121-2.771 1.157 0 1.952.181 2.458.347l.482-1.009c-.579-.196-1.687-.392-2.94-.392-3.808 0-6.265 1.641-6.265 3.885s2.289 3.735 5.807 3.735c1.566 0 2.795-.256 3.35-.422l-.363-.993z" fill="#164194"></path>
  <path d="M98.792 130.011c.048-.15.072-.361.072-.633 0-1.34-.988-3.434-4.795-3.434-3.397 0-5.494 1.732-5.494 3.946 0 2.184 2.169 3.675 5.735 3.675 1.855 0 3.157-.257 3.904-.467l-.386-.934c-.771.195-1.711.361-3.229.361-2.121 0-3.928-.738-3.976-2.53l8.169.016zm-8.145-.964c.168-.919 1.084-2.153 3.253-2.153 2.361 0 2.94 1.325 2.916 2.153h-6.169z" fill="#164194" clip-rule="evenodd" fill-rule="evenodd"></path>
  <path d="M111.658 132.918c.867.361 2.578.662 4.145.662 3.831 0 5.663-1.37 5.663-2.937 0-1.491-1.374-2.305-4.121-2.982-2.241-.542-3.229-1.009-3.229-1.958 0-.692.844-1.521 3.061-1.521 1.47 0 2.554.286 3.06.481l.579-1.069c-.699-.256-1.928-.497-3.566-.497-3.157 0-5.253 1.175-5.253 2.757 0 1.415 1.638 2.289 4.289 2.892 2.193.512 3.06 1.069 3.06 2.003 0 1.039-1.253 1.731-3.397 1.731-1.446 0-2.795-.286-3.735-.662l-.556 1.1zm22.343-.753a9.244 9.244 0 01-2.603.346c-2.313 0-4.048-1.039-4.048-2.726 0-1.521 1.446-2.771 4.121-2.771 1.157 0 1.952.181 2.458.347l.482-1.009c-.578-.196-1.687-.392-2.939-.392-3.808 0-6.266 1.641-6.266 3.885s2.29 3.735 5.808 3.735c1.566 0 2.795-.256 3.35-.422l-.363-.993z" fill="#164194"></path>
  <path d="M140.731 133.414v-7.289h-2.12v7.289h2.12zm-1.084-8.629c.843 0 1.374-.392 1.374-.858s-.53-.844-1.35-.844-1.374.377-1.374.844.53.858 1.325.858h.025zm15.74 5.226c.048-.15.072-.361.072-.633 0-1.34-.988-3.434-4.795-3.434-3.397 0-5.494 1.732-5.494 3.946 0 2.184 2.168 3.675 5.735 3.675 1.855 0 3.156-.257 3.904-.467l-.386-.934c-.771.195-1.711.361-3.229.361-2.121 0-3.928-.738-3.976-2.53l8.169.016zm-8.145-.964c.169-.919 1.084-2.153 3.253-2.153 2.361 0 2.939 1.325 2.916 2.153h-6.169z" fill="#164194" clip-rule="evenodd" fill-rule="evenodd"></path>
  <path d="M159.854 133.414h2.121v-4.397c0-.211.048-.451.145-.617.385-.738 1.47-1.355 2.843-1.355 2 0 2.699.994 2.699 2.169v4.201h2.12v-4.352c0-2.5-2.506-3.103-4.12-3.103-1.928 0-3.277.678-3.855 1.355h-.049l-.12-1.19h-1.879c.071.603.096 1.205.096 1.974v5.315h-.001zm23.085-1.249a9.25 9.25 0 01-2.603.346c-2.313 0-4.048-1.039-4.048-2.726 0-1.521 1.445-2.771 4.12-2.771 1.157 0 1.952.181 2.458.347l.482-1.009c-.579-.196-1.688-.392-2.94-.392-3.807 0-6.265 1.641-6.265 3.885s2.289 3.735 5.807 3.735c1.566 0 2.796-.256 3.35-.422l-.361-.993z" fill="#164194"></path>
  <path d="M196.778 130.011c.049-.15.073-.361.073-.633 0-1.34-.988-3.434-4.796-3.434-3.397 0-5.494 1.732-5.494 3.946 0 2.184 2.169 3.675 5.735 3.675 1.855 0 3.156-.257 3.903-.467l-.386-.934c-.771.195-1.71.361-3.229.361-2.12 0-3.928-.738-3.977-2.53l8.171.016zm-8.144-.964c.169-.919 1.085-2.153 3.253-2.153 2.362 0 2.94 1.325 2.916 2.153h-6.169zm34.506 4.367c-.964-.647-1.808-1.22-2.675-1.792 1.204-.889 1.903-2.153 2.337-3.75h-1.928c-.313 1.28-.819 2.26-1.566 2.967a220.096 220.096 0 01-3.951-2.831v-.045c2.578-.799 3.566-1.642 3.566-2.711 0-1.325-1.566-2.154-3.591-2.154-2.699 0-4.145 1.266-4.145 2.501 0 .723.555 1.46 1.374 2.123v.045c-1.856.648-3.182 1.582-3.182 2.967 0 1.521 1.832 2.847 4.988 2.847 1.808 0 3.35-.347 4.747-1.145.627.406 1.061.693 1.519.979h2.507v-.001zm-8.411-.828c-1.951 0-3.301-.889-3.301-2.048 0-1.069 1.204-1.717 2.096-2.063a168.242 168.242 0 004.555 3.192c-.771.527-1.928.919-3.325.919h-.025zm.483-8.584c1.325 0 1.879.692 1.879 1.31 0 .859-1.036 1.401-2.698 1.988-.675-.542-1.229-1.1-1.229-1.822 0-.783.699-1.476 2.024-1.476h.024z" fill="#164194" clip-rule="evenodd" fill-rule="evenodd"></path>
</svg>