<svg xmlns="http://www.w3.org/2000/svg" fill="none" viewBox="0 0 410 2500" height="2500" width="410">
<mask height="2500" width="410" y="0" x="0" maskUnits="userSpaceOnUse" style="mask-type:alpha" id="mask0_2210_7393">
<rect fill="#D9D9D9" height="2500" width="409.545"></rect>
</mask>
<g mask="url(#mask0_2210_7393)">
<path stroke-miterlimit="10" stroke-width="0.5" stroke-opacity="0.5" stroke="white" d="M31.042 708.865L21.8047 642.838L-53.4274 650.945L-44.19 716.972L31.042 708.865Z"></path>
<path stroke-miterlimit="10" stroke-width="0.5" stroke-opacity="0.5" stroke="white" d="M3.32913 510.773L-5.9082 444.747L-81.1403 452.854L-71.9029 518.88L3.32913 510.773Z"></path>
<path stroke-miterlimit="10" stroke-width="0.5" stroke-opacity="0.5" stroke="white" d="M12.5659 576.8L3.32861 510.773L-71.9035 518.88L-62.6661 584.907L12.5659 576.8Z"></path>
<path stroke-miterlimit="10" stroke-width="0.5" stroke-opacity="0.5" stroke="white" d="M21.8067 642.839L12.5693 576.812L-62.6627 584.919L-53.4254 650.946L21.8067 642.839Z"></path>
<path stroke-miterlimit="10" stroke-width="0.5" stroke-opacity="0.5" stroke="white" d="M106.274 700.759L97.0366 634.732L21.8045 642.839L31.0418 708.866L106.274 700.759Z"></path>
<path stroke-miterlimit="10" stroke-width="0.5" stroke-opacity="0.5" stroke="white" d="M50.8467 304.574L41.6094 238.547L-33.6228 246.654L-24.3854 312.681L50.8467 304.574Z"></path>
<path stroke-miterlimit="10" stroke-width="0.5" stroke-opacity="0.5" stroke="white" d="M60.0855 370.601L50.8481 304.575L-24.384 312.682L-15.1467 378.708L60.0855 370.601Z"></path>
<path stroke-miterlimit="10" stroke-width="0.5" stroke-opacity="0.5" stroke="white" d="M69.3223 436.628L60.085 370.601L-15.1472 378.708L-5.90985 444.735L69.3223 436.628Z"></path>
<path stroke-miterlimit="10" stroke-width="0.5" stroke-opacity="0.5" stroke="white" d="M78.5611 502.666L69.3237 436.639L-5.90842 444.746L3.32892 510.773L78.5611 502.666Z"></path>
<path stroke-miterlimit="10" stroke-width="0.5" stroke-opacity="0.5" stroke="white" d="M87.7984 568.693L78.561 502.667L3.32888 510.774L12.5662 576.8L87.7984 568.693Z"></path>
<path stroke-miterlimit="10" stroke-width="0.5" stroke-opacity="0.5" stroke="white" d="M97.0371 634.731L87.7998 568.705L12.5677 576.812L21.805 642.838L97.0371 634.731Z"></path>
<path stroke-miterlimit="10" stroke-width="0.5" stroke-opacity="0.5" stroke="white" d="M13.8951 40.4441L4.65771 -25.5825L-70.5744 -17.4755L-61.3371 48.5512L13.8951 40.4441Z"></path>
<path stroke-miterlimit="10" stroke-width="0.5" stroke-opacity="0.5" stroke="white" d="M23.1319 106.47L13.8945 40.4438L-61.3376 48.5509L-52.1003 114.578L23.1319 106.47Z"></path>
<path stroke-miterlimit="10" stroke-width="0.5" stroke-opacity="0.5" stroke="white" d="M32.3706 172.509L23.1333 106.482L-52.0989 114.589L-42.8615 180.616L32.3706 172.509Z"></path>
<path stroke-miterlimit="10" stroke-width="0.5" stroke-opacity="0.5" stroke="white" d="M41.6094 238.536L32.3721 172.509L-42.8601 180.616L-33.6227 246.643L41.6094 238.536Z"></path>
<path stroke-miterlimit="10" stroke-width="0.5" stroke-opacity="0.5" stroke="white" d="M181.508 692.651L172.271 626.625L97.0389 634.732L106.276 700.758L181.508 692.651Z"></path>
<path stroke-miterlimit="10" stroke-width="0.5" stroke-opacity="0.5" stroke="white" d="M126.083 296.468L116.845 230.441L41.6131 238.548L50.8505 304.575L126.083 296.468Z"></path>
<path stroke-miterlimit="10" stroke-width="0.5" stroke-opacity="0.5" stroke="white" d="M135.32 362.494L126.083 296.467L50.8504 304.574L60.0878 370.601L135.32 362.494Z"></path>
<path stroke-miterlimit="10" stroke-width="0.5" stroke-opacity="0.5" stroke="white" d="M144.557 428.52L135.319 362.494L60.0873 370.601L69.3246 436.627L144.557 428.52Z"></path>
<path stroke-miterlimit="10" stroke-width="0.5" stroke-opacity="0.5" stroke="white" d="M153.795 494.559L144.558 428.533L69.326 436.64L78.5634 502.666L153.795 494.559Z"></path>
<path stroke-miterlimit="10" stroke-width="0.5" stroke-opacity="0.5" stroke="white" d="M163.032 560.586L153.795 494.559L78.5628 502.666L87.8002 568.693L163.032 560.586Z"></path>
<path stroke-miterlimit="10" stroke-width="0.5" stroke-opacity="0.5" stroke="white" d="M172.273 626.625L163.036 560.598L87.8036 568.705L97.0409 634.732L172.273 626.625Z"></path>
<path stroke-miterlimit="10" stroke-width="0.5" stroke-opacity="0.5" stroke="white" d="M89.1289 32.3367L79.8916 -33.6899L4.65953 -25.5829L13.8969 40.4437L89.1289 32.3367Z"></path>
<path stroke-miterlimit="10" stroke-width="0.5" stroke-opacity="0.5" stroke="white" d="M98.3662 98.3631L89.1289 32.3364L13.8968 40.4435L23.1342 106.47L98.3662 98.3631Z"></path>
<path stroke-miterlimit="10" stroke-width="0.5" stroke-opacity="0.5" stroke="white" d="M107.606 164.402L98.3691 98.3755L23.1371 106.483L32.3744 172.509L107.606 164.402Z"></path>
<path stroke-miterlimit="10" stroke-width="0.5" stroke-opacity="0.5" stroke="white" d="M116.842 230.428L107.604 164.402L32.3724 172.509L41.6097 238.536L116.842 230.428Z"></path>
<path stroke-miterlimit="10" stroke-width="0.5" stroke-opacity="0.5" stroke="white" d="M256.753 684.543L247.516 618.516L172.284 626.623L181.521 692.65L256.753 684.543Z"></path>
<path stroke-miterlimit="10" stroke-width="0.5" stroke-opacity="0.5" stroke="white" d="M201.326 288.359L192.088 222.333L116.856 230.44L126.094 296.466L201.326 288.359Z"></path>
<path stroke-miterlimit="10" stroke-width="0.5" stroke-opacity="0.5" stroke="white" d="M210.563 354.385L201.325 288.359L126.093 296.466L135.33 362.493L210.563 354.385Z"></path>
<path stroke-miterlimit="10" stroke-width="0.5" stroke-opacity="0.5" stroke="white" d="M219.801 420.412L210.564 354.385L135.332 362.492L144.569 428.519L219.801 420.412Z"></path>
<path stroke-miterlimit="10" stroke-width="0.5" stroke-opacity="0.5" stroke="white" d="M229.04 486.45L219.803 420.423L144.571 428.53L153.808 494.557L229.04 486.45Z"></path>
<path stroke-miterlimit="10" stroke-width="0.5" stroke-opacity="0.5" stroke="white" d="M238.275 552.477L229.038 486.451L153.806 494.558L163.043 560.584L238.275 552.477Z"></path>
<path stroke-miterlimit="10" stroke-width="0.5" stroke-opacity="0.5" stroke="white" d="M247.516 618.515L238.279 552.489L163.047 560.596L172.284 626.622L247.516 618.515Z"></path>
<path stroke-miterlimit="10" stroke-width="0.5" stroke-opacity="0.5" stroke="white" d="M164.374 24.2283L155.137 -41.7983L79.9046 -33.6913L89.142 32.3353L164.374 24.2283Z"></path>
<path stroke-miterlimit="10" stroke-width="0.5" stroke-opacity="0.5" stroke="white" d="M173.611 90.2547L164.374 24.228L89.1415 32.3351L98.3788 98.3617L173.611 90.2547Z"></path>
<path stroke-miterlimit="10" stroke-width="0.5" stroke-opacity="0.5" stroke="white" d="M182.85 156.294L173.612 90.2671L98.3802 98.3741L107.618 164.401L182.85 156.294Z"></path>
<path stroke-miterlimit="10" stroke-width="0.5" stroke-opacity="0.5" stroke="white" d="M192.087 222.32L182.85 156.293L107.618 164.401L116.855 230.427L192.087 222.32Z"></path>
<path stroke-miterlimit="10" stroke-width="0.5" stroke-opacity="0.5" stroke="white" d="M331.985 676.435L322.748 610.409L247.516 618.516L256.753 684.542L331.985 676.435Z"></path>
<path stroke-miterlimit="10" stroke-width="0.5" stroke-opacity="0.5" stroke="white" d="M276.558 280.252L267.321 214.225L192.089 222.332L201.326 288.359L276.558 280.252Z"></path>
<path stroke-miterlimit="10" stroke-width="0.5" stroke-opacity="0.5" stroke="white" d="M285.796 346.278L276.559 280.251L201.327 288.359L210.564 354.385L285.796 346.278Z"></path>
<path stroke-miterlimit="10" stroke-width="0.5" stroke-opacity="0.5" stroke="white" d="M295.032 412.305L285.794 346.279L210.562 354.386L219.8 420.412L295.032 412.305Z"></path>
<path stroke-miterlimit="10" stroke-width="0.5" stroke-opacity="0.5" stroke="white" d="M304.272 478.344L295.035 412.317L219.803 420.424L229.04 486.451L304.272 478.344Z"></path>
<path stroke-miterlimit="10" stroke-width="0.5" stroke-opacity="0.5" stroke="white" d="M313.509 544.37L304.272 478.343L229.04 486.45L238.277 552.477L313.509 544.37Z"></path>
<path stroke-miterlimit="10" stroke-width="0.5" stroke-opacity="0.5" stroke="white" d="M322.749 610.409L313.511 544.382L238.279 552.489L247.516 618.516L322.749 610.409Z"></path>
<path stroke-miterlimit="10" stroke-width="0.5" stroke-opacity="0.5" stroke="white" d="M239.606 16.1209L230.369 -49.9058L155.137 -41.7987L164.374 24.2279L239.606 16.1209Z"></path>
<path stroke-miterlimit="10" stroke-width="0.5" stroke-opacity="0.5" stroke="white" d="M248.843 82.1472L239.606 16.1206L164.374 24.2277L173.611 90.2543L248.843 82.1472Z"></path>
<path stroke-miterlimit="10" stroke-width="0.5" stroke-opacity="0.5" stroke="white" d="M258.082 148.186L248.845 82.1597L173.613 90.2667L182.85 156.293L258.082 148.186Z"></path>
<path stroke-miterlimit="10" stroke-width="0.5" stroke-opacity="0.5" stroke="white" d="M267.319 214.213L258.082 148.186L182.85 156.293L192.087 222.32L267.319 214.213Z"></path>
<path stroke-miterlimit="10" stroke-width="0.5" stroke-opacity="0.5" stroke="white" d="M407.232 668.327L397.995 602.3L322.763 610.407L332 676.434L407.232 668.327Z"></path>
<path stroke-miterlimit="10" stroke-width="0.5" stroke-opacity="0.5" stroke="white" d="M351.805 272.143L342.567 206.117L267.335 214.224L276.573 280.25L351.805 272.143Z"></path>
<path stroke-miterlimit="10" stroke-width="0.5" stroke-opacity="0.5" stroke="white" d="M361.043 338.17L351.806 272.143L276.574 280.25L285.811 346.277L361.043 338.17Z"></path>
<path stroke-miterlimit="10" stroke-width="0.5" stroke-opacity="0.5" stroke="white" d="M370.279 404.196L361.042 338.169L285.809 346.276L295.047 412.303L370.279 404.196Z"></path>
<path stroke-miterlimit="10" stroke-width="0.5" stroke-opacity="0.5" stroke="white" d="M379.518 470.235L370.28 404.208L295.048 412.316L304.285 478.342L379.518 470.235Z"></path>
<path stroke-miterlimit="10" stroke-width="0.5" stroke-opacity="0.5" stroke="white" d="M388.756 536.261L379.519 470.235L304.287 478.342L313.524 544.369L388.756 536.261Z"></path>
<path stroke-miterlimit="10" stroke-width="0.5" stroke-opacity="0.5" stroke="white" d="M397.995 602.301L388.758 536.274L313.526 544.381L322.763 610.408L397.995 602.301Z"></path>
<path stroke-miterlimit="10" stroke-width="0.5" stroke-opacity="0.5" stroke="white" d="M314.851 8.01247L305.614 -58.0142L230.382 -49.9071L239.619 16.1195L314.851 8.01247Z"></path>
<path stroke-miterlimit="10" stroke-width="0.5" stroke-opacity="0.5" stroke="white" d="M324.09 74.0388L314.853 8.01221L239.62 16.1193L248.858 82.1459L324.09 74.0388Z"></path>
<path stroke-miterlimit="10" stroke-width="0.5" stroke-opacity="0.5" stroke="white" d="M333.329 140.078L324.092 74.0513L248.86 82.1583L258.097 148.185L333.329 140.078Z"></path>
<path stroke-miterlimit="10" stroke-width="0.5" stroke-opacity="0.5" stroke="white" d="M342.565 206.104L333.328 140.078L258.096 148.185L267.333 214.211L342.565 206.104Z"></path>
<path stroke-miterlimit="10" stroke-width="0.5" stroke-opacity="0.5" stroke="white" d="M482.462 660.221L473.225 594.194L397.993 602.301L407.23 668.328L482.462 660.221Z"></path>
<path stroke-miterlimit="10" stroke-width="0.5" stroke-opacity="0.5" stroke="white" d="M427.035 264.036L417.798 198.009L342.566 206.116L351.803 272.143L427.035 264.036Z"></path>
<path stroke-miterlimit="10" stroke-width="0.5" stroke-opacity="0.5" stroke="white" d="M436.272 330.062L427.035 264.036L351.803 272.143L361.04 338.169L436.272 330.062Z"></path>
<path stroke-miterlimit="10" stroke-width="0.5" stroke-opacity="0.5" stroke="white" d="M445.511 396.09L436.273 330.063L361.041 338.17L370.279 404.197L445.511 396.09Z"></path>
<path stroke-miterlimit="10" stroke-width="0.5" stroke-opacity="0.5" stroke="white" d="M454.75 462.128L445.512 396.101L370.28 404.208L379.517 470.235L454.75 462.128Z"></path>
<path stroke-miterlimit="10" stroke-width="0.5" stroke-opacity="0.5" stroke="white" d="M463.987 528.155L454.75 462.128L379.517 470.235L388.755 536.262L463.987 528.155Z"></path>
<path stroke-miterlimit="10" stroke-width="0.5" stroke-opacity="0.5" stroke="white" d="M473.226 594.193L463.988 528.167L388.756 536.274L397.994 602.3L473.226 594.193Z"></path>
<path stroke-miterlimit="10" stroke-width="0.5" stroke-opacity="0.5" stroke="white" d="M390.082 -0.0949554L380.844 -66.1216L305.612 -58.0145L314.849 8.01209L390.082 -0.0949554Z"></path>
<path stroke-miterlimit="10" stroke-width="0.5" stroke-opacity="0.5" stroke="white" d="M399.32 65.9324L390.083 -0.0942383L314.851 8.01281L324.088 74.0394L399.32 65.9324Z"></path>
<path stroke-miterlimit="10" stroke-width="0.5" stroke-opacity="0.5" stroke="white" d="M408.559 131.97L399.322 65.9438L324.09 74.0509L333.327 140.078L408.559 131.97Z"></path>
<path stroke-miterlimit="10" stroke-width="0.5" stroke-opacity="0.5" stroke="white" d="M417.796 197.998L408.559 131.971L333.327 140.078L342.564 206.105L417.796 197.998Z"></path>
<path stroke-miterlimit="10" stroke-width="0.5" stroke-opacity="0.5" stroke="white" d="M465.315 -8.2014L456.078 -74.228L380.846 -66.121L390.083 -0.0943511L465.315 -8.2014Z"></path>
<path stroke-miterlimit="10" stroke-width="0.5" stroke-opacity="0.5" stroke="white" d="M474.552 57.825L465.315 -8.20166L390.083 -0.0946105L399.32 65.932L474.552 57.825Z"></path>
<path stroke-miterlimit="10" stroke-width="0.5" stroke-opacity="0.5" stroke="white" d="M483.793 123.863L474.556 57.8364L399.324 65.9435L408.561 131.97L483.793 123.863Z"></path>
<path stroke-miterlimit="10" stroke-width="0.5" stroke-opacity="0.5" stroke="white" d="M493.029 189.89L483.792 123.864L408.559 131.971L417.797 197.997L493.029 189.89Z"></path>
<path stroke-miterlimit="10" stroke-width="0.5" stroke-opacity="0.5" stroke="white" d="M66.6202 1509.17L57.3828 1443.14L-17.8493 1451.25L-8.61192 1517.28L66.6202 1509.17Z"></path>
<path stroke-miterlimit="10" stroke-width="0.5" stroke-opacity="0.5" stroke="white" d="M11.1944 1112.99L1.95703 1046.96L-73.275 1055.07L-64.0377 1121.09L11.1944 1112.99Z"></path>
<path stroke-miterlimit="10" stroke-width="0.5" stroke-opacity="0.5" stroke="white" d="M20.4312 1179.01L11.1938 1112.99L-64.0382 1121.09L-54.8009 1187.12L20.4312 1179.01Z"></path>
<path stroke-miterlimit="10" stroke-width="0.5" stroke-opacity="0.5" stroke="white" d="M29.6685 1245.04L20.4312 1179.01L-54.8009 1187.12L-45.5636 1253.15L29.6685 1245.04Z"></path>
<path stroke-miterlimit="10" stroke-width="0.5" stroke-opacity="0.5" stroke="white" d="M38.9073 1311.08L29.6699 1245.05L-45.5622 1253.16L-36.3248 1319.18L38.9073 1311.08Z"></path>
<path stroke-miterlimit="10" stroke-width="0.5" stroke-opacity="0.5" stroke="white" d="M48.1441 1377.1L38.9067 1311.08L-36.3253 1319.18L-27.088 1385.21L48.1441 1377.1Z"></path>
<path stroke-miterlimit="10" stroke-width="0.5" stroke-opacity="0.5" stroke="white" d="M57.3848 1443.14L48.1475 1377.12L-27.0846 1385.22L-17.8473 1451.25L57.3848 1443.14Z"></path>
<path stroke-miterlimit="10" stroke-width="0.5" stroke-opacity="0.5" stroke="white" d="M1.95559 1046.95L-7.28174 980.92L-82.5138 989.027L-73.2765 1055.05L1.95559 1046.95Z"></path>
<path stroke-miterlimit="10" stroke-width="0.5" stroke-opacity="0.5" stroke="white" d="M40.2344 774.721L30.9971 708.695L-44.2351 716.802L-34.9977 782.829L40.2344 774.721Z"></path>
<path stroke-miterlimit="10" stroke-width="0.5" stroke-opacity="0.5" stroke="white" d="M141.852 1501.06L132.615 1435.04L57.3826 1443.14L66.6199 1509.17L141.852 1501.06Z"></path>
<path stroke-miterlimit="10" stroke-width="0.5" stroke-opacity="0.5" stroke="white" d="M86.4248 1104.88L77.1875 1038.85L1.95535 1046.96L11.1927 1112.99L86.4248 1104.88Z"></path>
<path stroke-miterlimit="10" stroke-width="0.5" stroke-opacity="0.5" stroke="white" d="M95.6636 1170.91L86.4263 1104.88L11.1941 1112.99L20.4314 1179.01L95.6636 1170.91Z"></path>
<path stroke-miterlimit="10" stroke-width="0.5" stroke-opacity="0.5" stroke="white" d="M104.9 1236.93L95.6631 1170.91L20.4309 1179.01L29.6683 1245.04L104.9 1236.93Z"></path>
<path stroke-miterlimit="10" stroke-width="0.5" stroke-opacity="0.5" stroke="white" d="M114.139 1302.97L104.902 1236.94L29.6697 1245.05L38.907 1311.08L114.139 1302.97Z"></path>
<path stroke-miterlimit="10" stroke-width="0.5" stroke-opacity="0.5" stroke="white" d="M123.376 1369L114.139 1302.97L38.907 1311.08L48.1443 1377.1L123.376 1369Z"></path>
<path stroke-miterlimit="10" stroke-width="0.5" stroke-opacity="0.5" stroke="white" d="M132.615 1435.04L123.378 1369.01L48.1458 1377.12L57.3831 1443.14L132.615 1435.04Z"></path>
<path stroke-miterlimit="10" stroke-width="0.5" stroke-opacity="0.5" stroke="white" d="M49.4732 840.749L40.2358 774.722L-34.9963 782.829L-25.759 848.856L49.4732 840.749Z"></path>
<path stroke-miterlimit="10" stroke-width="0.5" stroke-opacity="0.5" stroke="white" d="M58.71 906.775L49.4727 840.749L-25.7595 848.856L-16.5222 914.882L58.71 906.775Z"></path>
<path stroke-miterlimit="10" stroke-width="0.5" stroke-opacity="0.5" stroke="white" d="M67.9488 972.813L58.7114 906.787L-16.5207 914.894L-7.28339 980.92L67.9488 972.813Z"></path>
<path stroke-miterlimit="10" stroke-width="0.5" stroke-opacity="0.5" stroke="white" d="M77.1875 1038.84L67.9502 972.814L-7.28196 980.921L1.95538 1046.95L77.1875 1038.84Z"></path>
<path stroke-miterlimit="10" stroke-width="0.5" stroke-opacity="0.5" stroke="white" d="M115.47 766.615L106.233 700.588L31.0008 708.695L40.2382 774.722L115.47 766.615Z"></path>
<path stroke-miterlimit="10" stroke-width="0.5" stroke-opacity="0.5" stroke="white" d="M217.086 1492.96L207.849 1426.93L132.617 1435.04L141.854 1501.06L217.086 1492.96Z"></path>
<path stroke-miterlimit="10" stroke-width="0.5" stroke-opacity="0.5" stroke="white" d="M161.661 1096.77L152.423 1030.75L77.1913 1038.85L86.4286 1104.88L161.661 1096.77Z"></path>
<path stroke-miterlimit="10" stroke-width="0.5" stroke-opacity="0.5" stroke="white" d="M170.898 1162.8L161.661 1096.77L86.4286 1104.88L95.6659 1170.91L170.898 1162.8Z"></path>
<path stroke-miterlimit="10" stroke-width="0.5" stroke-opacity="0.5" stroke="white" d="M180.135 1228.82L170.897 1162.8L95.6654 1170.91L104.903 1236.93L180.135 1228.82Z"></path>
<path stroke-miterlimit="10" stroke-width="0.5" stroke-opacity="0.5" stroke="white" d="M189.374 1294.86L180.136 1228.84L104.904 1236.94L114.141 1302.97L189.374 1294.86Z"></path>
<path stroke-miterlimit="10" stroke-width="0.5" stroke-opacity="0.5" stroke="white" d="M198.61 1360.89L189.373 1294.86L114.141 1302.97L123.378 1369L198.61 1360.89Z"></path>
<path stroke-miterlimit="10" stroke-width="0.5" stroke-opacity="0.5" stroke="white" d="M207.851 1426.93L198.614 1360.9L123.382 1369.01L132.619 1435.04L207.851 1426.93Z"></path>
<path stroke-miterlimit="10" stroke-width="0.5" stroke-opacity="0.5" stroke="white" d="M124.707 832.641L115.47 766.615L40.2377 774.722L49.475 840.748L124.707 832.641Z"></path>
<path stroke-miterlimit="10" stroke-width="0.5" stroke-opacity="0.5" stroke="white" d="M133.944 898.668L124.707 832.641L49.475 840.748L58.7123 906.775L133.944 898.668Z"></path>
<path stroke-miterlimit="10" stroke-width="0.5" stroke-opacity="0.5" stroke="white" d="M143.185 964.707L133.947 898.68L58.7152 906.787L67.9525 972.814L143.185 964.707Z"></path>
<path stroke-miterlimit="10" stroke-width="0.5" stroke-opacity="0.5" stroke="white" d="M152.42 1030.73L143.183 964.707L67.9505 972.814L77.1879 1038.84L152.42 1030.73Z"></path>
<path stroke-miterlimit="10" stroke-width="0.5" stroke-opacity="0.5" stroke="white" d="M190.715 758.507L181.478 692.48L106.245 700.587L115.483 766.614L190.715 758.507Z"></path>
<path stroke-miterlimit="10" stroke-width="0.5" stroke-opacity="0.5" stroke="white" d="M292.331 1484.85L283.094 1418.82L207.862 1426.93L217.099 1492.95L292.331 1484.85Z"></path>
<path stroke-miterlimit="10" stroke-width="0.5" stroke-opacity="0.5" stroke="white" d="M236.904 1088.66L227.667 1022.64L152.434 1030.74L161.672 1096.77L236.904 1088.66Z"></path>
<path stroke-miterlimit="10" stroke-width="0.5" stroke-opacity="0.5" stroke="white" d="M246.141 1154.69L236.903 1088.66L161.671 1096.77L170.909 1162.8L246.141 1154.69Z"></path>
<path stroke-miterlimit="10" stroke-width="0.5" stroke-opacity="0.5" stroke="white" d="M255.379 1220.72L246.142 1154.69L170.91 1162.8L180.147 1228.82L255.379 1220.72Z"></path>
<path stroke-miterlimit="10" stroke-width="0.5" stroke-opacity="0.5" stroke="white" d="M264.618 1286.75L255.381 1220.73L180.149 1228.84L189.386 1294.86L264.618 1286.75Z"></path>
<path stroke-miterlimit="10" stroke-width="0.5" stroke-opacity="0.5" stroke="white" d="M273.854 1352.78L264.616 1286.76L189.384 1294.86L198.621 1360.89L273.854 1352.78Z"></path>
<path stroke-miterlimit="10" stroke-width="0.5" stroke-opacity="0.5" stroke="white" d="M283.094 1418.82L273.857 1352.79L198.625 1360.9L207.862 1426.93L283.094 1418.82Z"></path>
<path stroke-miterlimit="10" stroke-width="0.5" stroke-opacity="0.5" stroke="white" d="M199.952 824.533L190.715 758.506L115.483 766.613L124.72 832.64L199.952 824.533Z"></path>
<path stroke-miterlimit="10" stroke-width="0.5" stroke-opacity="0.5" stroke="white" d="M209.189 890.559L199.952 824.533L124.72 832.64L133.957 898.666L209.189 890.559Z"></path>
<path stroke-miterlimit="10" stroke-width="0.5" stroke-opacity="0.5" stroke="white" d="M218.428 956.598L209.19 890.572L133.958 898.679L143.196 964.705L218.428 956.598Z"></path>
<path stroke-miterlimit="10" stroke-width="0.5" stroke-opacity="0.5" stroke="white" d="M227.665 1022.62L218.428 956.598L143.196 964.705L152.433 1030.73L227.665 1022.62Z"></path>
<path stroke-miterlimit="10" stroke-width="0.5" stroke-opacity="0.5" stroke="white" d="M265.945 750.399L256.708 684.373L181.476 692.48L190.713 758.506L265.945 750.399Z"></path>
<path stroke-miterlimit="10" stroke-width="0.5" stroke-opacity="0.5" stroke="white" d="M367.564 1476.74L358.326 1410.71L283.094 1418.82L292.331 1484.85L367.564 1476.74Z"></path>
<path stroke-miterlimit="10" stroke-width="0.5" stroke-opacity="0.5" stroke="white" d="M312.136 1080.56L302.899 1014.53L227.667 1022.64L236.904 1088.66L312.136 1080.56Z"></path>
<path stroke-miterlimit="10" stroke-width="0.5" stroke-opacity="0.5" stroke="white" d="M321.375 1146.58L312.137 1080.56L236.905 1088.66L246.142 1154.69L321.375 1146.58Z"></path>
<path stroke-miterlimit="10" stroke-width="0.5" stroke-opacity="0.5" stroke="white" d="M330.61 1212.61L321.373 1146.58L246.14 1154.69L255.378 1220.72L330.61 1212.61Z"></path>
<path stroke-miterlimit="10" stroke-width="0.5" stroke-opacity="0.5" stroke="white" d="M339.851 1278.65L330.613 1212.62L255.381 1220.73L264.619 1286.76L339.851 1278.65Z"></path>
<path stroke-miterlimit="10" stroke-width="0.5" stroke-opacity="0.5" stroke="white" d="M349.087 1344.67L339.85 1278.65L264.618 1286.75L273.855 1352.78L349.087 1344.67Z"></path>
<path stroke-miterlimit="10" stroke-width="0.5" stroke-opacity="0.5" stroke="white" d="M358.327 1410.71L349.089 1344.69L273.857 1352.79L283.095 1418.82L358.327 1410.71Z"></path>
<path stroke-miterlimit="10" stroke-width="0.5" stroke-opacity="0.5" stroke="white" d="M275.184 816.426L265.947 750.399L190.715 758.506L199.952 824.533L275.184 816.426Z"></path>
<path stroke-miterlimit="10" stroke-width="0.5" stroke-opacity="0.5" stroke="white" d="M284.421 882.452L275.184 816.425L199.952 824.532L209.189 890.559L284.421 882.452Z"></path>
<path stroke-miterlimit="10" stroke-width="0.5" stroke-opacity="0.5" stroke="white" d="M293.66 948.491L284.423 882.464L209.191 890.571L218.428 956.598L293.66 948.491Z"></path>
<path stroke-miterlimit="10" stroke-width="0.5" stroke-opacity="0.5" stroke="white" d="M302.897 1014.52L293.66 948.491L218.428 956.598L227.665 1022.62L302.897 1014.52Z"></path>
<path stroke-miterlimit="10" stroke-width="0.5" stroke-opacity="0.5" stroke="white" d="M341.194 742.291L331.957 676.264L256.724 684.371L265.962 750.398L341.194 742.291Z"></path>
<path stroke-miterlimit="10" stroke-width="0.5" stroke-opacity="0.5" stroke="white" d="M442.811 1468.63L433.573 1402.6L358.341 1410.71L367.578 1476.74L442.811 1468.63Z"></path>
<path stroke-miterlimit="10" stroke-width="0.5" stroke-opacity="0.5" stroke="white" d="M387.383 1072.45L378.146 1006.42L302.913 1014.53L312.151 1080.56L387.383 1072.45Z"></path>
<path stroke-miterlimit="10" stroke-width="0.5" stroke-opacity="0.5" stroke="white" d="M396.622 1138.47L387.384 1072.45L312.152 1080.55L321.389 1146.58L396.622 1138.47Z"></path>
<path stroke-miterlimit="10" stroke-width="0.5" stroke-opacity="0.5" stroke="white" d="M405.857 1204.5L396.62 1138.47L321.388 1146.58L330.625 1212.61L405.857 1204.5Z"></path>
<path stroke-miterlimit="10" stroke-width="0.5" stroke-opacity="0.5" stroke="white" d="M415.096 1270.54L405.858 1204.51L330.626 1212.62L339.864 1278.65L415.096 1270.54Z"></path>
<path stroke-miterlimit="10" stroke-width="0.5" stroke-opacity="0.5" stroke="white" d="M424.335 1336.57L415.097 1270.54L339.865 1278.65L349.102 1344.67L424.335 1336.57Z"></path>
<path stroke-miterlimit="10" stroke-width="0.5" stroke-opacity="0.5" stroke="white" d="M433.573 1402.61L424.336 1336.58L349.104 1344.69L358.341 1410.71L433.573 1402.61Z"></path>
<path stroke-miterlimit="10" stroke-width="0.5" stroke-opacity="0.5" stroke="white" d="M350.429 808.317L341.192 742.291L265.96 750.398L275.197 816.424L350.429 808.317Z"></path>
<path stroke-miterlimit="10" stroke-width="0.5" stroke-opacity="0.5" stroke="white" d="M359.668 874.344L350.431 808.317L275.199 816.424L284.436 882.451L359.668 874.344Z"></path>
<path stroke-miterlimit="10" stroke-width="0.5" stroke-opacity="0.5" stroke="white" d="M368.907 940.383L359.67 874.356L284.438 882.463L293.675 948.49L368.907 940.383Z"></path>
<path stroke-miterlimit="10" stroke-width="0.5" stroke-opacity="0.5" stroke="white" d="M378.144 1006.41L368.906 940.382L293.674 948.489L302.911 1014.52L378.144 1006.41Z"></path>
<path stroke-miterlimit="10" stroke-width="0.5" stroke-opacity="0.5" stroke="white" d="M416.422 734.183L407.185 668.157L331.953 676.264L341.19 742.29L416.422 734.183Z"></path>
<path stroke-miterlimit="10" stroke-width="0.5" stroke-opacity="0.5" stroke="white" d="M462.613 1064.34L453.376 998.314L378.144 1006.42L387.381 1072.45L462.613 1064.34Z"></path>
<path stroke-miterlimit="10" stroke-width="0.5" stroke-opacity="0.5" stroke="white" d="M471.851 1130.37L462.613 1064.34L387.381 1072.45L396.619 1138.47L471.851 1130.37Z"></path>
<path stroke-miterlimit="10" stroke-width="0.5" stroke-opacity="0.5" stroke="white" d="M481.089 1196.39L471.852 1130.37L396.619 1138.47L405.857 1204.5L481.089 1196.39Z"></path>
<path stroke-miterlimit="10" stroke-width="0.5" stroke-opacity="0.5" stroke="white" d="M490.328 1262.43L481.09 1196.41L405.858 1204.51L415.096 1270.54L490.328 1262.43Z"></path>
<path stroke-miterlimit="10" stroke-width="0.5" stroke-opacity="0.5" stroke="white" d="M425.66 800.21L416.422 734.183L341.19 742.29L350.428 808.317L425.66 800.21Z"></path>
<path stroke-miterlimit="10" stroke-width="0.5" stroke-opacity="0.5" stroke="white" d="M434.898 866.237L425.661 800.21L350.429 808.317L359.666 874.344L434.898 866.237Z"></path>
<path stroke-miterlimit="10" stroke-width="0.5" stroke-opacity="0.5" stroke="white" d="M444.137 932.275L434.9 866.249L359.668 874.356L368.905 940.382L444.137 932.275Z"></path>
<path stroke-miterlimit="10" stroke-width="0.5" stroke-opacity="0.5" stroke="white" d="M453.374 998.302L444.137 932.276L368.905 940.383L378.142 1006.41L453.374 998.302Z"></path>
<path stroke-miterlimit="10" stroke-width="0.5" stroke-opacity="0.5" stroke="white" d="M491.657 726.077L482.419 660.05L407.187 668.157L416.425 734.184L491.657 726.077Z"></path>
<path stroke-miterlimit="10" stroke-width="0.5" stroke-opacity="0.5" stroke="white" d="M26.9947 2317.72L17.7573 2251.7L-57.4748 2259.8L-48.2374 2325.83L26.9947 2317.72Z"></path>
<path stroke-miterlimit="10" stroke-width="0.5" stroke-opacity="0.5" stroke="white" d="M8.51712 2185.66L-0.720215 2119.63L-75.9523 2127.74L-66.715 2193.76L8.51712 2185.66Z"></path>
<path stroke-miterlimit="10" stroke-width="0.5" stroke-opacity="0.5" stroke="white" d="M17.7559 2251.7L8.51855 2185.67L-66.7135 2193.78L-57.4762 2259.8L17.7559 2251.7Z"></path>
<path stroke-miterlimit="10" stroke-width="0.5" stroke-opacity="0.5" stroke="white" d="M0.621613 1583.27L-8.61572 1517.25L-83.8478 1525.35L-74.6105 1591.38L0.621613 1583.27Z"></path>
<path stroke-miterlimit="10" stroke-width="0.5" stroke-opacity="0.5" stroke="white" d="M102.238 2309.61L93.0005 2243.59L17.7684 2251.69L27.0058 2317.72L102.238 2309.61Z"></path>
<path stroke-miterlimit="10" stroke-width="0.5" stroke-opacity="0.5" stroke="white" d="M46.812 1913.43L37.5747 1847.4L-37.6574 1855.51L-28.42 1921.54L46.812 1913.43Z"></path>
<path stroke-miterlimit="10" stroke-width="0.5" stroke-opacity="0.5" stroke="white" d="M56.0489 1979.46L46.8115 1913.43L-28.4206 1921.54L-19.1832 1987.56L56.0489 1979.46Z"></path>
<path stroke-miterlimit="10" stroke-width="0.5" stroke-opacity="0.5" stroke="white" d="M65.2862 2045.48L56.0488 1979.46L-19.1832 1987.56L-9.94591 2053.59L65.2862 2045.48Z"></path>
<path stroke-miterlimit="10" stroke-width="0.5" stroke-opacity="0.5" stroke="white" d="M74.5249 2111.52L65.2876 2045.5L-9.94448 2053.6L-0.707142 2119.63L74.5249 2111.52Z"></path>
<path stroke-miterlimit="10" stroke-width="0.5" stroke-opacity="0.5" stroke="white" d="M83.7617 2177.55L74.5244 2111.52L-0.707662 2119.63L8.52967 2185.66L83.7617 2177.55Z"></path>
<path stroke-miterlimit="10" stroke-width="0.5" stroke-opacity="0.5" stroke="white" d="M93.0025 2243.59L83.7651 2177.56L8.53306 2185.67L17.7704 2251.69L93.0025 2243.59Z"></path>
<path stroke-miterlimit="10" stroke-width="0.5" stroke-opacity="0.5" stroke="white" d="M9.85843 1649.3L0.621094 1583.27L-74.611 1591.38L-65.3736 1657.41L9.85843 1649.3Z"></path>
<path stroke-miterlimit="10" stroke-width="0.5" stroke-opacity="0.5" stroke="white" d="M19.0952 1715.33L9.85791 1649.3L-65.3742 1657.41L-56.1368 1723.43L19.0952 1715.33Z"></path>
<path stroke-miterlimit="10" stroke-width="0.5" stroke-opacity="0.5" stroke="white" d="M28.3345 1781.37L19.0972 1715.34L-56.1349 1723.45L-46.8976 1789.47L28.3345 1781.37Z"></path>
<path stroke-miterlimit="10" stroke-width="0.5" stroke-opacity="0.5" stroke="white" d="M37.5733 1847.39L28.3359 1781.36L-46.8961 1789.47L-37.6588 1855.5L37.5733 1847.39Z"></path>
<path stroke-miterlimit="10" stroke-width="0.5" stroke-opacity="0.5" stroke="white" d="M75.8521 1575.17L66.6147 1509.14L-8.61741 1517.25L0.61993 1583.27L75.8521 1575.17Z"></path>
<path stroke-miterlimit="10" stroke-width="0.5" stroke-opacity="0.5" stroke="white" d="M177.47 2301.51L168.232 2235.48L93.0003 2243.59L102.238 2309.61L177.47 2301.51Z"></path>
<path stroke-miterlimit="10" stroke-width="0.5" stroke-opacity="0.5" stroke="white" d="M122.043 1905.32L112.805 1839.3L37.573 1847.4L46.8104 1913.43L122.043 1905.32Z"></path>
<path stroke-miterlimit="10" stroke-width="0.5" stroke-opacity="0.5" stroke="white" d="M131.281 1971.35L122.044 1905.32L46.8118 1913.43L56.0491 1979.46L131.281 1971.35Z"></path>
<path stroke-miterlimit="10" stroke-width="0.5" stroke-opacity="0.5" stroke="white" d="M140.518 2037.38L131.281 1971.35L56.0486 1979.46L65.2859 2045.48L140.518 2037.38Z"></path>
<path stroke-miterlimit="10" stroke-width="0.5" stroke-opacity="0.5" stroke="white" d="M149.757 2103.41L140.52 2037.39L65.2874 2045.5L74.5247 2111.52L149.757 2103.41Z"></path>
<path stroke-miterlimit="10" stroke-width="0.5" stroke-opacity="0.5" stroke="white" d="M158.994 2169.44L149.757 2103.42L74.5247 2111.52L83.762 2177.55L158.994 2169.44Z"></path>
<path stroke-miterlimit="10" stroke-width="0.5" stroke-opacity="0.5" stroke="white" d="M168.233 2235.48L158.996 2169.45L83.7635 2177.56L93.0008 2243.59L168.233 2235.48Z"></path>
<path stroke-miterlimit="10" stroke-width="0.5" stroke-opacity="0.5" stroke="white" d="M85.0909 1641.19L75.8535 1575.17L0.621363 1583.27L9.8587 1649.3L85.0909 1641.19Z"></path>
<path stroke-miterlimit="10" stroke-width="0.5" stroke-opacity="0.5" stroke="white" d="M94.3277 1707.22L85.0903 1641.19L9.85818 1649.3L19.0955 1715.33L94.3277 1707.22Z"></path>
<path stroke-miterlimit="10" stroke-width="0.5" stroke-opacity="0.5" stroke="white" d="M103.566 1773.26L94.3291 1707.23L19.0969 1715.34L28.3343 1781.36L103.566 1773.26Z"></path>
<path stroke-miterlimit="10" stroke-width="0.5" stroke-opacity="0.5" stroke="white" d="M112.805 1839.28L103.568 1773.26L28.3357 1781.37L37.5731 1847.39L112.805 1839.28Z"></path>
<path stroke-miterlimit="10" stroke-width="0.5" stroke-opacity="0.5" stroke="white" d="M151.088 1567.06L141.851 1501.03L66.6185 1509.14L75.8558 1575.17L151.088 1567.06Z"></path>
<path stroke-miterlimit="10" stroke-width="0.5" stroke-opacity="0.5" stroke="white" d="M252.704 2293.4L243.467 2227.37L168.235 2235.48L177.472 2301.51L252.704 2293.4Z"></path>
<path stroke-miterlimit="10" stroke-width="0.5" stroke-opacity="0.5" stroke="white" d="M197.278 1897.22L188.041 1831.19L112.809 1839.3L122.046 1905.32L197.278 1897.22Z"></path>
<path stroke-miterlimit="10" stroke-width="0.5" stroke-opacity="0.5" stroke="white" d="M206.516 1963.24L197.278 1897.22L122.046 1905.32L131.284 1971.35L206.516 1963.24Z"></path>
<path stroke-miterlimit="10" stroke-width="0.5" stroke-opacity="0.5" stroke="white" d="M215.752 2029.27L206.515 1963.24L131.283 1971.35L140.52 2037.38L215.752 2029.27Z"></path>
<path stroke-miterlimit="10" stroke-width="0.5" stroke-opacity="0.5" stroke="white" d="M224.991 2095.31L215.754 2029.28L140.522 2037.39L149.759 2103.42L224.991 2095.31Z"></path>
<path stroke-miterlimit="10" stroke-width="0.5" stroke-opacity="0.5" stroke="white" d="M234.228 2161.33L224.991 2095.31L149.759 2103.42L158.996 2169.44L234.228 2161.33Z"></path>
<path stroke-miterlimit="10" stroke-width="0.5" stroke-opacity="0.5" stroke="white" d="M243.469 2227.37L234.231 2161.35L158.999 2169.45L168.237 2235.48L243.469 2227.37Z"></path>
<path stroke-miterlimit="10" stroke-width="0.5" stroke-opacity="0.5" stroke="white" d="M160.325 1633.09L151.087 1567.06L75.8553 1575.17L85.0927 1641.19L160.325 1633.09Z"></path>
<path stroke-miterlimit="10" stroke-width="0.5" stroke-opacity="0.5" stroke="white" d="M169.562 1699.11L160.325 1633.09L85.0926 1641.19L94.33 1707.22L169.562 1699.11Z"></path>
<path stroke-miterlimit="10" stroke-width="0.5" stroke-opacity="0.5" stroke="white" d="M178.802 1765.15L169.565 1699.12L94.3329 1707.23L103.57 1773.26L178.802 1765.15Z"></path>
<path stroke-miterlimit="10" stroke-width="0.5" stroke-opacity="0.5" stroke="white" d="M188.038 1831.18L178.8 1765.15L103.568 1773.26L112.806 1839.28L188.038 1831.18Z"></path>
<path stroke-miterlimit="10" stroke-width="0.5" stroke-opacity="0.5" stroke="white" d="M226.333 1558.95L217.095 1492.92L141.863 1501.03L151.1 1567.06L226.333 1558.95Z"></path>
<path stroke-miterlimit="10" stroke-width="0.5" stroke-opacity="0.5" stroke="white" d="M327.949 2285.29L318.711 2219.27L243.479 2227.37L252.717 2293.4L327.949 2285.29Z"></path>
<path stroke-miterlimit="10" stroke-width="0.5" stroke-opacity="0.5" stroke="white" d="M272.522 1889.11L263.284 1823.08L188.052 1831.19L197.289 1897.22L272.522 1889.11Z"></path>
<path stroke-miterlimit="10" stroke-width="0.5" stroke-opacity="0.5" stroke="white" d="M281.758 1955.13L272.521 1889.11L197.289 1897.21L206.526 1963.24L281.758 1955.13Z"></path>
<path stroke-miterlimit="10" stroke-width="0.5" stroke-opacity="0.5" stroke="white" d="M290.997 2021.16L281.76 1955.13L206.528 1963.24L215.765 2029.27L290.997 2021.16Z"></path>
<path stroke-miterlimit="10" stroke-width="0.5" stroke-opacity="0.5" stroke="white" d="M300.236 2087.2L290.999 2021.17L215.766 2029.28L225.004 2095.31L300.236 2087.2Z"></path>
<path stroke-miterlimit="10" stroke-width="0.5" stroke-opacity="0.5" stroke="white" d="M309.471 2153.23L300.234 2087.2L225.002 2095.31L234.239 2161.33L309.471 2153.23Z"></path>
<path stroke-miterlimit="10" stroke-width="0.5" stroke-opacity="0.5" stroke="white" d="M318.712 2219.26L309.475 2153.24L234.243 2161.34L243.48 2227.37L318.712 2219.26Z"></path>
<path stroke-miterlimit="10" stroke-width="0.5" stroke-opacity="0.5" stroke="white" d="M235.57 1624.98L226.333 1558.95L151.1 1567.06L160.338 1633.08L235.57 1624.98Z"></path>
<path stroke-miterlimit="10" stroke-width="0.5" stroke-opacity="0.5" stroke="white" d="M244.807 1691L235.569 1624.98L160.337 1633.08L169.575 1699.11L244.807 1691Z"></path>
<path stroke-miterlimit="10" stroke-width="0.5" stroke-opacity="0.5" stroke="white" d="M254.045 1757.04L244.808 1691.02L169.576 1699.12L178.813 1765.15L254.045 1757.04Z"></path>
<path stroke-miterlimit="10" stroke-width="0.5" stroke-opacity="0.5" stroke="white" d="M263.283 1823.07L254.045 1757.04L178.813 1765.15L188.051 1831.18L263.283 1823.07Z"></path>
<path stroke-miterlimit="10" stroke-width="0.5" stroke-opacity="0.5" stroke="white" d="M301.563 1550.84L292.326 1484.82L217.094 1492.92L226.331 1558.95L301.563 1550.84Z"></path>
<path stroke-miterlimit="10" stroke-width="0.5" stroke-opacity="0.5" stroke="white" d="M403.181 2277.18L393.944 2211.16L318.712 2219.26L327.949 2285.29L403.181 2277.18Z"></path>
<path stroke-miterlimit="10" stroke-width="0.5" stroke-opacity="0.5" stroke="white" d="M347.754 1881L338.517 1814.97L263.284 1823.08L272.522 1889.11L347.754 1881Z"></path>
<path stroke-miterlimit="10" stroke-width="0.5" stroke-opacity="0.5" stroke="white" d="M356.992 1947.03L347.755 1881L272.523 1889.11L281.76 1955.13L356.992 1947.03Z"></path>
<path stroke-miterlimit="10" stroke-width="0.5" stroke-opacity="0.5" stroke="white" d="M366.228 2013.05L356.99 1947.03L281.758 1955.13L290.995 2021.16L366.228 2013.05Z"></path>
<path stroke-miterlimit="10" stroke-width="0.5" stroke-opacity="0.5" stroke="white" d="M375.468 2079.09L366.231 2013.07L290.999 2021.17L300.236 2087.2L375.468 2079.09Z"></path>
<path stroke-miterlimit="10" stroke-width="0.5" stroke-opacity="0.5" stroke="white" d="M384.705 2145.12L375.468 2079.09L300.236 2087.2L309.473 2153.23L384.705 2145.12Z"></path>
<path stroke-miterlimit="10" stroke-width="0.5" stroke-opacity="0.5" stroke="white" d="M393.944 2211.16L384.707 2145.13L309.475 2153.24L318.712 2219.27L393.944 2211.16Z"></path>
<path stroke-miterlimit="10" stroke-width="0.5" stroke-opacity="0.5" stroke="white" d="M310.802 1616.87L301.564 1550.84L226.332 1558.95L235.57 1624.98L310.802 1616.87Z"></path>
<path stroke-miterlimit="10" stroke-width="0.5" stroke-opacity="0.5" stroke="white" d="M320.039 1682.9L310.802 1616.87L235.57 1624.98L244.807 1691L320.039 1682.9Z"></path>
<path stroke-miterlimit="10" stroke-width="0.5" stroke-opacity="0.5" stroke="white" d="M329.278 1748.94L320.041 1682.91L244.808 1691.02L254.046 1757.04L329.278 1748.94Z"></path>
<path stroke-miterlimit="10" stroke-width="0.5" stroke-opacity="0.5" stroke="white" d="M338.515 1814.96L329.278 1748.94L254.046 1757.04L263.283 1823.07L338.515 1814.96Z"></path>
<path stroke-miterlimit="10" stroke-width="0.5" stroke-opacity="0.5" stroke="white" d="M376.812 1542.74L367.574 1476.71L292.342 1484.82L301.579 1550.84L376.812 1542.74Z"></path>
<path stroke-miterlimit="10" stroke-width="0.5" stroke-opacity="0.5" stroke="white" d="M478.428 2269.08L469.191 2203.05L393.959 2211.16L403.196 2277.18L478.428 2269.08Z"></path>
<path stroke-miterlimit="10" stroke-width="0.5" stroke-opacity="0.5" stroke="white" d="M423.001 1872.89L413.763 1806.87L338.531 1814.97L347.768 1881L423.001 1872.89Z"></path>
<path stroke-miterlimit="10" stroke-width="0.5" stroke-opacity="0.5" stroke="white" d="M432.239 1938.92L423.002 1872.89L347.77 1881L357.007 1947.03L432.239 1938.92Z"></path>
<path stroke-miterlimit="10" stroke-width="0.5" stroke-opacity="0.5" stroke="white" d="M441.475 2004.95L432.237 1938.92L357.005 1947.03L366.243 2013.05L441.475 2004.95Z"></path>
<path stroke-miterlimit="10" stroke-width="0.5" stroke-opacity="0.5" stroke="white" d="M450.713 2070.98L441.476 2004.96L366.244 2013.06L375.481 2079.09L450.713 2070.98Z"></path>
<path stroke-miterlimit="10" stroke-width="0.5" stroke-opacity="0.5" stroke="white" d="M459.952 2137.01L450.715 2070.98L375.483 2079.09L384.72 2145.12L459.952 2137.01Z"></path>
<path stroke-miterlimit="10" stroke-width="0.5" stroke-opacity="0.5" stroke="white" d="M469.191 2203.05L459.954 2137.02L384.721 2145.13L393.959 2211.16L469.191 2203.05Z"></path>
<path stroke-miterlimit="10" stroke-width="0.5" stroke-opacity="0.5" stroke="white" d="M386.047 1608.76L376.81 1542.73L301.577 1550.84L310.815 1616.87L386.047 1608.76Z"></path>
<path stroke-miterlimit="10" stroke-width="0.5" stroke-opacity="0.5" stroke="white" d="M395.286 1674.79L386.048 1608.76L310.816 1616.87L320.054 1682.89L395.286 1674.79Z"></path>
<path stroke-miterlimit="10" stroke-width="0.5" stroke-opacity="0.5" stroke="white" d="M404.525 1740.83L395.288 1674.8L320.055 1682.91L329.293 1748.93L404.525 1740.83Z"></path>
<path stroke-miterlimit="10" stroke-width="0.5" stroke-opacity="0.5" stroke="white" d="M413.761 1806.85L404.524 1740.83L329.292 1748.93L338.529 1814.96L413.761 1806.85Z"></path>
<path stroke-miterlimit="10" stroke-width="0.5" stroke-opacity="0.5" stroke="white" d="M452.04 1534.63L442.803 1468.6L367.571 1476.71L376.808 1542.73L452.04 1534.63Z"></path>
<path stroke-miterlimit="10" stroke-width="0.5" stroke-opacity="0.5" stroke="white" d="M461.277 1600.65L452.04 1534.63L376.808 1542.73L386.045 1608.76L461.277 1600.65Z"></path>
<path stroke-miterlimit="10" stroke-width="0.5" stroke-opacity="0.5" stroke="white" d="M470.516 1666.68L461.279 1600.65L386.047 1608.76L395.284 1674.79L470.516 1666.68Z"></path>
<path stroke-miterlimit="10" stroke-width="0.5" stroke-opacity="0.5" stroke="white" d="M479.755 1732.72L470.518 1666.69L395.286 1674.8L404.523 1740.83L479.755 1732.72Z"></path>
<path stroke-miterlimit="10" stroke-width="0.5" stroke-opacity="0.5" stroke="white" d="M488.992 1798.75L479.754 1732.72L404.522 1740.83L413.76 1806.85L488.992 1798.75Z"></path>
<path stroke-miterlimit="10" stroke-width="0.5" stroke-opacity="0.5" stroke="white" d="M36.229 2383.57L26.9917 2317.54L-48.2404 2325.65L-39.003 2391.68L36.229 2383.57Z"></path>
<path stroke-miterlimit="10" stroke-width="0.5" stroke-opacity="0.5" stroke="white" d="M45.4659 2449.6L36.2285 2383.57L-39.0036 2391.68L-29.7662 2457.7L45.4659 2449.6Z"></path>
<path stroke-miterlimit="10" stroke-width="0.5" stroke-opacity="0.5" stroke="white" d="M54.7032 2515.62L45.4658 2449.6L-29.7663 2457.7L-20.5289 2523.73L54.7032 2515.62Z"></path>
<path stroke-miterlimit="10" stroke-width="0.5" stroke-opacity="0.5" stroke="white" d="M111.474 2375.46L102.237 2309.44L27.0047 2317.54L36.2421 2383.57L111.474 2375.46Z"></path>
<path stroke-miterlimit="10" stroke-width="0.5" stroke-opacity="0.5" stroke="white" d="M120.711 2441.49L111.474 2375.46L36.2416 2383.57L45.4789 2449.6L120.711 2441.49Z"></path>
<path stroke-miterlimit="10" stroke-width="0.5" stroke-opacity="0.5" stroke="white" d="M129.948 2507.51L120.71 2441.49L45.4784 2449.59L54.7157 2515.62L129.948 2507.51Z"></path>
<path stroke-miterlimit="10" stroke-width="0.5" stroke-opacity="0.5" stroke="white" d="M186.705 2367.35L177.467 2301.33L102.235 2309.43L111.472 2375.46L186.705 2367.35Z"></path>
<path stroke-miterlimit="10" stroke-width="0.5" stroke-opacity="0.5" stroke="white" d="M195.943 2433.38L186.706 2367.35L111.474 2375.46L120.711 2441.49L195.943 2433.38Z"></path>
<path stroke-miterlimit="10" stroke-width="0.5" stroke-opacity="0.5" stroke="white" d="M205.18 2499.41L195.943 2433.38L120.711 2441.49L129.948 2507.52L205.18 2499.41Z"></path>
<path stroke-miterlimit="10" stroke-width="0.5" stroke-opacity="0.5" stroke="white" d="M214.419 2565.45L205.182 2499.42L129.949 2507.53L139.187 2573.55L214.419 2565.45Z"></path>
<path stroke-miterlimit="10" stroke-width="0.5" stroke-opacity="0.5" stroke="white" d="M261.94 2359.25L252.703 2293.22L177.471 2301.33L186.708 2367.35L261.94 2359.25Z"></path>
<path stroke-miterlimit="10" stroke-width="0.5" stroke-opacity="0.5" stroke="white" d="M271.177 2425.27L261.94 2359.25L186.708 2367.35L195.945 2433.38L271.177 2425.27Z"></path>
<path stroke-miterlimit="10" stroke-width="0.5" stroke-opacity="0.5" stroke="white" d="M280.415 2491.3L271.177 2425.27L195.945 2433.38L205.183 2499.41L280.415 2491.3Z"></path>
<path stroke-miterlimit="10" stroke-width="0.5" stroke-opacity="0.5" stroke="white" d="M289.655 2557.34L280.417 2491.31L205.185 2499.42L214.423 2565.45L289.655 2557.34Z"></path>
<path stroke-miterlimit="10" stroke-width="0.5" stroke-opacity="0.5" stroke="white" d="M337.185 2351.14L327.948 2285.11L252.716 2293.22L261.953 2359.25L337.185 2351.14Z"></path>
<path stroke-miterlimit="10" stroke-width="0.5" stroke-opacity="0.5" stroke="white" d="M346.422 2417.17L337.185 2351.14L261.953 2359.25L271.19 2425.27L346.422 2417.17Z"></path>
<path stroke-miterlimit="10" stroke-width="0.5" stroke-opacity="0.5" stroke="white" d="M355.659 2483.19L346.422 2417.17L271.19 2425.27L280.427 2491.3L355.659 2483.19Z"></path>
<path stroke-miterlimit="10" stroke-width="0.5" stroke-opacity="0.5" stroke="white" d="M364.898 2549.23L355.661 2483.2L280.429 2491.31L289.666 2557.34L364.898 2549.23Z"></path>
<path stroke-miterlimit="10" stroke-width="0.5" stroke-opacity="0.5" stroke="white" d="M412.416 2343.03L403.178 2277.01L327.946 2285.11L337.183 2351.14L412.416 2343.03Z"></path>
<path stroke-miterlimit="10" stroke-width="0.5" stroke-opacity="0.5" stroke="white" d="M421.654 2409.06L412.417 2343.03L337.185 2351.14L346.422 2417.17L421.654 2409.06Z"></path>
<path stroke-miterlimit="10" stroke-width="0.5" stroke-opacity="0.5" stroke="white" d="M430.892 2475.08L421.654 2409.06L346.422 2417.17L355.66 2483.19L430.892 2475.08Z"></path>
<path stroke-miterlimit="10" stroke-width="0.5" stroke-opacity="0.5" stroke="white" d="M440.13 2541.12L430.893 2475.1L355.661 2483.2L364.898 2549.23L440.13 2541.12Z"></path>
<path stroke-miterlimit="10" stroke-width="0.5" stroke-opacity="0.5" stroke="white" d="M487.664 2334.92L478.427 2268.9L403.195 2277L412.432 2343.03L487.664 2334.92Z"></path>
</g>
</svg>
