<svg xmlns="http://www.w3.org/2000/svg" fill="none" viewBox="0 0 192 163" height="163" width="192">
<path fill="#00CBE7" d="M171.41 94.75H103.91V162.25H171.41V94.75Z"></path>
<path fill="white" d="M137.66 153.219C148.081 153.219 156.53 144.771 156.53 134.349C156.53 123.928 148.081 115.479 137.66 115.479C127.238 115.479 118.79 123.928 118.79 134.349C118.79 144.771 127.238 153.219 137.66 153.219Z"></path>
<path fill="white" d="M144.92 105.399V125.549H130.4V113.499H135.02C135.47 113.499 135.84 113.129 135.84 112.679C135.84 112.229 135.47 111.859 135.02 111.859H130.4V109.979H135.02C135.47 109.979 135.84 109.609 135.84 109.159C135.84 108.709 135.47 108.339 135.02 108.339H130.4V105.399H144.92V105.399Z"></path>
<path fill="white" d="M146.07 103.77H129.25C128.659 103.77 128.18 104.249 128.18 104.84V105.43C128.18 106.02 128.659 106.5 129.25 106.5H146.07C146.661 106.5 147.14 106.02 147.14 105.43V104.84C147.14 104.249 146.661 103.77 146.07 103.77Z"></path>
<path fill="#0035D3" d="M153.64 134.35C153.64 143.18 146.48 150.33 137.66 150.33C128.84 150.33 121.68 143.18 121.68 134.35H153.64Z"></path>
<path fill="black" d="M96.43 30.3398H0V126.77H96.43V30.3398Z"></path>
<path fill="white" d="M70.02 102.18H21.38V97.8702H65.71V51.4502H70.02V102.18Z"></path>
<path fill="white" d="M67.3954 50.9722L19.8636 98.5039L22.9113 101.552L70.443 54.0198L67.3954 50.9722Z"></path>
<path fill="#00CBE7" d="M67.86 61.11C73.195 61.11 77.5199 56.7851 77.5199 51.45C77.5199 46.115 73.195 41.79 67.86 41.79C62.5249 41.79 58.2 46.115 58.2 51.45C58.2 56.7851 62.5249 61.11 67.86 61.11Z"></path>
<path fill="#0035D3" d="M21.38 109.69C26.715 109.69 31.04 105.365 31.04 100.03C31.04 94.695 26.715 90.3701 21.38 90.3701C16.0449 90.3701 11.72 94.695 11.72 100.03C11.72 105.365 16.0449 109.69 21.38 109.69Z"></path>
<path fill="#FF0000" d="M67.8599 115.32C76.3044 115.32 83.1499 108.475 83.1499 100.03C83.1499 91.5858 76.3044 84.7402 67.8599 84.7402C59.4155 84.7402 52.5699 91.5858 52.5699 100.03C52.5699 108.475 59.4155 115.32 67.8599 115.32Z"></path>
<path fill="white" d="M76.0001 101.06C77.4802 101.06 78.6801 99.8603 78.6801 98.3802C78.6801 96.9001 77.4802 95.7002 76.0001 95.7002C74.5199 95.7002 73.3201 96.9001 73.3201 98.3802C73.3201 99.8603 74.5199 101.06 76.0001 101.06Z"></path>
<path fill="#FFD400" d="M191.21 0H103.93V87.28H191.21V0Z"></path>
<path fill="#FF0000" d="M156.25 72.9795C146.84 82.3895 133.09 80.8795 123.69 71.4695C114.28 62.0595 112.77 48.3095 122.18 38.9095C126.03 35.0595 135.03 32.5595 142.63 29.2795C153.59 24.5395 162.49 18.9795 169.34 25.8395C176.19 32.6895 170.63 41.5895 165.9 52.5495C162.61 60.1495 160.12 69.1495 156.27 72.9995L156.25 72.9795Z"></path>
<path fill="#9ADF00" d="M170.47 17.13C172.07 22.86 170.73 25.45 168.36 26.11C166 26.77 163.51 25.24 161.91 19.52C160.31 13.79 163.3 7.95996 163.3 7.95996C163.3 7.95996 168.87 11.41 170.47 17.14V17.13Z"></path>
<path fill="black" d="M179.317 19.6248L175.534 15.8418L163.811 27.5656L167.594 31.3487L179.317 19.6248Z"></path>
</svg>
