<svg xmlns="http://www.w3.org/2000/svg" fill="none" viewBox="0 0 79 79" height="79" width="79">
<path fill="black" d="M78.38 0H0V78.38H78.38V0Z"></path>
<path fill="white" d="M39.1901 64.9999C53.4446 64.9999 65.0001 53.4444 65.0001 39.1899C65.0001 24.9354 53.4446 13.3799 39.1901 13.3799C24.9357 13.3799 13.3801 24.9354 13.3801 39.1899C13.3801 53.4444 24.9357 64.9999 39.1901 64.9999Z"></path>
<path fill="#FF0000" d="M68.74 9.62978C68.15 9.04978 67.3 8.75978 66.21 8.76978C62.84 8.76978 57.27 11.4398 50.67 16.0698C53.12 17.2898 55.35 18.8898 57.28 20.7898C57.58 20.5998 57.87 20.4098 58.15 20.2298C57.97 20.5098 57.79 20.7998 57.59 21.0998C57.29 21.5598 56.9701 22.0398 56.6301 22.5298C52.7201 28.2498 47.16 34.7998 40.98 40.9798C34.8 47.1598 28.25 52.7198 22.53 56.6298C22.03 56.9698 21.56 57.2898 21.1 57.5898C20.8 57.7898 20.51 57.9698 20.22 58.1498C20.4 57.8698 20.59 57.5798 20.78 57.2698C18.88 55.3398 17.28 53.1098 16.06 50.6598C9.94004 59.3898 7.23005 66.3398 9.63005 68.7298C10.21 69.3198 11.07 69.5998 12.16 69.5998C15.53 69.5998 21.1 66.9198 27.7 62.2998C33.42 58.2898 39.9 52.8198 46.36 46.3598C52.82 39.8998 58.29 33.4198 62.3 27.6998C68.42 18.9698 71.13 12.0198 68.73 9.62978H68.74Z"></path>
</svg>
