<svg xmlns="http://www.w3.org/2000/svg" fill="none" viewBox="0 0 155 133" height="133" width="155">
<path fill="#FFD400" d="M74.09 0H0V74.09H74.09V0Z"></path>
<path fill="white" d="M37.0399 64.14C52.0013 64.14 64.1299 52.0114 64.1299 37.05C64.1299 22.0886 52.0013 9.95996 37.0399 9.95996C22.0785 9.95996 9.94995 22.0886 9.94995 37.05C9.94995 52.0114 22.0785 64.14 37.0399 64.14Z"></path>
<path fill="black" d="M45.7 46.0704C53.2829 46.0704 59.43 39.9232 59.43 32.3404C59.43 24.7575 53.2829 18.6104 45.7 18.6104C38.1171 18.6104 31.97 24.7575 31.97 32.3404C31.97 39.9232 38.1171 46.0704 45.7 46.0704Z"></path>
<path fill="white" d="M47.8 27.4198C49.2028 27.4198 50.34 26.2827 50.34 24.8799C50.34 23.477 49.2028 22.3398 47.8 22.3398C46.3972 22.3398 45.26 23.477 45.26 24.8799C45.26 26.2827 46.3972 27.4198 47.8 27.4198Z"></path>
<path fill="#00CBE7" d="M72.7301 80.29H20.0901V132.93H72.7301V80.29Z"></path>
<path fill="white" d="M57.4802 113.83C57.5202 119.94 52.6002 124.94 46.4802 124.99C46.4302 124.99 46.3801 124.99 46.3401 124.99C53.3301 122.75 54.8602 114.35 50.8102 108.49C51.0202 114.53 50.6002 120.42 44.3802 123C43.5802 123.38 42.7202 123.7 41.8202 124C38.0102 122.27 35.3502 118.45 35.3202 113.99C35.2802 107.88 46.2201 88.2402 46.2201 88.2402C46.2201 88.2402 57.4302 107.72 57.4802 113.84V113.83Z"></path>
<path fill="#9ADF00" d="M154.61 29.4307H80.52V103.521H154.61V29.4307Z"></path>
<path stroke-miterlimit="10" stroke-width="2.4" stroke="#FFD400" d="M113.31 63.3312L129.71 59.4512L125.83 75.8512"></path>
<path fill="black" d="M129.31 63.1612C131.359 63.1612 133.02 61.5002 133.02 59.4512C133.02 57.4022 131.359 55.7412 129.31 55.7412C127.261 55.7412 125.6 57.4022 125.6 59.4512C125.6 61.5002 127.261 63.1612 129.31 63.1612Z"></path>
<path fill="white" d="M145.24 86.7809C133.4 98.6209 114.21 98.6209 102.38 86.7809C90.54 74.9409 90.54 55.7509 102.38 43.9209"></path>
<path fill="#FFD400" d="M102.37 91.521C99.7499 91.521 97.6299 89.401 97.6299 86.781C97.6299 84.161 99.7499 82.041 102.37 82.041C104.99 82.041 107.11 84.161 107.11 86.781C107.11 89.401 104.99 91.521 102.37 91.521Z"></path>
<path fill="#FFD400" d="M104.54 87.9209H100.06V103.401H104.54V87.9209Z"></path>
</svg>
