<svg xmlns="http://www.w3.org/2000/svg" fill="none" viewBox="0 0 1440 1024" height="1024" width="1440">
<path stroke-miterlimit="10" stroke-width="0.5" stroke-opacity="0.5" stroke="white" d="M233.735 23.9986L221.088 -78.9999L118.09 -66.3533L130.737 36.6452L233.735 23.9986Z"></path>
<path stroke-miterlimit="10" stroke-width="0.5" stroke-opacity="0.5" stroke="white" d="M296.973 539.029L284.326 436.03L181.328 448.677L193.974 551.675L296.973 539.029Z"></path>
<path stroke-miterlimit="10" stroke-width="0.5" stroke-opacity="0.5" stroke="white" d="M309.619 642.027L296.972 539.029L193.974 551.675L206.621 654.674L309.619 642.027Z"></path>
<path stroke-miterlimit="10" stroke-width="0.5" stroke-opacity="0.5" stroke="white" d="M322.265 745.026L309.619 642.028L206.62 654.674L219.267 757.673L322.265 745.026Z"></path>
<path stroke-miterlimit="10" stroke-width="0.5" stroke-opacity="0.5" stroke="white" d="M334.913 848.043L322.267 745.045L219.268 757.691L231.915 860.69L334.913 848.043Z"></path>
<path stroke-miterlimit="10" stroke-width="0.5" stroke-opacity="0.5" stroke="white" d="M347.56 951.041L334.914 848.043L231.915 860.69L244.562 963.688L347.56 951.041Z"></path>
<path stroke-miterlimit="10" stroke-width="0.5" stroke-opacity="0.5" stroke="white" d="M360.209 1054.06L347.562 951.061L244.564 963.707L257.21 1066.71L360.209 1054.06Z"></path>
<path stroke-miterlimit="10" stroke-width="0.5" stroke-opacity="0.5" stroke="white" d="M246.382 126.997L233.736 23.9983L130.737 36.6449L143.384 139.643L246.382 126.997Z"></path>
<path stroke-miterlimit="10" stroke-width="0.5" stroke-opacity="0.5" stroke="white" d="M259.028 229.995L246.381 126.997L143.382 139.644L156.029 242.642L259.028 229.995Z"></path>
<path stroke-miterlimit="10" stroke-width="0.5" stroke-opacity="0.5" stroke="white" d="M271.677 333.013L259.031 230.014L156.032 242.661L168.679 345.659L271.677 333.013Z"></path>
<path stroke-miterlimit="10" stroke-width="0.5" stroke-opacity="0.5" stroke="white" d="M284.323 436.011L271.677 333.013L168.678 345.659L181.325 448.658L284.323 436.011Z"></path>
<path stroke-miterlimit="10" stroke-width="0.5" stroke-opacity="0.5" stroke="white" d="M0.605281 679.969L-12.0413 576.971L-115.04 589.617L-102.393 692.616L0.605281 679.969Z"></path>
<path stroke-miterlimit="10" stroke-width="0.5" stroke-opacity="0.5" stroke="white" d="M13.251 782.968L0.604355 679.969L-102.394 692.616L-89.7475 795.615L13.251 782.968Z"></path>
<path stroke-miterlimit="10" stroke-width="0.5" stroke-opacity="0.5" stroke="white" d="M25.9012 885.985L13.2546 782.987L-89.7439 795.633L-77.0973 898.632L25.9012 885.985Z"></path>
<path stroke-miterlimit="10" stroke-width="0.5" stroke-opacity="0.5" stroke="white" d="M38.548 988.984L25.9014 885.985L-77.0971 898.632L-64.4505 1001.63L38.548 988.984Z"></path>
<path stroke-miterlimit="10" stroke-width="0.5" stroke-opacity="0.5" stroke="white" d="M51.1963 1092L38.5497 989.003L-64.4488 1001.65L-51.8022 1104.65L51.1963 1092Z"></path>
<path stroke-miterlimit="10" stroke-width="0.5" stroke-opacity="0.5" stroke="white" d="M27.7381 49.2918L15.0915 -53.7067L-87.907 -41.06L-75.2604 61.9385L27.7381 49.2918Z"></path>
<path stroke-miterlimit="10" stroke-width="0.5" stroke-opacity="0.5" stroke="white" d="M90.9753 564.322L78.3287 461.323L-24.6698 473.97L-12.0232 576.968L90.9753 564.322Z"></path>
<path stroke-miterlimit="10" stroke-width="0.5" stroke-opacity="0.5" stroke="white" d="M103.623 667.32L90.9764 564.322L-12.0221 576.969L0.624556 679.967L103.623 667.32Z"></path>
<path stroke-miterlimit="10" stroke-width="0.5" stroke-opacity="0.5" stroke="white" d="M116.269 770.319L103.623 667.321L0.624202 679.967L13.2708 782.966L116.269 770.319Z"></path>
<path stroke-miterlimit="10" stroke-width="0.5" stroke-opacity="0.5" stroke="white" d="M128.919 873.336L116.272 770.338L13.2735 782.984L25.9201 885.983L128.919 873.336Z"></path>
<path stroke-miterlimit="10" stroke-width="0.5" stroke-opacity="0.5" stroke="white" d="M141.565 976.335L128.918 873.336L25.9198 885.983L38.5664 988.981L141.565 976.335Z"></path>
<path stroke-miterlimit="10" stroke-width="0.5" stroke-opacity="0.5" stroke="white" d="M154.214 1079.35L141.567 976.354L38.5685 989L51.2151 1092L154.214 1079.35Z"></path>
<path stroke-miterlimit="10" stroke-width="0.5" stroke-opacity="0.5" stroke="white" d="M40.3854 152.29L27.7388 49.2915L-75.2597 61.9381L-62.6131 164.937L40.3854 152.29Z"></path>
<path stroke-miterlimit="10" stroke-width="0.5" stroke-opacity="0.5" stroke="white" d="M53.0311 255.289L40.3844 152.29L-62.6141 164.937L-49.9675 267.935L53.0311 255.289Z"></path>
<path stroke-miterlimit="10" stroke-width="0.5" stroke-opacity="0.5" stroke="white" d="M65.6804 358.306L53.0338 255.307L-49.9647 267.954L-37.3181 370.953L65.6804 358.306Z"></path>
<path stroke-miterlimit="10" stroke-width="0.5" stroke-opacity="0.5" stroke="white" d="M78.3271 461.305L65.6805 358.306L-37.318 370.953L-24.6714 473.951L78.3271 461.305Z"></path>
<path stroke-miterlimit="10" stroke-width="0.5" stroke-opacity="0.5" stroke="white" d="M130.736 36.6454L118.089 -66.3531L15.0905 -53.7065L27.7371 49.292L130.736 36.6454Z"></path>
<path stroke-miterlimit="10" stroke-width="0.5" stroke-opacity="0.5" stroke="white" d="M193.973 551.676L181.326 448.677L78.3277 461.324L90.9743 564.322L193.973 551.676Z"></path>
<path stroke-miterlimit="10" stroke-width="0.5" stroke-opacity="0.5" stroke="white" d="M206.619 654.674L193.973 551.676L90.9744 564.322L103.621 667.321L206.619 654.674Z"></path>
<path stroke-miterlimit="10" stroke-width="0.5" stroke-opacity="0.5" stroke="white" d="M219.266 757.673L206.62 654.674L103.621 667.321L116.268 770.319L219.266 757.673Z"></path>
<path stroke-miterlimit="10" stroke-width="0.5" stroke-opacity="0.5" stroke="white" d="M231.915 860.69L219.268 757.691L116.27 770.338L128.917 873.337L231.915 860.69Z"></path>
<path stroke-miterlimit="10" stroke-width="0.5" stroke-opacity="0.5" stroke="white" d="M244.561 963.688L231.915 860.69L128.916 873.337L141.563 976.335L244.561 963.688Z"></path>
<path stroke-miterlimit="10" stroke-width="0.5" stroke-opacity="0.5" stroke="white" d="M257.21 1066.71L244.564 963.707L141.565 976.354L154.212 1079.35L257.21 1066.71Z"></path>
<path stroke-miterlimit="10" stroke-width="0.5" stroke-opacity="0.5" stroke="white" d="M143.381 139.644L130.735 36.6453L27.7361 49.2919L40.3827 152.29L143.381 139.644Z"></path>
<path stroke-miterlimit="10" stroke-width="0.5" stroke-opacity="0.5" stroke="white" d="M156.028 242.642L143.382 139.644L40.3833 152.29L53.03 255.289L156.028 242.642Z"></path>
<path stroke-miterlimit="10" stroke-width="0.5" stroke-opacity="0.5" stroke="white" d="M168.677 345.66L156.031 242.661L53.0321 255.308L65.6788 358.306L168.677 345.66Z"></path>
<path stroke-miterlimit="10" stroke-width="0.5" stroke-opacity="0.5" stroke="white" d="M181.324 448.658L168.677 345.66L65.6784 358.306L78.325 461.305L181.324 448.658Z"></path>
<path stroke-miterlimit="10" stroke-width="0.5" stroke-opacity="0.5" stroke="white" d="M336.841 11.2894L324.195 -91.7091L221.196 -79.0625L233.843 23.936L336.841 11.2894Z"></path>
<path stroke-miterlimit="10" stroke-width="0.5" stroke-opacity="0.5" stroke="white" d="M400.079 526.319L387.433 423.321L284.434 435.967L297.081 538.966L400.079 526.319Z"></path>
<path stroke-miterlimit="10" stroke-width="0.5" stroke-opacity="0.5" stroke="white" d="M412.726 629.318L400.08 526.319L297.081 538.966L309.728 641.964L412.726 629.318Z"></path>
<path stroke-miterlimit="10" stroke-width="0.5" stroke-opacity="0.5" stroke="white" d="M425.373 732.317L412.727 629.318L309.728 641.965L322.375 744.963L425.373 732.317Z"></path>
<path stroke-miterlimit="10" stroke-width="0.5" stroke-opacity="0.5" stroke="white" d="M438.022 835.334L425.376 732.335L322.377 744.982L335.024 847.98L438.022 835.334Z"></path>
<path stroke-miterlimit="10" stroke-width="0.5" stroke-opacity="0.5" stroke="white" d="M450.668 938.332L438.021 835.334L335.023 847.98L347.669 950.979L450.668 938.332Z"></path>
<path stroke-miterlimit="10" stroke-width="0.5" stroke-opacity="0.5" stroke="white" d="M463.317 1041.35L450.671 938.351L347.672 950.998L360.319 1054L463.317 1041.35Z"></path>
<path stroke-miterlimit="10" stroke-width="0.5" stroke-opacity="0.5" stroke="white" d="M349.488 114.288L336.842 11.2893L233.843 23.9359L246.49 126.934L349.488 114.288Z"></path>
<path stroke-miterlimit="10" stroke-width="0.5" stroke-opacity="0.5" stroke="white" d="M362.135 217.286L349.488 114.288L246.49 126.934L259.136 229.933L362.135 217.286Z"></path>
<path stroke-miterlimit="10" stroke-width="0.5" stroke-opacity="0.5" stroke="white" d="M374.784 320.304L362.137 217.305L259.139 229.952L271.785 332.95L374.784 320.304Z"></path>
<path stroke-miterlimit="10" stroke-width="0.5" stroke-opacity="0.5" stroke="white" d="M387.43 423.302L374.784 320.304L271.785 332.95L284.432 435.949L387.43 423.302Z"></path>
<path stroke-miterlimit="10" stroke-width="0.5" stroke-opacity="0.5" stroke="white" d="M439.842 -1.35746L427.195 -104.356L324.197 -91.7093L336.843 11.2892L439.842 -1.35746Z"></path>
<path stroke-miterlimit="10" stroke-width="0.5" stroke-opacity="0.5" stroke="white" d="M503.079 513.673L490.432 410.674L387.434 423.321L400.08 526.319L503.079 513.673Z"></path>
<path stroke-miterlimit="10" stroke-width="0.5" stroke-opacity="0.5" stroke="white" d="M515.726 616.671L503.08 513.673L400.081 526.319L412.728 629.318L515.726 616.671Z"></path>
<path stroke-miterlimit="10" stroke-width="0.5" stroke-opacity="0.5" stroke="white" d="M528.373 719.67L515.726 616.671L412.728 629.318L425.374 732.316L528.373 719.67Z"></path>
<path stroke-miterlimit="10" stroke-width="0.5" stroke-opacity="0.5" stroke="white" d="M541.021 822.687L528.375 719.688L425.376 732.335L438.023 835.334L541.021 822.687Z"></path>
<path stroke-miterlimit="10" stroke-width="0.5" stroke-opacity="0.5" stroke="white" d="M553.669 925.685L541.022 822.687L438.024 835.334L450.67 938.332L553.669 925.685Z"></path>
<path stroke-miterlimit="10" stroke-width="0.5" stroke-opacity="0.5" stroke="white" d="M566.317 1028.7L553.67 925.704L450.672 938.351L463.318 1041.35L566.317 1028.7Z"></path>
<path stroke-miterlimit="10" stroke-width="0.5" stroke-opacity="0.5" stroke="white" d="M452.488 101.641L439.842 -1.35754L336.843 11.2891L349.49 114.288L452.488 101.641Z"></path>
<path stroke-miterlimit="10" stroke-width="0.5" stroke-opacity="0.5" stroke="white" d="M465.135 204.64L452.488 101.641L349.49 114.288L362.136 217.286L465.135 204.64Z"></path>
<path stroke-miterlimit="10" stroke-width="0.5" stroke-opacity="0.5" stroke="white" d="M477.784 307.657L465.137 204.658L362.139 217.305L374.785 320.303L477.784 307.657Z"></path>
<path stroke-miterlimit="10" stroke-width="0.5" stroke-opacity="0.5" stroke="white" d="M490.431 410.655L477.785 307.657L374.786 320.304L387.433 423.302L490.431 410.655Z"></path>
<path stroke-miterlimit="10" stroke-width="0.5" stroke-opacity="0.5" stroke="white" d="M681.98 1119.05L669.334 1016.05L566.335 1028.7L578.982 1131.7L681.98 1119.05Z"></path>
<path stroke-miterlimit="10" stroke-width="0.5" stroke-opacity="0.5" stroke="white" d="M606.096 501.024L593.449 398.025L490.451 410.672L503.098 513.671L606.096 501.024Z"></path>
<path stroke-miterlimit="10" stroke-width="0.5" stroke-opacity="0.5" stroke="white" d="M618.743 604.022L606.097 501.024L503.098 513.67L515.745 616.669L618.743 604.022Z"></path>
<path stroke-miterlimit="10" stroke-width="0.5" stroke-opacity="0.5" stroke="white" d="M631.391 707.021L618.744 604.022L515.745 616.669L528.392 719.668L631.391 707.021Z"></path>
<path stroke-miterlimit="10" stroke-width="0.5" stroke-opacity="0.5" stroke="white" d="M644.038 810.038L631.392 707.039L528.393 719.686L541.04 822.684L644.038 810.038Z"></path>
<path stroke-miterlimit="10" stroke-width="0.5" stroke-opacity="0.5" stroke="white" d="M656.686 913.037L644.039 810.038L541.041 822.685L553.688 925.683L656.686 913.037Z"></path>
<path stroke-miterlimit="10" stroke-width="0.5" stroke-opacity="0.5" stroke="white" d="M669.335 1016.05L656.688 913.056L553.69 925.702L566.336 1028.7L669.335 1016.05Z"></path>
<path stroke-miterlimit="10" stroke-width="0.5" stroke-opacity="0.5" stroke="white" d="M555.506 88.992L542.859 -14.0065L439.861 -1.35985L452.508 101.639L555.506 88.992Z"></path>
<path stroke-miterlimit="10" stroke-width="0.5" stroke-opacity="0.5" stroke="white" d="M568.152 191.991L555.506 88.9922L452.507 101.639L465.154 204.637L568.152 191.991Z"></path>
<path stroke-miterlimit="10" stroke-width="0.5" stroke-opacity="0.5" stroke="white" d="M580.801 295.008L568.154 192.009L465.155 204.656L477.802 307.654L580.801 295.008Z"></path>
<path stroke-miterlimit="10" stroke-width="0.5" stroke-opacity="0.5" stroke="white" d="M593.448 398.006L580.802 295.008L477.803 307.655L490.45 410.653L593.448 398.006Z"></path>
<path stroke-miterlimit="10" stroke-width="0.5" stroke-opacity="0.5" stroke="white" d="M784.979 1106.41L772.333 1003.41L669.334 1016.05L681.981 1119.05L784.979 1106.41Z"></path>
<path stroke-miterlimit="10" stroke-width="0.5" stroke-opacity="0.5" stroke="white" d="M709.095 488.377L696.448 385.379L593.45 398.025L606.097 501.024L709.095 488.377Z"></path>
<path stroke-miterlimit="10" stroke-width="0.5" stroke-opacity="0.5" stroke="white" d="M721.741 591.376L709.094 488.377L606.096 501.024L618.742 604.022L721.741 591.376Z"></path>
<path stroke-miterlimit="10" stroke-width="0.5" stroke-opacity="0.5" stroke="white" d="M734.387 694.374L721.741 591.376L618.742 604.023L631.389 707.021L734.387 694.374Z"></path>
<path stroke-miterlimit="10" stroke-width="0.5" stroke-opacity="0.5" stroke="white" d="M747.037 797.392L734.39 694.393L631.392 707.04L644.038 810.038L747.037 797.392Z"></path>
<path stroke-miterlimit="10" stroke-width="0.5" stroke-opacity="0.5" stroke="white" d="M759.683 900.39L747.037 797.392L644.038 810.038L656.685 913.037L759.683 900.39Z"></path>
<path stroke-miterlimit="10" stroke-width="0.5" stroke-opacity="0.5" stroke="white" d="M772.332 1003.41L759.686 900.409L656.687 913.056L669.334 1016.05L772.332 1003.41Z"></path>
<path stroke-miterlimit="10" stroke-width="0.5" stroke-opacity="0.5" stroke="white" d="M658.503 76.3455L645.857 -26.653L542.858 -14.0063L555.505 88.9922L658.503 76.3455Z"></path>
<path stroke-miterlimit="10" stroke-width="0.5" stroke-opacity="0.5" stroke="white" d="M671.149 179.344L658.503 76.3456L555.504 88.9922L568.151 191.991L671.149 179.344Z"></path>
<path stroke-miterlimit="10" stroke-width="0.5" stroke-opacity="0.5" stroke="white" d="M683.799 282.361L671.153 179.363L568.154 192.009L580.801 295.008L683.799 282.361Z"></path>
<path stroke-miterlimit="10" stroke-width="0.5" stroke-opacity="0.5" stroke="white" d="M696.445 385.36L683.798 282.361L580.8 295.008L593.446 398.006L696.445 385.36Z"></path>
<path stroke-miterlimit="10" stroke-width="0.5" stroke-opacity="0.5" stroke="white" d="M887.996 1093.76L875.35 990.758L772.351 1003.4L784.998 1106.4L887.996 1093.76Z"></path>
<path stroke-miterlimit="10" stroke-width="0.5" stroke-opacity="0.5" stroke="white" d="M812.112 475.728L799.465 372.73L696.467 385.376L709.113 488.375L812.112 475.728Z"></path>
<path stroke-miterlimit="10" stroke-width="0.5" stroke-opacity="0.5" stroke="white" d="M824.758 578.727L812.111 475.729L709.113 488.375L721.759 591.374L824.758 578.727Z"></path>
<path stroke-miterlimit="10" stroke-width="0.5" stroke-opacity="0.5" stroke="white" d="M837.405 681.725L824.758 578.727L721.76 591.373L734.406 694.372L837.405 681.725Z"></path>
<path stroke-miterlimit="10" stroke-width="0.5" stroke-opacity="0.5" stroke="white" d="M850.053 784.743L837.407 681.744L734.408 694.391L747.055 797.389L850.053 784.743Z"></path>
<path stroke-miterlimit="10" stroke-width="0.5" stroke-opacity="0.5" stroke="white" d="M862.7 887.741L850.054 784.742L747.055 797.389L759.702 900.388L862.7 887.741Z"></path>
<path stroke-miterlimit="10" stroke-width="0.5" stroke-opacity="0.5" stroke="white" d="M875.349 990.758L862.703 887.76L759.704 900.407L772.351 1003.41L875.349 990.758Z"></path>
<path stroke-miterlimit="10" stroke-width="0.5" stroke-opacity="0.5" stroke="white" d="M761.521 63.6966L748.874 -39.3019L645.876 -26.6553L658.522 76.3432L761.521 63.6966Z"></path>
<path stroke-miterlimit="10" stroke-width="0.5" stroke-opacity="0.5" stroke="white" d="M774.166 166.695L761.52 63.6967L658.521 76.3433L671.168 179.342L774.166 166.695Z"></path>
<path stroke-miterlimit="10" stroke-width="0.5" stroke-opacity="0.5" stroke="white" d="M786.817 269.712L774.17 166.714L671.172 179.36L683.818 282.359L786.817 269.712Z"></path>
<path stroke-miterlimit="10" stroke-width="0.5" stroke-opacity="0.5" stroke="white" d="M799.462 372.711L786.816 269.713L683.817 282.359L696.464 385.358L799.462 372.711Z"></path>
<path stroke-miterlimit="10" stroke-width="0.5" stroke-opacity="0.5" stroke="white" d="M990.994 1081.11L978.348 978.112L875.349 990.759L887.996 1093.76L990.994 1081.11Z"></path>
<path stroke-miterlimit="10" stroke-width="0.5" stroke-opacity="0.5" stroke="white" d="M915.11 463.082L902.464 360.083L799.465 372.73L812.112 475.728L915.11 463.082Z"></path>
<path stroke-miterlimit="10" stroke-width="0.5" stroke-opacity="0.5" stroke="white" d="M927.756 566.08L915.11 463.082L812.111 475.728L824.758 578.727L927.756 566.08Z"></path>
<path stroke-miterlimit="10" stroke-width="0.5" stroke-opacity="0.5" stroke="white" d="M940.403 669.079L927.757 566.08L824.758 578.727L837.405 681.725L940.403 669.079Z"></path>
<path stroke-miterlimit="10" stroke-width="0.5" stroke-opacity="0.5" stroke="white" d="M953.052 772.096L940.405 669.098L837.407 681.744L850.053 784.743L953.052 772.096Z"></path>
<path stroke-miterlimit="10" stroke-width="0.5" stroke-opacity="0.5" stroke="white" d="M965.699 875.094L953.052 772.096L850.053 784.743L862.7 887.741L965.699 875.094Z"></path>
<path stroke-miterlimit="10" stroke-width="0.5" stroke-opacity="0.5" stroke="white" d="M978.347 978.112L965.701 875.114L862.702 887.76L875.349 990.759L978.347 978.112Z"></path>
<path stroke-miterlimit="10" stroke-width="0.5" stroke-opacity="0.5" stroke="white" d="M864.519 51.05L851.872 -51.9485L748.873 -39.3019L761.52 63.6966L864.519 51.05Z"></path>
<path stroke-miterlimit="10" stroke-width="0.5" stroke-opacity="0.5" stroke="white" d="M877.165 154.049L864.519 51.0502L761.52 63.6968L774.167 166.695L877.165 154.049Z"></path>
<path stroke-miterlimit="10" stroke-width="0.5" stroke-opacity="0.5" stroke="white" d="M889.815 257.066L877.168 154.067L774.17 166.714L786.816 269.712L889.815 257.066Z"></path>
<path stroke-miterlimit="10" stroke-width="0.5" stroke-opacity="0.5" stroke="white" d="M902.461 360.064L889.814 257.066L786.816 269.713L799.462 372.711L902.461 360.064Z"></path>
<path stroke-miterlimit="10" stroke-width="0.5" stroke-opacity="0.5" stroke="white" d="M1093.99 1068.46L1081.35 965.465L978.349 978.112L990.996 1081.11L1093.99 1068.46Z"></path>
<path stroke-miterlimit="10" stroke-width="0.5" stroke-opacity="0.5" stroke="white" d="M1018.11 450.435L1005.46 347.437L902.464 360.083L915.11 463.082L1018.11 450.435Z"></path>
<path stroke-miterlimit="10" stroke-width="0.5" stroke-opacity="0.5" stroke="white" d="M1030.76 553.434L1018.11 450.435L915.11 463.082L927.757 566.08L1030.76 553.434Z"></path>
<path stroke-miterlimit="10" stroke-width="0.5" stroke-opacity="0.5" stroke="white" d="M1043.4 656.432L1030.75 553.434L927.756 566.08L940.403 669.079L1043.4 656.432Z"></path>
<path stroke-miterlimit="10" stroke-width="0.5" stroke-opacity="0.5" stroke="white" d="M1056.05 759.449L1043.4 656.451L940.406 669.098L953.052 772.096L1056.05 759.449Z"></path>
<path stroke-miterlimit="10" stroke-width="0.5" stroke-opacity="0.5" stroke="white" d="M1068.7 862.448L1056.05 759.449L953.053 772.096L965.699 875.095L1068.7 862.448Z"></path>
<path stroke-miterlimit="10" stroke-width="0.5" stroke-opacity="0.5" stroke="white" d="M1081.35 965.465L1068.7 862.467L965.701 875.113L978.348 978.112L1081.35 965.465Z"></path>
<path stroke-miterlimit="10" stroke-width="0.5" stroke-opacity="0.5" stroke="white" d="M967.518 38.4034L954.871 -64.5951L851.873 -51.9485L864.519 51.05L967.518 38.4034Z"></path>
<path stroke-miterlimit="10" stroke-width="0.5" stroke-opacity="0.5" stroke="white" d="M980.164 141.402L967.517 38.4034L864.519 51.0501L877.165 154.049L980.164 141.402Z"></path>
<path stroke-miterlimit="10" stroke-width="0.5" stroke-opacity="0.5" stroke="white" d="M992.813 244.419L980.167 141.421L877.168 154.067L889.815 257.066L992.813 244.419Z"></path>
<path stroke-miterlimit="10" stroke-width="0.5" stroke-opacity="0.5" stroke="white" d="M1005.46 347.418L992.813 244.419L889.815 257.066L902.461 360.064L1005.46 347.418Z"></path>
<path stroke-miterlimit="10" stroke-width="0.5" stroke-opacity="0.5" stroke="white" d="M1197.01 1055.81L1184.36 952.816L1081.37 965.463L1094.01 1068.46L1197.01 1055.81Z"></path>
<path stroke-miterlimit="10" stroke-width="0.5" stroke-opacity="0.5" stroke="white" d="M1121.13 437.786L1108.48 334.787L1005.48 347.434L1018.13 450.433L1121.13 437.786Z"></path>
<path stroke-miterlimit="10" stroke-width="0.5" stroke-opacity="0.5" stroke="white" d="M1133.77 540.785L1121.13 437.786L1018.13 450.433L1030.77 553.431L1133.77 540.785Z"></path>
<path stroke-miterlimit="10" stroke-width="0.5" stroke-opacity="0.5" stroke="white" d="M1146.42 643.783L1133.77 540.785L1030.78 553.431L1043.42 656.43L1146.42 643.783Z"></path>
<path stroke-miterlimit="10" stroke-width="0.5" stroke-opacity="0.5" stroke="white" d="M1159.07 746.8L1146.42 643.802L1043.42 656.448L1056.07 759.447L1159.07 746.8Z"></path>
<path stroke-miterlimit="10" stroke-width="0.5" stroke-opacity="0.5" stroke="white" d="M1171.72 849.799L1159.07 746.8L1056.07 759.447L1068.72 862.445L1171.72 849.799Z"></path>
<path stroke-miterlimit="10" stroke-width="0.5" stroke-opacity="0.5" stroke="white" d="M1184.36 952.816L1171.72 849.818L1068.72 862.464L1081.37 965.463L1184.36 952.816Z"></path>
<path stroke-miterlimit="10" stroke-width="0.5" stroke-opacity="0.5" stroke="white" d="M1070.54 25.7544L1057.89 -77.2441L954.89 -64.5975L967.537 38.401L1070.54 25.7544Z"></path>
<path stroke-miterlimit="10" stroke-width="0.5" stroke-opacity="0.5" stroke="white" d="M1083.18 128.753L1070.54 25.7545L967.537 38.4011L980.184 141.4L1083.18 128.753Z"></path>
<path stroke-miterlimit="10" stroke-width="0.5" stroke-opacity="0.5" stroke="white" d="M1095.83 231.77L1083.18 128.772L980.186 141.418L992.832 244.417L1095.83 231.77Z"></path>
<path stroke-miterlimit="10" stroke-width="0.5" stroke-opacity="0.5" stroke="white" d="M1108.48 334.769L1095.83 231.77L992.833 244.417L1005.48 347.415L1108.48 334.769Z"></path>
<path stroke-miterlimit="10" stroke-width="0.5" stroke-opacity="0.5" stroke="white" d="M1300.01 1043.17L1287.36 940.17L1184.36 952.817L1197.01 1055.82L1300.01 1043.17Z"></path>
<path stroke-miterlimit="10" stroke-width="0.5" stroke-opacity="0.5" stroke="white" d="M1224.12 425.14L1211.48 322.141L1108.48 334.788L1121.13 437.786L1224.12 425.14Z"></path>
<path stroke-miterlimit="10" stroke-width="0.5" stroke-opacity="0.5" stroke="white" d="M1236.77 528.138L1224.13 425.139L1121.13 437.786L1133.77 540.784L1236.77 528.138Z"></path>
<path stroke-miterlimit="10" stroke-width="0.5" stroke-opacity="0.5" stroke="white" d="M1249.42 631.137L1236.77 528.138L1133.77 540.785L1146.42 643.783L1249.42 631.137Z"></path>
<path stroke-miterlimit="10" stroke-width="0.5" stroke-opacity="0.5" stroke="white" d="M1262.07 734.154L1249.42 631.155L1146.42 643.802L1159.07 746.8L1262.07 734.154Z"></path>
<path stroke-miterlimit="10" stroke-width="0.5" stroke-opacity="0.5" stroke="white" d="M1274.71 837.153L1262.07 734.154L1159.07 746.801L1171.72 849.799L1274.71 837.153Z"></path>
<path stroke-miterlimit="10" stroke-width="0.5" stroke-opacity="0.5" stroke="white" d="M1287.36 940.17L1274.72 837.171L1171.72 849.818L1184.36 952.816L1287.36 940.17Z"></path>
<path stroke-miterlimit="10" stroke-width="0.5" stroke-opacity="0.5" stroke="white" d="M1173.53 13.1078L1160.89 -89.8907L1057.89 -77.2441L1070.54 25.7544L1173.53 13.1078Z"></path>
<path stroke-miterlimit="10" stroke-width="0.5" stroke-opacity="0.5" stroke="white" d="M1186.18 116.106L1173.53 13.1078L1070.54 25.7544L1083.18 128.753L1186.18 116.106Z"></path>
<path stroke-miterlimit="10" stroke-width="0.5" stroke-opacity="0.5" stroke="white" d="M1198.83 219.124L1186.18 116.125L1083.19 128.772L1095.83 231.77L1198.83 219.124Z"></path>
<path stroke-miterlimit="10" stroke-width="0.5" stroke-opacity="0.5" stroke="white" d="M1211.48 322.122L1198.83 219.124L1095.83 231.77L1108.48 334.769L1211.48 322.122Z"></path>
<path stroke-miterlimit="10" stroke-width="0.5" stroke-opacity="0.5" stroke="white" d="M1403.03 1030.52L1390.38 927.521L1287.38 940.168L1300.03 1043.17L1403.03 1030.52Z"></path>
<path stroke-miterlimit="10" stroke-width="0.5" stroke-opacity="0.5" stroke="white" d="M1327.14 412.49L1314.5 309.492L1211.5 322.139L1224.14 425.137L1327.14 412.49Z"></path>
<path stroke-miterlimit="10" stroke-width="0.5" stroke-opacity="0.5" stroke="white" d="M1339.79 515.489L1327.14 412.49L1224.14 425.137L1236.79 528.135L1339.79 515.489Z"></path>
<path stroke-miterlimit="10" stroke-width="0.5" stroke-opacity="0.5" stroke="white" d="M1352.44 618.488L1339.79 515.489L1236.79 528.136L1249.44 631.134L1352.44 618.488Z"></path>
<path stroke-miterlimit="10" stroke-width="0.5" stroke-opacity="0.5" stroke="white" d="M1365.08 721.505L1352.44 618.506L1249.44 631.153L1262.09 734.151L1365.08 721.505Z"></path>
<path stroke-miterlimit="10" stroke-width="0.5" stroke-opacity="0.5" stroke="white" d="M1377.73 824.503L1365.08 721.505L1262.09 734.152L1274.73 837.15L1377.73 824.503Z"></path>
<path stroke-miterlimit="10" stroke-width="0.5" stroke-opacity="0.5" stroke="white" d="M1390.38 927.521L1377.73 824.522L1274.74 837.169L1287.38 940.167L1390.38 927.521Z"></path>
<path stroke-miterlimit="10" stroke-width="0.5" stroke-opacity="0.5" stroke="white" d="M1276.55 0.458828L1263.9 -102.54L1160.91 -89.8931L1173.55 13.1055L1276.55 0.458828Z"></path>
<path stroke-miterlimit="10" stroke-width="0.5" stroke-opacity="0.5" stroke="white" d="M1289.2 103.457L1276.55 0.458862L1173.55 13.1055L1186.2 116.104L1289.2 103.457Z"></path>
<path stroke-miterlimit="10" stroke-width="0.5" stroke-opacity="0.5" stroke="white" d="M1301.85 206.475L1289.2 103.476L1186.2 116.123L1198.85 219.121L1301.85 206.475Z"></path>
<path stroke-miterlimit="10" stroke-width="0.5" stroke-opacity="0.5" stroke="white" d="M1314.49 309.473L1301.85 206.475L1198.85 219.121L1211.49 322.12L1314.49 309.473Z"></path>
<path stroke-miterlimit="10" stroke-width="0.5" stroke-opacity="0.5" stroke="white" d="M1506.02 1017.87L1493.38 914.874L1390.38 927.521L1403.03 1030.52L1506.02 1017.87Z"></path>
<path stroke-miterlimit="10" stroke-width="0.5" stroke-opacity="0.5" stroke="white" d="M1430.14 399.844L1417.49 296.845L1314.5 309.492L1327.14 412.49L1430.14 399.844Z"></path>
<path stroke-miterlimit="10" stroke-width="0.5" stroke-opacity="0.5" stroke="white" d="M1442.79 502.842L1430.14 399.844L1327.14 412.491L1339.79 515.489L1442.79 502.842Z"></path>
<path stroke-miterlimit="10" stroke-width="0.5" stroke-opacity="0.5" stroke="white" d="M1455.43 605.841L1442.79 502.843L1339.79 515.489L1352.43 618.488L1455.43 605.841Z"></path>
<path stroke-miterlimit="10" stroke-width="0.5" stroke-opacity="0.5" stroke="white" d="M1468.08 708.858L1455.44 605.86L1352.44 618.506L1365.08 721.505L1468.08 708.858Z"></path>
<path stroke-miterlimit="10" stroke-width="0.5" stroke-opacity="0.5" stroke="white" d="M1480.73 811.857L1468.08 708.858L1365.08 721.505L1377.73 824.503L1480.73 811.857Z"></path>
<path stroke-miterlimit="10" stroke-width="0.5" stroke-opacity="0.5" stroke="white" d="M1493.38 914.874L1480.73 811.876L1377.73 824.522L1390.38 927.521L1493.38 914.874Z"></path>
<path stroke-miterlimit="10" stroke-width="0.5" stroke-opacity="0.5" stroke="white" d="M1379.55 -12.1878L1366.9 -115.186L1263.9 -102.54L1276.55 0.458839L1379.55 -12.1878Z"></path>
<path stroke-miterlimit="10" stroke-width="0.5" stroke-opacity="0.5" stroke="white" d="M1392.2 90.8109L1379.55 -12.1876L1276.55 0.458995L1289.2 103.457L1392.2 90.8109Z"></path>
<path stroke-miterlimit="10" stroke-width="0.5" stroke-opacity="0.5" stroke="white" d="M1404.84 193.828L1392.2 90.8295L1289.2 103.476L1301.85 206.475L1404.84 193.828Z"></path>
<path stroke-miterlimit="10" stroke-width="0.5" stroke-opacity="0.5" stroke="white" d="M1417.49 296.827L1404.84 193.828L1301.85 206.475L1314.49 309.473L1417.49 296.827Z"></path>
<path stroke-miterlimit="10" stroke-width="0.5" stroke-opacity="0.5" stroke="white" d="M1533.14 387.197L1520.49 284.199L1417.49 296.845L1430.14 399.844L1533.14 387.197Z"></path>
<path stroke-miterlimit="10" stroke-width="0.5" stroke-opacity="0.5" stroke="white" d="M1545.79 490.195L1533.14 387.197L1430.14 399.844L1442.79 502.842L1545.79 490.195Z"></path>
<path stroke-miterlimit="10" stroke-width="0.5" stroke-opacity="0.5" stroke="white" d="M1495.2 78.164L1482.55 -24.8345L1379.55 -12.1878L1392.2 90.8107L1495.2 78.164Z"></path>
<path stroke-miterlimit="10" stroke-width="0.5" stroke-opacity="0.5" stroke="white" d="M1507.85 181.181L1495.2 78.1826L1392.2 90.8292L1404.85 193.828L1507.85 181.181Z"></path>
<path stroke-miterlimit="10" stroke-width="0.5" stroke-opacity="0.5" stroke="white" d="M1520.49 284.18L1507.84 181.181L1404.85 193.828L1417.49 296.826L1520.49 284.18Z"></path>
</svg>
