<svg xmlns="http://www.w3.org/2000/svg" fill="none" viewBox="0 0 410 4503" height="4503" width="410">
<mask height="4503" width="410" y="0" x="0" maskUnits="userSpaceOnUse" style="mask-type:alpha" id="mask0_2264_6962">
<rect fill="#D9D9D9" height="4503" width="409.545"></rect>
</mask>
<g mask="url(#mask0_2264_6962)">
<path stroke-miterlimit="10" stroke-width="0.5" stroke-opacity="0.5" stroke="white" d="M31.042 708.865L21.8047 642.838L-53.4274 650.945L-44.19 716.972L31.042 708.865Z"></path>
<path stroke-miterlimit="10" stroke-width="0.5" stroke-opacity="0.5" stroke="white" d="M3.32913 510.773L-5.9082 444.747L-81.1403 452.854L-71.9029 518.88L3.32913 510.773Z"></path>
<path stroke-miterlimit="10" stroke-width="0.5" stroke-opacity="0.5" stroke="white" d="M12.5664 576.8L3.3291 510.773L-71.903 518.88L-62.6656 584.907L12.5664 576.8Z"></path>
<path stroke-miterlimit="10" stroke-width="0.5" stroke-opacity="0.5" stroke="white" d="M21.8067 642.839L12.5693 576.812L-62.6627 584.919L-53.4254 650.946L21.8067 642.839Z"></path>
<path stroke-miterlimit="10" stroke-width="0.5" stroke-opacity="0.5" stroke="white" d="M106.274 700.759L97.0371 634.732L21.805 642.839L31.0423 708.866L106.274 700.759Z"></path>
<path stroke-miterlimit="10" stroke-width="0.5" stroke-opacity="0.5" stroke="white" d="M50.8467 304.574L41.6094 238.547L-33.6228 246.654L-24.3854 312.681L50.8467 304.574Z"></path>
<path stroke-miterlimit="10" stroke-width="0.5" stroke-opacity="0.5" stroke="white" d="M60.085 370.601L50.8477 304.575L-24.3845 312.682L-15.1472 378.708L60.085 370.601Z"></path>
<path stroke-miterlimit="10" stroke-width="0.5" stroke-opacity="0.5" stroke="white" d="M69.3223 436.628L60.085 370.601L-15.1472 378.708L-5.90985 444.735L69.3223 436.628Z"></path>
<path stroke-miterlimit="10" stroke-width="0.5" stroke-opacity="0.5" stroke="white" d="M78.5616 502.666L69.3242 436.639L-5.90793 444.746L3.3294 510.773L78.5616 502.666Z"></path>
<path stroke-miterlimit="10" stroke-width="0.5" stroke-opacity="0.5" stroke="white" d="M87.7979 568.693L78.5605 502.667L3.32839 510.774L12.5657 576.8L87.7979 568.693Z"></path>
<path stroke-miterlimit="10" stroke-width="0.5" stroke-opacity="0.5" stroke="white" d="M97.0371 634.731L87.7998 568.705L12.5677 576.812L21.805 642.838L97.0371 634.731Z"></path>
<path stroke-miterlimit="10" stroke-width="0.5" stroke-opacity="0.5" stroke="white" d="M13.8946 40.4441L4.65723 -25.5825L-70.5749 -17.4755L-61.3376 48.5512L13.8946 40.4441Z"></path>
<path stroke-miterlimit="10" stroke-width="0.5" stroke-opacity="0.5" stroke="white" d="M23.1319 106.47L13.8945 40.4438L-61.3376 48.5509L-52.1003 114.578L23.1319 106.47Z"></path>
<path stroke-miterlimit="10" stroke-width="0.5" stroke-opacity="0.5" stroke="white" d="M32.3711 172.509L23.1338 106.482L-52.0984 114.589L-42.861 180.616L32.3711 172.509Z"></path>
<path stroke-miterlimit="10" stroke-width="0.5" stroke-opacity="0.5" stroke="white" d="M41.6094 238.536L32.3721 172.509L-42.8601 180.616L-33.6227 246.643L41.6094 238.536Z"></path>
<path stroke-miterlimit="10" stroke-width="0.5" stroke-opacity="0.5" stroke="white" d="M181.508 692.651L172.271 626.625L97.0384 634.732L106.276 700.758L181.508 692.651Z"></path>
<path stroke-miterlimit="10" stroke-width="0.5" stroke-opacity="0.5" stroke="white" d="M126.082 296.468L116.845 230.441L41.6127 238.548L50.85 304.575L126.082 296.468Z"></path>
<path stroke-miterlimit="10" stroke-width="0.5" stroke-opacity="0.5" stroke="white" d="M135.319 362.494L126.082 296.467L50.85 304.574L60.0873 370.601L135.319 362.494Z"></path>
<path stroke-miterlimit="10" stroke-width="0.5" stroke-opacity="0.5" stroke="white" d="M144.557 428.52L135.319 362.494L60.0873 370.601L69.3246 436.627L144.557 428.52Z"></path>
<path stroke-miterlimit="10" stroke-width="0.5" stroke-opacity="0.5" stroke="white" d="M153.795 494.559L144.558 428.533L69.3255 436.64L78.5629 502.666L153.795 494.559Z"></path>
<path stroke-miterlimit="10" stroke-width="0.5" stroke-opacity="0.5" stroke="white" d="M163.032 560.586L153.795 494.559L78.5628 502.666L87.8002 568.693L163.032 560.586Z"></path>
<path stroke-miterlimit="10" stroke-width="0.5" stroke-opacity="0.5" stroke="white" d="M172.273 626.625L163.036 560.598L87.8041 568.705L97.0414 634.732L172.273 626.625Z"></path>
<path stroke-miterlimit="10" stroke-width="0.5" stroke-opacity="0.5" stroke="white" d="M89.1289 32.3367L79.8916 -33.6899L4.65953 -25.5829L13.8969 40.4437L89.1289 32.3367Z"></path>
<path stroke-miterlimit="10" stroke-width="0.5" stroke-opacity="0.5" stroke="white" d="M98.3662 98.3631L89.1289 32.3364L13.8968 40.4435L23.1342 106.47L98.3662 98.3631Z"></path>
<path stroke-miterlimit="10" stroke-width="0.5" stroke-opacity="0.5" stroke="white" d="M107.606 164.402L98.3691 98.3755L23.1371 106.483L32.3744 172.509L107.606 164.402Z"></path>
<path stroke-miterlimit="10" stroke-width="0.5" stroke-opacity="0.5" stroke="white" d="M116.842 230.428L107.604 164.402L32.3724 172.509L41.6097 238.536L116.842 230.428Z"></path>
<path stroke-miterlimit="10" stroke-width="0.5" stroke-opacity="0.5" stroke="white" d="M256.753 684.543L247.516 618.516L172.284 626.623L181.521 692.65L256.753 684.543Z"></path>
<path stroke-miterlimit="10" stroke-width="0.5" stroke-opacity="0.5" stroke="white" d="M201.325 288.359L192.088 222.333L116.856 230.44L126.093 296.466L201.325 288.359Z"></path>
<path stroke-miterlimit="10" stroke-width="0.5" stroke-opacity="0.5" stroke="white" d="M210.563 354.385L201.325 288.359L126.093 296.466L135.33 362.493L210.563 354.385Z"></path>
<path stroke-miterlimit="10" stroke-width="0.5" stroke-opacity="0.5" stroke="white" d="M219.802 420.412L210.564 354.385L135.332 362.492L144.57 428.519L219.802 420.412Z"></path>
<path stroke-miterlimit="10" stroke-width="0.5" stroke-opacity="0.5" stroke="white" d="M229.04 486.45L219.803 420.423L144.571 428.53L153.808 494.557L229.04 486.45Z"></path>
<path stroke-miterlimit="10" stroke-width="0.5" stroke-opacity="0.5" stroke="white" d="M238.275 552.477L229.038 486.451L153.806 494.558L163.043 560.584L238.275 552.477Z"></path>
<path stroke-miterlimit="10" stroke-width="0.5" stroke-opacity="0.5" stroke="white" d="M247.517 618.515L238.279 552.489L163.047 560.596L172.285 626.622L247.517 618.515Z"></path>
<path stroke-miterlimit="10" stroke-width="0.5" stroke-opacity="0.5" stroke="white" d="M164.374 24.2283L155.137 -41.7983L79.9046 -33.6913L89.142 32.3353L164.374 24.2283Z"></path>
<path stroke-miterlimit="10" stroke-width="0.5" stroke-opacity="0.5" stroke="white" d="M173.611 90.2547L164.374 24.228L89.1419 32.3351L98.3793 98.3617L173.611 90.2547Z"></path>
<path stroke-miterlimit="10" stroke-width="0.5" stroke-opacity="0.5" stroke="white" d="M182.85 156.294L173.612 90.2671L98.3802 98.3741L107.618 164.401L182.85 156.294Z"></path>
<path stroke-miterlimit="10" stroke-width="0.5" stroke-opacity="0.5" stroke="white" d="M192.087 222.32L182.85 156.293L107.618 164.401L116.855 230.427L192.087 222.32Z"></path>
<path stroke-miterlimit="10" stroke-width="0.5" stroke-opacity="0.5" stroke="white" d="M331.985 676.435L322.748 610.409L247.516 618.516L256.753 684.542L331.985 676.435Z"></path>
<path stroke-miterlimit="10" stroke-width="0.5" stroke-opacity="0.5" stroke="white" d="M276.558 280.252L267.32 214.225L192.088 222.332L201.326 288.359L276.558 280.252Z"></path>
<path stroke-miterlimit="10" stroke-width="0.5" stroke-opacity="0.5" stroke="white" d="M285.797 346.278L276.56 280.251L201.327 288.359L210.565 354.385L285.797 346.278Z"></path>
<path stroke-miterlimit="10" stroke-width="0.5" stroke-opacity="0.5" stroke="white" d="M295.032 412.305L285.795 346.279L210.563 354.386L219.8 420.412L295.032 412.305Z"></path>
<path stroke-miterlimit="10" stroke-width="0.5" stroke-opacity="0.5" stroke="white" d="M304.272 478.344L295.035 412.317L219.803 420.424L229.04 486.451L304.272 478.344Z"></path>
<path stroke-miterlimit="10" stroke-width="0.5" stroke-opacity="0.5" stroke="white" d="M313.51 544.37L304.272 478.343L229.04 486.45L238.278 552.477L313.51 544.37Z"></path>
<path stroke-miterlimit="10" stroke-width="0.5" stroke-opacity="0.5" stroke="white" d="M322.748 610.409L313.511 544.382L238.279 552.489L247.516 618.516L322.748 610.409Z"></path>
<path stroke-miterlimit="10" stroke-width="0.5" stroke-opacity="0.5" stroke="white" d="M239.606 16.1209L230.369 -49.9058L155.137 -41.7987L164.374 24.2279L239.606 16.1209Z"></path>
<path stroke-miterlimit="10" stroke-width="0.5" stroke-opacity="0.5" stroke="white" d="M248.843 82.1472L239.605 16.1206L164.373 24.2277L173.611 90.2543L248.843 82.1472Z"></path>
<path stroke-miterlimit="10" stroke-width="0.5" stroke-opacity="0.5" stroke="white" d="M258.082 148.186L248.845 82.1597L173.613 90.2667L182.85 156.293L258.082 148.186Z"></path>
<path stroke-miterlimit="10" stroke-width="0.5" stroke-opacity="0.5" stroke="white" d="M267.319 214.213L258.082 148.186L182.85 156.293L192.087 222.32L267.319 214.213Z"></path>
<path stroke-miterlimit="10" stroke-width="0.5" stroke-opacity="0.5" stroke="white" d="M407.232 668.327L397.995 602.3L322.763 610.407L332 676.434L407.232 668.327Z"></path>
<path stroke-miterlimit="10" stroke-width="0.5" stroke-opacity="0.5" stroke="white" d="M351.805 272.143L342.567 206.117L267.335 214.224L276.573 280.25L351.805 272.143Z"></path>
<path stroke-miterlimit="10" stroke-width="0.5" stroke-opacity="0.5" stroke="white" d="M361.044 338.17L351.807 272.143L276.575 280.25L285.812 346.277L361.044 338.17Z"></path>
<path stroke-miterlimit="10" stroke-width="0.5" stroke-opacity="0.5" stroke="white" d="M370.278 404.196L361.041 338.169L285.809 346.276L295.046 412.303L370.278 404.196Z"></path>
<path stroke-miterlimit="10" stroke-width="0.5" stroke-opacity="0.5" stroke="white" d="M379.518 470.235L370.28 404.208L295.048 412.316L304.285 478.342L379.518 470.235Z"></path>
<path stroke-miterlimit="10" stroke-width="0.5" stroke-opacity="0.5" stroke="white" d="M388.756 536.261L379.519 470.235L304.286 478.342L313.524 544.369L388.756 536.261Z"></path>
<path stroke-miterlimit="10" stroke-width="0.5" stroke-opacity="0.5" stroke="white" d="M397.995 602.301L388.758 536.274L313.526 544.381L322.763 610.408L397.995 602.301Z"></path>
<path stroke-miterlimit="10" stroke-width="0.5" stroke-opacity="0.5" stroke="white" d="M314.851 8.01247L305.613 -58.0142L230.381 -49.9071L239.619 16.1195L314.851 8.01247Z"></path>
<path stroke-miterlimit="10" stroke-width="0.5" stroke-opacity="0.5" stroke="white" d="M324.09 74.0388L314.853 8.01221L239.62 16.1193L248.858 82.1459L324.09 74.0388Z"></path>
<path stroke-miterlimit="10" stroke-width="0.5" stroke-opacity="0.5" stroke="white" d="M333.329 140.078L324.092 74.0513L248.86 82.1583L258.097 148.185L333.329 140.078Z"></path>
<path stroke-miterlimit="10" stroke-width="0.5" stroke-opacity="0.5" stroke="white" d="M342.565 206.104L333.328 140.078L258.096 148.185L267.333 214.211L342.565 206.104Z"></path>
<path stroke-miterlimit="10" stroke-width="0.5" stroke-opacity="0.5" stroke="white" d="M482.463 660.221L473.226 594.194L397.994 602.301L407.231 668.328L482.463 660.221Z"></path>
<path stroke-miterlimit="10" stroke-width="0.5" stroke-opacity="0.5" stroke="white" d="M427.035 264.036L417.798 198.009L342.566 206.116L351.803 272.143L427.035 264.036Z"></path>
<path stroke-miterlimit="10" stroke-width="0.5" stroke-opacity="0.5" stroke="white" d="M436.272 330.062L427.035 264.036L351.803 272.143L361.04 338.169L436.272 330.062Z"></path>
<path stroke-miterlimit="10" stroke-width="0.5" stroke-opacity="0.5" stroke="white" d="M445.511 396.09L436.273 330.063L361.041 338.17L370.279 404.197L445.511 396.09Z"></path>
<path stroke-miterlimit="10" stroke-width="0.5" stroke-opacity="0.5" stroke="white" d="M454.75 462.128L445.513 396.101L370.281 404.208L379.518 470.235L454.75 462.128Z"></path>
<path stroke-miterlimit="10" stroke-width="0.5" stroke-opacity="0.5" stroke="white" d="M463.987 528.155L454.75 462.128L379.518 470.235L388.755 536.262L463.987 528.155Z"></path>
<path stroke-miterlimit="10" stroke-width="0.5" stroke-opacity="0.5" stroke="white" d="M473.226 594.193L463.988 528.167L388.756 536.274L397.994 602.3L473.226 594.193Z"></path>
<path stroke-miterlimit="10" stroke-width="0.5" stroke-opacity="0.5" stroke="white" d="M390.081 -0.0949554L380.844 -66.1216L305.612 -58.0145L314.849 8.01209L390.081 -0.0949554Z"></path>
<path stroke-miterlimit="10" stroke-width="0.5" stroke-opacity="0.5" stroke="white" d="M399.32 65.9324L390.083 -0.0942383L314.851 8.01281L324.088 74.0394L399.32 65.9324Z"></path>
<path stroke-miterlimit="10" stroke-width="0.5" stroke-opacity="0.5" stroke="white" d="M408.559 131.97L399.321 65.9438L324.089 74.0509L333.327 140.078L408.559 131.97Z"></path>
<path stroke-miterlimit="10" stroke-width="0.5" stroke-opacity="0.5" stroke="white" d="M417.796 197.998L408.559 131.971L333.327 140.078L342.564 206.105L417.796 197.998Z"></path>
<path stroke-miterlimit="10" stroke-width="0.5" stroke-opacity="0.5" stroke="white" d="M465.315 -8.2014L456.078 -74.228L380.846 -66.121L390.083 -0.0943511L465.315 -8.2014Z"></path>
<path stroke-miterlimit="10" stroke-width="0.5" stroke-opacity="0.5" stroke="white" d="M474.553 57.825L465.315 -8.20166L390.083 -0.0946105L399.321 65.932L474.553 57.825Z"></path>
<path stroke-miterlimit="10" stroke-width="0.5" stroke-opacity="0.5" stroke="white" d="M483.793 123.863L474.556 57.8364L399.324 65.9435L408.561 131.97L483.793 123.863Z"></path>
<path stroke-miterlimit="10" stroke-width="0.5" stroke-opacity="0.5" stroke="white" d="M493.028 189.89L483.791 123.864L408.559 131.971L417.796 197.997L493.028 189.89Z"></path>
<path stroke-miterlimit="10" stroke-width="0.5" stroke-opacity="0.5" stroke="white" d="M66.6211 1509.17L57.3838 1443.14L-17.8483 1451.25L-8.61095 1517.28L66.6211 1509.17Z"></path>
<path stroke-miterlimit="10" stroke-width="0.5" stroke-opacity="0.5" stroke="white" d="M11.1953 1112.99L1.95801 1046.96L-73.2741 1055.07L-64.0367 1121.09L11.1953 1112.99Z"></path>
<path stroke-miterlimit="10" stroke-width="0.5" stroke-opacity="0.5" stroke="white" d="M20.4326 1179.01L11.1953 1112.99L-64.0368 1121.09L-54.7994 1187.12L20.4326 1179.01Z"></path>
<path stroke-miterlimit="10" stroke-width="0.5" stroke-opacity="0.5" stroke="white" d="M29.669 1245.04L20.4316 1179.01L-54.8004 1187.12L-45.5631 1253.15L29.669 1245.04Z"></path>
<path stroke-miterlimit="10" stroke-width="0.5" stroke-opacity="0.5" stroke="white" d="M38.9082 1311.08L29.6709 1245.05L-45.5612 1253.16L-36.3238 1319.18L38.9082 1311.08Z"></path>
<path stroke-miterlimit="10" stroke-width="0.5" stroke-opacity="0.5" stroke="white" d="M48.1455 1377.1L38.9082 1311.08L-36.3239 1319.18L-27.0865 1385.21L48.1455 1377.1Z"></path>
<path stroke-miterlimit="10" stroke-width="0.5" stroke-opacity="0.5" stroke="white" d="M57.3858 1443.14L48.1484 1377.12L-27.0836 1385.22L-17.8463 1451.25L57.3858 1443.14Z"></path>
<path stroke-miterlimit="10" stroke-width="0.5" stroke-opacity="0.5" stroke="white" d="M1.95608 1046.95L-7.28125 980.92L-82.5133 989.027L-73.276 1055.05L1.95608 1046.95Z"></path>
<path stroke-miterlimit="10" stroke-width="0.5" stroke-opacity="0.5" stroke="white" d="M40.2354 774.721L30.998 708.695L-44.2341 716.802L-34.9968 782.829L40.2354 774.721Z"></path>
<path stroke-miterlimit="10" stroke-width="0.5" stroke-opacity="0.5" stroke="white" d="M141.854 1501.06L132.616 1435.04L57.3841 1443.14L66.6214 1509.17L141.854 1501.06Z"></path>
<path stroke-miterlimit="10" stroke-width="0.5" stroke-opacity="0.5" stroke="white" d="M86.4258 1104.88L77.1885 1038.85L1.95632 1046.96L11.1937 1112.99L86.4258 1104.88Z"></path>
<path stroke-miterlimit="10" stroke-width="0.5" stroke-opacity="0.5" stroke="white" d="M95.6641 1170.91L86.4268 1104.88L11.1946 1112.99L20.4319 1179.01L95.6641 1170.91Z"></path>
<path stroke-miterlimit="10" stroke-width="0.5" stroke-opacity="0.5" stroke="white" d="M104.901 1236.93L95.6641 1170.91L20.4319 1179.01L29.6692 1245.04L104.901 1236.93Z"></path>
<path stroke-miterlimit="10" stroke-width="0.5" stroke-opacity="0.5" stroke="white" d="M114.141 1302.97L104.903 1236.94L29.6712 1245.05L38.9085 1311.08L114.141 1302.97Z"></path>
<path stroke-miterlimit="10" stroke-width="0.5" stroke-opacity="0.5" stroke="white" d="M123.377 1369L114.14 1302.97L38.9075 1311.08L48.1448 1377.1L123.377 1369Z"></path>
<path stroke-miterlimit="10" stroke-width="0.5" stroke-opacity="0.5" stroke="white" d="M132.616 1435.04L123.379 1369.01L48.1468 1377.12L57.3841 1443.14L132.616 1435.04Z"></path>
<path stroke-miterlimit="10" stroke-width="0.5" stroke-opacity="0.5" stroke="white" d="M49.4737 840.749L40.2363 774.722L-34.9958 782.829L-25.7585 848.856L49.4737 840.749Z"></path>
<path stroke-miterlimit="10" stroke-width="0.5" stroke-opacity="0.5" stroke="white" d="M58.711 906.775L49.4736 840.749L-25.7585 848.856L-16.5212 914.882L58.711 906.775Z"></path>
<path stroke-miterlimit="10" stroke-width="0.5" stroke-opacity="0.5" stroke="white" d="M67.9502 972.813L58.7129 906.787L-16.5193 914.894L-7.28192 980.92L67.9502 972.813Z"></path>
<path stroke-miterlimit="10" stroke-width="0.5" stroke-opacity="0.5" stroke="white" d="M77.1885 1038.84L67.9512 972.814L-7.28098 980.921L1.95635 1046.95L77.1885 1038.84Z"></path>
<path stroke-miterlimit="10" stroke-width="0.5" stroke-opacity="0.5" stroke="white" d="M115.471 766.615L106.233 700.588L31.0013 708.695L40.2387 774.722L115.471 766.615Z"></path>
<path stroke-miterlimit="10" stroke-width="0.5" stroke-opacity="0.5" stroke="white" d="M217.087 1492.96L207.85 1426.93L132.618 1435.04L141.855 1501.06L217.087 1492.96Z"></path>
<path stroke-miterlimit="10" stroke-width="0.5" stroke-opacity="0.5" stroke="white" d="M161.661 1096.77L152.424 1030.75L77.1918 1038.85L86.4291 1104.88L161.661 1096.77Z"></path>
<path stroke-miterlimit="10" stroke-width="0.5" stroke-opacity="0.5" stroke="white" d="M170.898 1162.8L161.661 1096.77L86.4291 1104.88L95.6664 1170.91L170.898 1162.8Z"></path>
<path stroke-miterlimit="10" stroke-width="0.5" stroke-opacity="0.5" stroke="white" d="M180.136 1228.82L170.898 1162.8L95.6664 1170.91L104.904 1236.93L180.136 1228.82Z"></path>
<path stroke-miterlimit="10" stroke-width="0.5" stroke-opacity="0.5" stroke="white" d="M189.374 1294.86L180.137 1228.84L104.905 1236.94L114.142 1302.97L189.374 1294.86Z"></path>
<path stroke-miterlimit="10" stroke-width="0.5" stroke-opacity="0.5" stroke="white" d="M198.611 1360.89L189.374 1294.86L114.142 1302.97L123.379 1369L198.611 1360.89Z"></path>
<path stroke-miterlimit="10" stroke-width="0.5" stroke-opacity="0.5" stroke="white" d="M207.853 1426.93L198.615 1360.9L123.383 1369.01L132.62 1435.04L207.853 1426.93Z"></path>
<path stroke-miterlimit="10" stroke-width="0.5" stroke-opacity="0.5" stroke="white" d="M124.708 832.641L115.471 766.615L40.2386 774.722L49.476 840.748L124.708 832.641Z"></path>
<path stroke-miterlimit="10" stroke-width="0.5" stroke-opacity="0.5" stroke="white" d="M133.945 898.668L124.708 832.641L49.4759 840.748L58.7133 906.775L133.945 898.668Z"></path>
<path stroke-miterlimit="10" stroke-width="0.5" stroke-opacity="0.5" stroke="white" d="M143.186 964.707L133.948 898.68L58.7162 906.787L67.9535 972.814L143.186 964.707Z"></path>
<path stroke-miterlimit="10" stroke-width="0.5" stroke-opacity="0.5" stroke="white" d="M152.421 1030.73L143.184 964.707L67.9515 972.814L77.1889 1038.84L152.421 1030.73Z"></path>
<path stroke-miterlimit="10" stroke-width="0.5" stroke-opacity="0.5" stroke="white" d="M190.716 758.507L181.479 692.48L106.246 700.587L115.484 766.614L190.716 758.507Z"></path>
<path stroke-miterlimit="10" stroke-width="0.5" stroke-opacity="0.5" stroke="white" d="M292.332 1484.85L283.095 1418.82L207.863 1426.93L217.1 1492.95L292.332 1484.85Z"></path>
<path stroke-miterlimit="10" stroke-width="0.5" stroke-opacity="0.5" stroke="white" d="M236.904 1088.66L227.667 1022.64L152.435 1030.74L161.672 1096.77L236.904 1088.66Z"></path>
<path stroke-miterlimit="10" stroke-width="0.5" stroke-opacity="0.5" stroke="white" d="M246.142 1154.69L236.904 1088.66L161.672 1096.77L170.91 1162.8L246.142 1154.69Z"></path>
<path stroke-miterlimit="10" stroke-width="0.5" stroke-opacity="0.5" stroke="white" d="M255.381 1220.72L246.144 1154.69L170.911 1162.8L180.149 1228.82L255.381 1220.72Z"></path>
<path stroke-miterlimit="10" stroke-width="0.5" stroke-opacity="0.5" stroke="white" d="M264.619 1286.75L255.382 1220.73L180.15 1228.84L189.387 1294.86L264.619 1286.75Z"></path>
<path stroke-miterlimit="10" stroke-width="0.5" stroke-opacity="0.5" stroke="white" d="M273.855 1352.78L264.617 1286.76L189.385 1294.86L198.622 1360.89L273.855 1352.78Z"></path>
<path stroke-miterlimit="10" stroke-width="0.5" stroke-opacity="0.5" stroke="white" d="M283.096 1418.82L273.858 1352.79L198.626 1360.9L207.864 1426.93L283.096 1418.82Z"></path>
<path stroke-miterlimit="10" stroke-width="0.5" stroke-opacity="0.5" stroke="white" d="M199.953 824.533L190.716 758.506L115.484 766.613L124.721 832.64L199.953 824.533Z"></path>
<path stroke-miterlimit="10" stroke-width="0.5" stroke-opacity="0.5" stroke="white" d="M209.19 890.559L199.953 824.533L124.721 832.64L133.958 898.666L209.19 890.559Z"></path>
<path stroke-miterlimit="10" stroke-width="0.5" stroke-opacity="0.5" stroke="white" d="M218.429 956.598L209.191 890.572L133.959 898.679L143.197 964.705L218.429 956.598Z"></path>
<path stroke-miterlimit="10" stroke-width="0.5" stroke-opacity="0.5" stroke="white" d="M227.666 1022.62L218.429 956.598L143.197 964.705L152.434 1030.73L227.666 1022.62Z"></path>
<path stroke-miterlimit="10" stroke-width="0.5" stroke-opacity="0.5" stroke="white" d="M265.946 750.399L256.709 684.373L181.477 692.48L190.714 758.506L265.946 750.399Z"></path>
<path stroke-miterlimit="10" stroke-width="0.5" stroke-opacity="0.5" stroke="white" d="M367.564 1476.74L358.327 1410.71L283.095 1418.82L292.332 1484.85L367.564 1476.74Z"></path>
<path stroke-miterlimit="10" stroke-width="0.5" stroke-opacity="0.5" stroke="white" d="M312.137 1080.56L302.899 1014.53L227.667 1022.64L236.905 1088.66L312.137 1080.56Z"></path>
<path stroke-miterlimit="10" stroke-width="0.5" stroke-opacity="0.5" stroke="white" d="M321.376 1146.58L312.139 1080.56L236.907 1088.66L246.144 1154.69L321.376 1146.58Z"></path>
<path stroke-miterlimit="10" stroke-width="0.5" stroke-opacity="0.5" stroke="white" d="M330.611 1212.61L321.374 1146.58L246.142 1154.69L255.379 1220.72L330.611 1212.61Z"></path>
<path stroke-miterlimit="10" stroke-width="0.5" stroke-opacity="0.5" stroke="white" d="M339.852 1278.65L330.614 1212.62L255.382 1220.73L264.619 1286.76L339.852 1278.65Z"></path>
<path stroke-miterlimit="10" stroke-width="0.5" stroke-opacity="0.5" stroke="white" d="M349.089 1344.67L339.852 1278.65L264.619 1286.75L273.857 1352.78L349.089 1344.67Z"></path>
<path stroke-miterlimit="10" stroke-width="0.5" stroke-opacity="0.5" stroke="white" d="M358.327 1410.71L349.09 1344.69L273.858 1352.79L283.095 1418.82L358.327 1410.71Z"></path>
<path stroke-miterlimit="10" stroke-width="0.5" stroke-opacity="0.5" stroke="white" d="M275.186 816.426L265.948 750.399L190.716 758.506L199.953 824.533L275.186 816.426Z"></path>
<path stroke-miterlimit="10" stroke-width="0.5" stroke-opacity="0.5" stroke="white" d="M284.422 882.452L275.185 816.425L199.952 824.532L209.19 890.559L284.422 882.452Z"></path>
<path stroke-miterlimit="10" stroke-width="0.5" stroke-opacity="0.5" stroke="white" d="M293.661 948.491L284.424 882.464L209.192 890.571L218.429 956.598L293.661 948.491Z"></path>
<path stroke-miterlimit="10" stroke-width="0.5" stroke-opacity="0.5" stroke="white" d="M302.898 1014.52L293.661 948.491L218.429 956.598L227.666 1022.62L302.898 1014.52Z"></path>
<path stroke-miterlimit="10" stroke-width="0.5" stroke-opacity="0.5" stroke="white" d="M341.195 742.291L331.958 676.264L256.726 684.371L265.963 750.398L341.195 742.291Z"></path>
<path stroke-miterlimit="10" stroke-width="0.5" stroke-opacity="0.5" stroke="white" d="M442.812 1468.63L433.574 1402.6L358.342 1410.71L367.579 1476.74L442.812 1468.63Z"></path>
<path stroke-miterlimit="10" stroke-width="0.5" stroke-opacity="0.5" stroke="white" d="M387.384 1072.45L378.146 1006.42L302.914 1014.53L312.152 1080.56L387.384 1072.45Z"></path>
<path stroke-miterlimit="10" stroke-width="0.5" stroke-opacity="0.5" stroke="white" d="M396.623 1138.47L387.386 1072.45L312.154 1080.55L321.391 1146.58L396.623 1138.47Z"></path>
<path stroke-miterlimit="10" stroke-width="0.5" stroke-opacity="0.5" stroke="white" d="M405.857 1204.5L396.62 1138.47L321.388 1146.58L330.625 1212.61L405.857 1204.5Z"></path>
<path stroke-miterlimit="10" stroke-width="0.5" stroke-opacity="0.5" stroke="white" d="M415.097 1270.54L405.859 1204.51L330.627 1212.62L339.865 1278.65L415.097 1270.54Z"></path>
<path stroke-miterlimit="10" stroke-width="0.5" stroke-opacity="0.5" stroke="white" d="M424.335 1336.57L415.098 1270.54L339.866 1278.65L349.103 1344.67L424.335 1336.57Z"></path>
<path stroke-miterlimit="10" stroke-width="0.5" stroke-opacity="0.5" stroke="white" d="M433.574 1402.61L424.337 1336.58L349.105 1344.69L358.342 1410.71L433.574 1402.61Z"></path>
<path stroke-miterlimit="10" stroke-width="0.5" stroke-opacity="0.5" stroke="white" d="M350.43 808.317L341.192 742.291L265.96 750.398L275.198 816.424L350.43 808.317Z"></path>
<path stroke-miterlimit="10" stroke-width="0.5" stroke-opacity="0.5" stroke="white" d="M359.669 874.344L350.432 808.317L275.2 816.424L284.437 882.451L359.669 874.344Z"></path>
<path stroke-miterlimit="10" stroke-width="0.5" stroke-opacity="0.5" stroke="white" d="M368.908 940.383L359.671 874.356L284.439 882.463L293.676 948.49L368.908 940.383Z"></path>
<path stroke-miterlimit="10" stroke-width="0.5" stroke-opacity="0.5" stroke="white" d="M378.145 1006.41L368.907 940.382L293.675 948.489L302.912 1014.52L378.145 1006.41Z"></path>
<path stroke-miterlimit="10" stroke-width="0.5" stroke-opacity="0.5" stroke="white" d="M416.424 734.183L407.187 668.157L331.954 676.264L341.192 742.29L416.424 734.183Z"></path>
<path stroke-miterlimit="10" stroke-width="0.5" stroke-opacity="0.5" stroke="white" d="M462.614 1064.34L453.377 998.314L378.145 1006.42L387.382 1072.45L462.614 1064.34Z"></path>
<path stroke-miterlimit="10" stroke-width="0.5" stroke-opacity="0.5" stroke="white" d="M471.852 1130.37L462.614 1064.34L387.382 1072.45L396.62 1138.47L471.852 1130.37Z"></path>
<path stroke-miterlimit="10" stroke-width="0.5" stroke-opacity="0.5" stroke="white" d="M481.09 1196.39L471.853 1130.37L396.62 1138.47L405.858 1204.5L481.09 1196.39Z"></path>
<path stroke-miterlimit="10" stroke-width="0.5" stroke-opacity="0.5" stroke="white" d="M490.329 1262.43L481.092 1196.41L405.86 1204.51L415.097 1270.54L490.329 1262.43Z"></path>
<path stroke-miterlimit="10" stroke-width="0.5" stroke-opacity="0.5" stroke="white" d="M425.66 800.21L416.423 734.183L341.191 742.29L350.428 808.317L425.66 800.21Z"></path>
<path stroke-miterlimit="10" stroke-width="0.5" stroke-opacity="0.5" stroke="white" d="M434.899 866.237L425.662 800.21L350.43 808.317L359.667 874.344L434.899 866.237Z"></path>
<path stroke-miterlimit="10" stroke-width="0.5" stroke-opacity="0.5" stroke="white" d="M444.138 932.275L434.9 866.249L359.668 874.356L368.906 940.382L444.138 932.275Z"></path>
<path stroke-miterlimit="10" stroke-width="0.5" stroke-opacity="0.5" stroke="white" d="M453.375 998.302L444.138 932.276L368.906 940.383L378.143 1006.41L453.375 998.302Z"></path>
<path stroke-miterlimit="10" stroke-width="0.5" stroke-opacity="0.5" stroke="white" d="M491.658 726.077L482.421 660.05L407.189 668.157L416.426 734.184L491.658 726.077Z"></path>
<path stroke-miterlimit="10" stroke-width="0.5" stroke-opacity="0.5" stroke="white" d="M26.9952 2317.72L17.7578 2251.7L-57.4743 2259.8L-48.2369 2325.83L26.9952 2317.72Z"></path>
<path stroke-miterlimit="10" stroke-width="0.5" stroke-opacity="0.5" stroke="white" d="M8.51761 2185.66L-0.719727 2119.63L-75.9518 2127.74L-66.7145 2193.76L8.51761 2185.66Z"></path>
<path stroke-miterlimit="10" stroke-width="0.5" stroke-opacity="0.5" stroke="white" d="M17.7559 2251.7L8.51855 2185.67L-66.7135 2193.78L-57.4762 2259.8L17.7559 2251.7Z"></path>
<path stroke-miterlimit="10" stroke-width="0.5" stroke-opacity="0.5" stroke="white" d="M0.622102 1583.27L-8.61523 1517.25L-83.8473 1525.35L-74.61 1591.38L0.622102 1583.27Z"></path>
<path stroke-miterlimit="10" stroke-width="0.5" stroke-opacity="0.5" stroke="white" d="M102.238 2309.61L93.001 2243.59L17.7689 2251.69L27.0062 2317.72L102.238 2309.61Z"></path>
<path stroke-miterlimit="10" stroke-width="0.5" stroke-opacity="0.5" stroke="white" d="M46.8125 1913.43L37.5752 1847.4L-37.6569 1855.51L-28.4195 1921.54L46.8125 1913.43Z"></path>
<path stroke-miterlimit="10" stroke-width="0.5" stroke-opacity="0.5" stroke="white" d="M56.0498 1979.46L46.8125 1913.43L-28.4196 1921.54L-19.1822 1987.56L56.0498 1979.46Z"></path>
<path stroke-miterlimit="10" stroke-width="0.5" stroke-opacity="0.5" stroke="white" d="M65.2862 2045.48L56.0488 1979.46L-19.1832 1987.56L-9.94591 2053.59L65.2862 2045.48Z"></path>
<path stroke-miterlimit="10" stroke-width="0.5" stroke-opacity="0.5" stroke="white" d="M74.5254 2111.52L65.2881 2045.5L-9.94399 2053.6L-0.706654 2119.63L74.5254 2111.52Z"></path>
<path stroke-miterlimit="10" stroke-width="0.5" stroke-opacity="0.5" stroke="white" d="M83.7627 2177.55L74.5254 2111.52L-0.706686 2119.63L8.53065 2185.66L83.7627 2177.55Z"></path>
<path stroke-miterlimit="10" stroke-width="0.5" stroke-opacity="0.5" stroke="white" d="M93.003 2243.59L83.7656 2177.56L8.53355 2185.67L17.7709 2251.69L93.003 2243.59Z"></path>
<path stroke-miterlimit="10" stroke-width="0.5" stroke-opacity="0.5" stroke="white" d="M9.85941 1649.3L0.62207 1583.27L-74.61 1591.38L-65.3727 1657.41L9.85941 1649.3Z"></path>
<path stroke-miterlimit="10" stroke-width="0.5" stroke-opacity="0.5" stroke="white" d="M19.0957 1715.33L9.8584 1649.3L-65.3737 1657.41L-56.1363 1723.43L19.0957 1715.33Z"></path>
<path stroke-miterlimit="10" stroke-width="0.5" stroke-opacity="0.5" stroke="white" d="M28.335 1781.37L19.0977 1715.34L-56.1344 1723.45L-46.8971 1789.47L28.335 1781.37Z"></path>
<path stroke-miterlimit="10" stroke-width="0.5" stroke-opacity="0.5" stroke="white" d="M37.5733 1847.39L28.3359 1781.36L-46.8961 1789.47L-37.6588 1855.5L37.5733 1847.39Z"></path>
<path stroke-miterlimit="10" stroke-width="0.5" stroke-opacity="0.5" stroke="white" d="M75.8526 1575.17L66.6152 1509.14L-8.61692 1517.25L0.620418 1583.27L75.8526 1575.17Z"></path>
<path stroke-miterlimit="10" stroke-width="0.5" stroke-opacity="0.5" stroke="white" d="M177.471 2301.51L168.233 2235.48L93.0012 2243.59L102.239 2309.61L177.471 2301.51Z"></path>
<path stroke-miterlimit="10" stroke-width="0.5" stroke-opacity="0.5" stroke="white" d="M122.043 1905.32L112.806 1839.3L37.5735 1847.4L46.8108 1913.43L122.043 1905.32Z"></path>
<path stroke-miterlimit="10" stroke-width="0.5" stroke-opacity="0.5" stroke="white" d="M131.281 1971.35L122.044 1905.32L46.8118 1913.43L56.0491 1979.46L131.281 1971.35Z"></path>
<path stroke-miterlimit="10" stroke-width="0.5" stroke-opacity="0.5" stroke="white" d="M140.519 2037.38L131.281 1971.35L56.0491 1979.46L65.2864 2045.48L140.519 2037.38Z"></path>
<path stroke-miterlimit="10" stroke-width="0.5" stroke-opacity="0.5" stroke="white" d="M149.758 2103.41L140.521 2037.39L65.2884 2045.5L74.5257 2111.52L149.758 2103.41Z"></path>
<path stroke-miterlimit="10" stroke-width="0.5" stroke-opacity="0.5" stroke="white" d="M158.994 2169.44L149.757 2103.42L74.5247 2111.52L83.762 2177.55L158.994 2169.44Z"></path>
<path stroke-miterlimit="10" stroke-width="0.5" stroke-opacity="0.5" stroke="white" d="M168.233 2235.48L158.996 2169.45L83.7639 2177.56L93.0013 2243.59L168.233 2235.48Z"></path>
<path stroke-miterlimit="10" stroke-width="0.5" stroke-opacity="0.5" stroke="white" d="M85.0909 1641.19L75.8535 1575.17L0.621363 1583.27L9.8587 1649.3L85.0909 1641.19Z"></path>
<path stroke-miterlimit="10" stroke-width="0.5" stroke-opacity="0.5" stroke="white" d="M94.3282 1707.22L85.0908 1641.19L9.85867 1649.3L19.096 1715.33L94.3282 1707.22Z"></path>
<path stroke-miterlimit="10" stroke-width="0.5" stroke-opacity="0.5" stroke="white" d="M103.567 1773.26L94.3301 1707.23L19.0979 1715.34L28.3353 1781.36L103.567 1773.26Z"></path>
<path stroke-miterlimit="10" stroke-width="0.5" stroke-opacity="0.5" stroke="white" d="M112.806 1839.28L103.568 1773.26L28.3362 1781.37L37.5735 1847.39L112.806 1839.28Z"></path>
<path stroke-miterlimit="10" stroke-width="0.5" stroke-opacity="0.5" stroke="white" d="M151.088 1567.06L141.851 1501.03L66.6185 1509.14L75.8558 1575.17L151.088 1567.06Z"></path>
<path stroke-miterlimit="10" stroke-width="0.5" stroke-opacity="0.5" stroke="white" d="M252.704 2293.4L243.467 2227.37L168.235 2235.48L177.472 2301.51L252.704 2293.4Z"></path>
<path stroke-miterlimit="10" stroke-width="0.5" stroke-opacity="0.5" stroke="white" d="M197.278 1897.22L188.041 1831.19L112.809 1839.3L122.046 1905.32L197.278 1897.22Z"></path>
<path stroke-miterlimit="10" stroke-width="0.5" stroke-opacity="0.5" stroke="white" d="M206.516 1963.24L197.278 1897.22L122.046 1905.32L131.284 1971.35L206.516 1963.24Z"></path>
<path stroke-miterlimit="10" stroke-width="0.5" stroke-opacity="0.5" stroke="white" d="M215.753 2029.27L206.516 1963.24L131.284 1971.35L140.521 2037.38L215.753 2029.27Z"></path>
<path stroke-miterlimit="10" stroke-width="0.5" stroke-opacity="0.5" stroke="white" d="M224.991 2095.31L215.754 2029.28L140.522 2037.39L149.759 2103.42L224.991 2095.31Z"></path>
<path stroke-miterlimit="10" stroke-width="0.5" stroke-opacity="0.5" stroke="white" d="M234.229 2161.33L224.991 2095.31L149.759 2103.42L158.996 2169.44L234.229 2161.33Z"></path>
<path stroke-miterlimit="10" stroke-width="0.5" stroke-opacity="0.5" stroke="white" d="M243.47 2227.37L234.232 2161.35L159 2169.45L168.238 2235.48L243.47 2227.37Z"></path>
<path stroke-miterlimit="10" stroke-width="0.5" stroke-opacity="0.5" stroke="white" d="M160.325 1633.09L151.088 1567.06L75.8558 1575.17L85.0932 1641.19L160.325 1633.09Z"></path>
<path stroke-miterlimit="10" stroke-width="0.5" stroke-opacity="0.5" stroke="white" d="M169.563 1699.11L160.325 1633.09L85.0931 1641.19L94.3305 1707.22L169.563 1699.11Z"></path>
<path stroke-miterlimit="10" stroke-width="0.5" stroke-opacity="0.5" stroke="white" d="M178.803 1765.15L169.565 1699.12L94.3334 1707.23L103.571 1773.26L178.803 1765.15Z"></path>
<path stroke-miterlimit="10" stroke-width="0.5" stroke-opacity="0.5" stroke="white" d="M188.038 1831.18L178.801 1765.15L103.569 1773.26L112.806 1839.28L188.038 1831.18Z"></path>
<path stroke-miterlimit="10" stroke-width="0.5" stroke-opacity="0.5" stroke="white" d="M226.333 1558.95L217.096 1492.92L141.864 1501.03L151.101 1567.06L226.333 1558.95Z"></path>
<path stroke-miterlimit="10" stroke-width="0.5" stroke-opacity="0.5" stroke="white" d="M327.949 2285.29L318.712 2219.27L243.48 2227.37L252.717 2293.4L327.949 2285.29Z"></path>
<path stroke-miterlimit="10" stroke-width="0.5" stroke-opacity="0.5" stroke="white" d="M272.522 1889.11L263.284 1823.08L188.052 1831.19L197.289 1897.22L272.522 1889.11Z"></path>
<path stroke-miterlimit="10" stroke-width="0.5" stroke-opacity="0.5" stroke="white" d="M281.759 1955.13L272.521 1889.11L197.289 1897.21L206.527 1963.24L281.759 1955.13Z"></path>
<path stroke-miterlimit="10" stroke-width="0.5" stroke-opacity="0.5" stroke="white" d="M290.998 2021.16L281.761 1955.13L206.529 1963.24L215.766 2029.27L290.998 2021.16Z"></path>
<path stroke-miterlimit="10" stroke-width="0.5" stroke-opacity="0.5" stroke="white" d="M300.236 2087.2L290.999 2021.17L215.767 2029.28L225.004 2095.31L300.236 2087.2Z"></path>
<path stroke-miterlimit="10" stroke-width="0.5" stroke-opacity="0.5" stroke="white" d="M309.472 2153.23L300.234 2087.2L225.002 2095.31L234.24 2161.33L309.472 2153.23Z"></path>
<path stroke-miterlimit="10" stroke-width="0.5" stroke-opacity="0.5" stroke="white" d="M318.713 2219.26L309.476 2153.24L234.244 2161.34L243.481 2227.37L318.713 2219.26Z"></path>
<path stroke-miterlimit="10" stroke-width="0.5" stroke-opacity="0.5" stroke="white" d="M235.57 1624.98L226.333 1558.95L151.101 1567.06L160.338 1633.08L235.57 1624.98Z"></path>
<path stroke-miterlimit="10" stroke-width="0.5" stroke-opacity="0.5" stroke="white" d="M244.808 1691L235.57 1624.98L160.338 1633.08L169.576 1699.11L244.808 1691Z"></path>
<path stroke-miterlimit="10" stroke-width="0.5" stroke-opacity="0.5" stroke="white" d="M254.046 1757.04L244.809 1691.02L169.577 1699.12L178.814 1765.15L254.046 1757.04Z"></path>
<path stroke-miterlimit="10" stroke-width="0.5" stroke-opacity="0.5" stroke="white" d="M263.283 1823.07L254.046 1757.04L178.814 1765.15L188.051 1831.18L263.283 1823.07Z"></path>
<path stroke-miterlimit="10" stroke-width="0.5" stroke-opacity="0.5" stroke="white" d="M301.564 1550.84L292.326 1484.82L217.094 1492.92L226.331 1558.95L301.564 1550.84Z"></path>
<path stroke-miterlimit="10" stroke-width="0.5" stroke-opacity="0.5" stroke="white" d="M403.182 2277.18L393.944 2211.16L318.712 2219.26L327.95 2285.29L403.182 2277.18Z"></path>
<path stroke-miterlimit="10" stroke-width="0.5" stroke-opacity="0.5" stroke="white" d="M347.754 1881L338.517 1814.97L263.284 1823.08L272.522 1889.11L347.754 1881Z"></path>
<path stroke-miterlimit="10" stroke-width="0.5" stroke-opacity="0.5" stroke="white" d="M356.993 1947.03L347.756 1881L272.524 1889.11L281.761 1955.13L356.993 1947.03Z"></path>
<path stroke-miterlimit="10" stroke-width="0.5" stroke-opacity="0.5" stroke="white" d="M366.229 2013.05L356.991 1947.03L281.759 1955.13L290.996 2021.16L366.229 2013.05Z"></path>
<path stroke-miterlimit="10" stroke-width="0.5" stroke-opacity="0.5" stroke="white" d="M375.469 2079.09L366.231 2013.07L290.999 2021.17L300.237 2087.2L375.469 2079.09Z"></path>
<path stroke-miterlimit="10" stroke-width="0.5" stroke-opacity="0.5" stroke="white" d="M384.706 2145.12L375.469 2079.09L300.237 2087.2L309.474 2153.23L384.706 2145.12Z"></path>
<path stroke-miterlimit="10" stroke-width="0.5" stroke-opacity="0.5" stroke="white" d="M393.944 2211.16L384.707 2145.13L309.475 2153.24L318.712 2219.27L393.944 2211.16Z"></path>
<path stroke-miterlimit="10" stroke-width="0.5" stroke-opacity="0.5" stroke="white" d="M310.803 1616.87L301.565 1550.84L226.333 1558.95L235.571 1624.98L310.803 1616.87Z"></path>
<path stroke-miterlimit="10" stroke-width="0.5" stroke-opacity="0.5" stroke="white" d="M320.039 1682.9L310.802 1616.87L235.57 1624.98L244.807 1691L320.039 1682.9Z"></path>
<path stroke-miterlimit="10" stroke-width="0.5" stroke-opacity="0.5" stroke="white" d="M329.278 1748.94L320.041 1682.91L244.809 1691.02L254.046 1757.04L329.278 1748.94Z"></path>
<path stroke-miterlimit="10" stroke-width="0.5" stroke-opacity="0.5" stroke="white" d="M338.516 1814.96L329.278 1748.94L254.046 1757.04L263.284 1823.07L338.516 1814.96Z"></path>
<path stroke-miterlimit="10" stroke-width="0.5" stroke-opacity="0.5" stroke="white" d="M376.813 1542.74L367.575 1476.71L292.343 1484.82L301.58 1550.84L376.813 1542.74Z"></path>
<path stroke-miterlimit="10" stroke-width="0.5" stroke-opacity="0.5" stroke="white" d="M478.429 2269.08L469.191 2203.05L393.959 2211.16L403.197 2277.18L478.429 2269.08Z"></path>
<path stroke-miterlimit="10" stroke-width="0.5" stroke-opacity="0.5" stroke="white" d="M423.001 1872.89L413.764 1806.87L338.532 1814.97L347.769 1881L423.001 1872.89Z"></path>
<path stroke-miterlimit="10" stroke-width="0.5" stroke-opacity="0.5" stroke="white" d="M432.24 1938.92L423.003 1872.89L347.771 1881L357.008 1947.03L432.24 1938.92Z"></path>
<path stroke-miterlimit="10" stroke-width="0.5" stroke-opacity="0.5" stroke="white" d="M441.475 2004.95L432.237 1938.92L357.005 1947.03L366.243 2013.05L441.475 2004.95Z"></path>
<path stroke-miterlimit="10" stroke-width="0.5" stroke-opacity="0.5" stroke="white" d="M450.714 2070.98L441.477 2004.96L366.244 2013.06L375.482 2079.09L450.714 2070.98Z"></path>
<path stroke-miterlimit="10" stroke-width="0.5" stroke-opacity="0.5" stroke="white" d="M459.952 2137.01L450.715 2070.98L375.483 2079.09L384.72 2145.12L459.952 2137.01Z"></path>
<path stroke-miterlimit="10" stroke-width="0.5" stroke-opacity="0.5" stroke="white" d="M469.191 2203.05L459.954 2137.02L384.722 2145.13L393.959 2211.16L469.191 2203.05Z"></path>
<path stroke-miterlimit="10" stroke-width="0.5" stroke-opacity="0.5" stroke="white" d="M386.047 1608.76L376.81 1542.73L301.577 1550.84L310.815 1616.87L386.047 1608.76Z"></path>
<path stroke-miterlimit="10" stroke-width="0.5" stroke-opacity="0.5" stroke="white" d="M395.286 1674.79L386.049 1608.76L310.817 1616.87L320.054 1682.89L395.286 1674.79Z"></path>
<path stroke-miterlimit="10" stroke-width="0.5" stroke-opacity="0.5" stroke="white" d="M404.525 1740.83L395.288 1674.8L320.056 1682.91L329.293 1748.93L404.525 1740.83Z"></path>
<path stroke-miterlimit="10" stroke-width="0.5" stroke-opacity="0.5" stroke="white" d="M413.762 1806.85L404.524 1740.83L329.292 1748.93L338.53 1814.96L413.762 1806.85Z"></path>
<path stroke-miterlimit="10" stroke-width="0.5" stroke-opacity="0.5" stroke="white" d="M452.041 1534.63L442.804 1468.6L367.572 1476.71L376.809 1542.73L452.041 1534.63Z"></path>
<path stroke-miterlimit="10" stroke-width="0.5" stroke-opacity="0.5" stroke="white" d="M461.277 1600.65L452.04 1534.63L376.808 1542.73L386.045 1608.76L461.277 1600.65Z"></path>
<path stroke-miterlimit="10" stroke-width="0.5" stroke-opacity="0.5" stroke="white" d="M470.517 1666.68L461.279 1600.65L386.047 1608.76L395.285 1674.79L470.517 1666.68Z"></path>
<path stroke-miterlimit="10" stroke-width="0.5" stroke-opacity="0.5" stroke="white" d="M479.755 1732.72L470.518 1666.69L395.286 1674.8L404.523 1740.83L479.755 1732.72Z"></path>
<path stroke-miterlimit="10" stroke-width="0.5" stroke-opacity="0.5" stroke="white" d="M488.992 1798.75L479.755 1732.72L404.523 1740.83L413.76 1806.85L488.992 1798.75Z"></path>
<path stroke-miterlimit="10" stroke-width="0.5" stroke-opacity="0.5" stroke="white" d="M62.6153 3118.02L53.3779 3051.99L-21.8541 3060.1L-12.6168 3126.13L62.6153 3118.02Z"></path>
<path stroke-miterlimit="10" stroke-width="0.5" stroke-opacity="0.5" stroke="white" d="M7.18753 2721.83L-2.0498 2655.81L-77.2819 2663.92L-68.0445 2729.94L7.18753 2721.83Z"></path>
<path stroke-miterlimit="10" stroke-width="0.5" stroke-opacity="0.5" stroke="white" d="M16.4248 2787.86L7.1875 2721.83L-68.0446 2729.94L-58.8072 2795.97L16.4248 2787.86Z"></path>
<path stroke-miterlimit="10" stroke-width="0.5" stroke-opacity="0.5" stroke="white" d="M25.6621 2853.89L16.4248 2787.86L-58.8073 2795.97L-49.5699 2861.99L25.6621 2853.89Z"></path>
<path stroke-miterlimit="10" stroke-width="0.5" stroke-opacity="0.5" stroke="white" d="M34.9004 2919.93L25.6631 2853.9L-49.569 2862.01L-40.3317 2928.03L34.9004 2919.93Z"></path>
<path stroke-miterlimit="10" stroke-width="0.5" stroke-opacity="0.5" stroke="white" d="M44.1377 2985.95L34.9004 2919.93L-40.3317 2928.03L-31.0944 2994.06L44.1377 2985.95Z"></path>
<path stroke-miterlimit="10" stroke-width="0.5" stroke-opacity="0.5" stroke="white" d="M53.376 3051.99L44.1387 2985.97L-31.0934 2994.07L-21.8561 3060.1L53.376 3051.99Z"></path>
<path stroke-miterlimit="10" stroke-width="0.5" stroke-opacity="0.5" stroke="white" d="M36.2295 2383.57L26.9922 2317.54L-48.2399 2325.65L-39.0026 2391.68L36.2295 2383.57Z"></path>
<path stroke-miterlimit="10" stroke-width="0.5" stroke-opacity="0.5" stroke="white" d="M137.848 3109.91L128.61 3043.88L53.3783 3051.99L62.6156 3118.02L137.848 3109.91Z"></path>
<path stroke-miterlimit="10" stroke-width="0.5" stroke-opacity="0.5" stroke="white" d="M82.42 2713.73L73.1826 2647.7L-2.04946 2655.81L7.18788 2721.83L82.42 2713.73Z"></path>
<path stroke-miterlimit="10" stroke-width="0.5" stroke-opacity="0.5" stroke="white" d="M91.6573 2779.75L82.4199 2713.73L7.18785 2721.83L16.4252 2787.86L91.6573 2779.75Z"></path>
<path stroke-miterlimit="10" stroke-width="0.5" stroke-opacity="0.5" stroke="white" d="M100.895 2845.78L91.6572 2779.75L16.4252 2787.86L25.6625 2853.89L100.895 2845.78Z"></path>
<path stroke-miterlimit="10" stroke-width="0.5" stroke-opacity="0.5" stroke="white" d="M110.135 2911.82L100.897 2845.79L25.6654 2853.9L34.9027 2919.93L110.135 2911.82Z"></path>
<path stroke-miterlimit="10" stroke-width="0.5" stroke-opacity="0.5" stroke="white" d="M119.37 2977.85L110.133 2911.82L34.9007 2919.93L44.1381 2985.95L119.37 2977.85Z"></path>
<path stroke-miterlimit="10" stroke-width="0.5" stroke-opacity="0.5" stroke="white" d="M128.608 3043.88L119.371 2977.86L44.139 2985.96L53.3764 3051.99L128.608 3043.88Z"></path>
<path stroke-miterlimit="10" stroke-width="0.5" stroke-opacity="0.5" stroke="white" d="M45.4668 2449.6L36.2295 2383.57L-39.0026 2391.68L-29.7652 2457.7L45.4668 2449.6Z"></path>
<path stroke-miterlimit="10" stroke-width="0.5" stroke-opacity="0.5" stroke="white" d="M54.7032 2515.62L45.4658 2449.6L-29.7663 2457.7L-20.5289 2523.73L54.7032 2515.62Z"></path>
<path stroke-miterlimit="10" stroke-width="0.5" stroke-opacity="0.5" stroke="white" d="M63.9444 2581.66L54.707 2515.64L-20.525 2523.74L-11.2877 2589.77L63.9444 2581.66Z"></path>
<path stroke-miterlimit="10" stroke-width="0.5" stroke-opacity="0.5" stroke="white" d="M73.1817 2647.69L63.9443 2581.66L-11.2877 2589.77L-2.05041 2655.8L73.1817 2647.69Z"></path>
<path stroke-miterlimit="10" stroke-width="0.5" stroke-opacity="0.5" stroke="white" d="M111.475 2375.46L102.237 2309.44L27.0052 2317.54L36.2426 2383.57L111.475 2375.46Z"></path>
<path stroke-miterlimit="10" stroke-width="0.5" stroke-opacity="0.5" stroke="white" d="M213.091 3101.8L203.854 3035.78L128.621 3043.88L137.859 3109.91L213.091 3101.8Z"></path>
<path stroke-miterlimit="10" stroke-width="0.5" stroke-opacity="0.5" stroke="white" d="M157.665 2705.62L148.428 2639.59L73.1957 2647.7L82.433 2713.73L157.665 2705.62Z"></path>
<path stroke-miterlimit="10" stroke-width="0.5" stroke-opacity="0.5" stroke="white" d="M166.902 2771.65L157.665 2705.62L82.433 2713.73L91.6703 2779.75L166.902 2771.65Z"></path>
<path stroke-miterlimit="10" stroke-width="0.5" stroke-opacity="0.5" stroke="white" d="M176.139 2837.67L166.901 2771.65L91.6693 2779.75L100.907 2845.78L176.139 2837.67Z"></path>
<path stroke-miterlimit="10" stroke-width="0.5" stroke-opacity="0.5" stroke="white" d="M185.378 2903.71L176.141 2837.68L100.909 2845.79L110.146 2911.82L185.378 2903.71Z"></path>
<path stroke-miterlimit="10" stroke-width="0.5" stroke-opacity="0.5" stroke="white" d="M194.615 2969.74L185.378 2903.71L110.146 2911.82L119.383 2977.84L194.615 2969.74Z"></path>
<path stroke-miterlimit="10" stroke-width="0.5" stroke-opacity="0.5" stroke="white" d="M203.855 3035.78L194.618 2969.75L119.386 2977.86L128.623 3043.88L203.855 3035.78Z"></path>
<path stroke-miterlimit="10" stroke-width="0.5" stroke-opacity="0.5" stroke="white" d="M120.712 2441.49L111.475 2375.46L36.2425 2383.57L45.4799 2449.6L120.712 2441.49Z"></path>
<path stroke-miterlimit="10" stroke-width="0.5" stroke-opacity="0.5" stroke="white" d="M129.948 2507.51L120.711 2441.49L45.4789 2449.59L54.7162 2515.62L129.948 2507.51Z"></path>
<path stroke-miterlimit="10" stroke-width="0.5" stroke-opacity="0.5" stroke="white" d="M139.188 2573.55L129.95 2507.53L54.7181 2515.63L63.9555 2581.66L139.188 2573.55Z"></path>
<path stroke-miterlimit="10" stroke-width="0.5" stroke-opacity="0.5" stroke="white" d="M148.426 2639.58L139.188 2573.55L63.9564 2581.66L73.1937 2647.69L148.426 2639.58Z"></path>
<path stroke-miterlimit="10" stroke-width="0.5" stroke-opacity="0.5" stroke="white" d="M186.705 2367.35L177.468 2301.33L102.236 2309.43L111.473 2375.46L186.705 2367.35Z"></path>
<path stroke-miterlimit="10" stroke-width="0.5" stroke-opacity="0.5" stroke="white" d="M288.323 3093.7L279.086 3027.67L203.854 3035.78L213.091 3101.8L288.323 3093.7Z"></path>
<path stroke-miterlimit="10" stroke-width="0.5" stroke-opacity="0.5" stroke="white" d="M232.896 2697.51L223.658 2631.48L148.426 2639.59L157.663 2705.62L232.896 2697.51Z"></path>
<path stroke-miterlimit="10" stroke-width="0.5" stroke-opacity="0.5" stroke="white" d="M242.134 2763.54L232.896 2697.51L157.664 2705.62L166.902 2771.65L242.134 2763.54Z"></path>
<path stroke-miterlimit="10" stroke-width="0.5" stroke-opacity="0.5" stroke="white" d="M251.371 2829.57L242.134 2763.54L166.902 2771.65L176.139 2837.67L251.371 2829.57Z"></path>
<path stroke-miterlimit="10" stroke-width="0.5" stroke-opacity="0.5" stroke="white" d="M260.61 2895.6L251.373 2829.58L176.141 2837.68L185.378 2903.71L260.61 2895.6Z"></path>
<path stroke-miterlimit="10" stroke-width="0.5" stroke-opacity="0.5" stroke="white" d="M269.847 2961.63L260.609 2895.6L185.377 2903.71L194.615 2969.74L269.847 2961.63Z"></path>
<path stroke-miterlimit="10" stroke-width="0.5" stroke-opacity="0.5" stroke="white" d="M279.086 3027.67L269.849 2961.64L194.616 2969.75L203.854 3035.78L279.086 3027.67Z"></path>
<path stroke-miterlimit="10" stroke-width="0.5" stroke-opacity="0.5" stroke="white" d="M195.943 2433.38L186.706 2367.35L111.474 2375.46L120.711 2441.49L195.943 2433.38Z"></path>
<path stroke-miterlimit="10" stroke-width="0.5" stroke-opacity="0.5" stroke="white" d="M205.181 2499.41L195.943 2433.38L120.711 2441.49L129.949 2507.52L205.181 2499.41Z"></path>
<path stroke-miterlimit="10" stroke-width="0.5" stroke-opacity="0.5" stroke="white" d="M214.42 2565.45L205.183 2499.42L129.95 2507.53L139.188 2573.55L214.42 2565.45Z"></path>
<path stroke-miterlimit="10" stroke-width="0.5" stroke-opacity="0.5" stroke="white" d="M223.658 2631.47L214.421 2565.45L139.189 2573.55L148.426 2639.58L223.658 2631.47Z"></path>
<path stroke-miterlimit="10" stroke-width="0.5" stroke-opacity="0.5" stroke="white" d="M261.94 2359.25L252.703 2293.22L177.471 2301.33L186.708 2367.35L261.94 2359.25Z"></path>
<path stroke-miterlimit="10" stroke-width="0.5" stroke-opacity="0.5" stroke="white" d="M363.557 3085.59L354.319 3019.56L279.087 3027.67L288.325 3093.7L363.557 3085.59Z"></path>
<path stroke-miterlimit="10" stroke-width="0.5" stroke-opacity="0.5" stroke="white" d="M308.131 2689.41L298.894 2623.38L223.661 2631.49L232.899 2697.51L308.131 2689.41Z"></path>
<path stroke-miterlimit="10" stroke-width="0.5" stroke-opacity="0.5" stroke="white" d="M317.368 2755.43L308.131 2689.4L232.899 2697.51L242.136 2763.54L317.368 2755.43Z"></path>
<path stroke-miterlimit="10" stroke-width="0.5" stroke-opacity="0.5" stroke="white" d="M326.606 2821.46L317.368 2755.43L242.136 2763.54L251.373 2829.56L326.606 2821.46Z"></path>
<path stroke-miterlimit="10" stroke-width="0.5" stroke-opacity="0.5" stroke="white" d="M335.844 2887.5L326.606 2821.47L251.374 2829.58L260.612 2895.6L335.844 2887.5Z"></path>
<path stroke-miterlimit="10" stroke-width="0.5" stroke-opacity="0.5" stroke="white" d="M345.081 2953.52L335.844 2887.5L260.612 2895.6L269.849 2961.63L345.081 2953.52Z"></path>
<path stroke-miterlimit="10" stroke-width="0.5" stroke-opacity="0.5" stroke="white" d="M354.322 3019.56L345.085 2953.54L269.853 2961.64L279.09 3027.67L354.322 3019.56Z"></path>
<path stroke-miterlimit="10" stroke-width="0.5" stroke-opacity="0.5" stroke="white" d="M271.178 2425.27L261.94 2359.25L186.708 2367.35L195.946 2433.38L271.178 2425.27Z"></path>
<path stroke-miterlimit="10" stroke-width="0.5" stroke-opacity="0.5" stroke="white" d="M280.415 2491.3L271.178 2425.27L195.946 2433.38L205.183 2499.41L280.415 2491.3Z"></path>
<path stroke-miterlimit="10" stroke-width="0.5" stroke-opacity="0.5" stroke="white" d="M289.655 2557.34L280.418 2491.31L205.186 2499.42L214.423 2565.45L289.655 2557.34Z"></path>
<path stroke-miterlimit="10" stroke-width="0.5" stroke-opacity="0.5" stroke="white" d="M298.891 2623.37L289.653 2557.34L214.421 2565.45L223.659 2631.47L298.891 2623.37Z"></path>
<path stroke-miterlimit="10" stroke-width="0.5" stroke-opacity="0.5" stroke="white" d="M337.186 2351.14L327.948 2285.11L252.716 2293.22L261.954 2359.25L337.186 2351.14Z"></path>
<path stroke-miterlimit="10" stroke-width="0.5" stroke-opacity="0.5" stroke="white" d="M438.802 3077.48L429.564 3011.45L354.332 3019.56L363.57 3085.59L438.802 3077.48Z"></path>
<path stroke-miterlimit="10" stroke-width="0.5" stroke-opacity="0.5" stroke="white" d="M383.374 2681.3L374.137 2615.27L298.905 2623.38L308.142 2689.4L383.374 2681.3Z"></path>
<path stroke-miterlimit="10" stroke-width="0.5" stroke-opacity="0.5" stroke="white" d="M392.611 2747.32L383.374 2681.3L308.142 2689.4L317.379 2755.43L392.611 2747.32Z"></path>
<path stroke-miterlimit="10" stroke-width="0.5" stroke-opacity="0.5" stroke="white" d="M401.851 2813.35L392.613 2747.32L317.381 2755.43L326.619 2821.46L401.851 2813.35Z"></path>
<path stroke-miterlimit="10" stroke-width="0.5" stroke-opacity="0.5" stroke="white" d="M411.089 2879.39L401.852 2813.36L326.619 2821.47L335.857 2887.49L411.089 2879.39Z"></path>
<path stroke-miterlimit="10" stroke-width="0.5" stroke-opacity="0.5" stroke="white" d="M420.324 2945.41L411.087 2879.39L335.855 2887.5L345.092 2953.52L420.324 2945.41Z"></path>
<path stroke-miterlimit="10" stroke-width="0.5" stroke-opacity="0.5" stroke="white" d="M429.565 3011.45L420.328 2945.43L345.096 2953.53L354.333 3019.56L429.565 3011.45Z"></path>
<path stroke-miterlimit="10" stroke-width="0.5" stroke-opacity="0.5" stroke="white" d="M346.423 2417.17L337.186 2351.14L261.953 2359.25L271.191 2425.27L346.423 2417.17Z"></path>
<path stroke-miterlimit="10" stroke-width="0.5" stroke-opacity="0.5" stroke="white" d="M355.66 2483.19L346.423 2417.17L271.191 2425.27L280.428 2491.3L355.66 2483.19Z"></path>
<path stroke-miterlimit="10" stroke-width="0.5" stroke-opacity="0.5" stroke="white" d="M364.898 2549.23L355.661 2483.2L280.429 2491.31L289.666 2557.34L364.898 2549.23Z"></path>
<path stroke-miterlimit="10" stroke-width="0.5" stroke-opacity="0.5" stroke="white" d="M374.136 2615.26L364.898 2549.23L289.666 2557.34L298.904 2623.36L374.136 2615.26Z"></path>
<path stroke-miterlimit="10" stroke-width="0.5" stroke-opacity="0.5" stroke="white" d="M412.416 2343.03L403.179 2277.01L327.947 2285.11L337.184 2351.14L412.416 2343.03Z"></path>
<path stroke-miterlimit="10" stroke-width="0.5" stroke-opacity="0.5" stroke="white" d="M458.606 2673.19L449.369 2607.16L374.137 2615.27L383.374 2681.3L458.606 2673.19Z"></path>
<path stroke-miterlimit="10" stroke-width="0.5" stroke-opacity="0.5" stroke="white" d="M467.846 2739.22L458.608 2673.19L383.376 2681.3L392.614 2747.32L467.846 2739.22Z"></path>
<path stroke-miterlimit="10" stroke-width="0.5" stroke-opacity="0.5" stroke="white" d="M477.081 2805.24L467.844 2739.22L392.612 2747.32L401.849 2813.35L477.081 2805.24Z"></path>
<path stroke-miterlimit="10" stroke-width="0.5" stroke-opacity="0.5" stroke="white" d="M486.321 2871.28L477.084 2805.25L401.852 2813.36L411.089 2879.39L486.321 2871.28Z"></path>
<path stroke-miterlimit="10" stroke-width="0.5" stroke-opacity="0.5" stroke="white" d="M421.655 2409.06L412.418 2343.03L337.186 2351.14L346.423 2417.17L421.655 2409.06Z"></path>
<path stroke-miterlimit="10" stroke-width="0.5" stroke-opacity="0.5" stroke="white" d="M430.892 2475.08L421.654 2409.06L346.422 2417.17L355.66 2483.19L430.892 2475.08Z"></path>
<path stroke-miterlimit="10" stroke-width="0.5" stroke-opacity="0.5" stroke="white" d="M440.131 2541.12L430.894 2475.1L355.661 2483.2L364.899 2549.23L440.131 2541.12Z"></path>
<path stroke-miterlimit="10" stroke-width="0.5" stroke-opacity="0.5" stroke="white" d="M449.368 2607.15L440.131 2541.12L364.899 2549.23L374.136 2615.26L449.368 2607.15Z"></path>
<path stroke-miterlimit="10" stroke-width="0.5" stroke-opacity="0.5" stroke="white" d="M487.665 2334.92L478.428 2268.9L403.196 2277L412.433 2343.03L487.665 2334.92Z"></path>
<path stroke-miterlimit="10" stroke-width="0.5" stroke-opacity="0.5" stroke="white" d="M22.9698 3926.61L13.7324 3860.59L-61.4997 3868.69L-52.2623 3934.72L22.9698 3926.61Z"></path>
<path stroke-miterlimit="10" stroke-width="0.5" stroke-opacity="0.5" stroke="white" d="M4.49319 3794.55L-4.74414 3728.52L-79.9762 3736.63L-70.7389 3802.65L4.49319 3794.55Z"></path>
<path stroke-miterlimit="10" stroke-width="0.5" stroke-opacity="0.5" stroke="white" d="M13.7344 3860.59L4.49707 3794.56L-70.735 3802.67L-61.4977 3868.69L13.7344 3860.59Z"></path>
<path stroke-miterlimit="10" stroke-width="0.5" stroke-opacity="0.5" stroke="white" d="M98.2178 3918.5L88.9805 3852.48L13.7484 3860.58L22.9857 3926.61L98.2178 3918.5Z"></path>
<path stroke-miterlimit="10" stroke-width="0.5" stroke-opacity="0.5" stroke="white" d="M42.7901 3522.32L33.5527 3456.29L-41.6793 3464.4L-32.442 3530.43L42.7901 3522.32Z"></path>
<path stroke-miterlimit="10" stroke-width="0.5" stroke-opacity="0.5" stroke="white" d="M52.0274 3588.35L42.79 3522.32L-32.442 3530.43L-23.2047 3596.45L52.0274 3588.35Z"></path>
<path stroke-miterlimit="10" stroke-width="0.5" stroke-opacity="0.5" stroke="white" d="M61.2647 3654.37L52.0273 3588.35L-23.2047 3596.45L-13.9674 3662.48L61.2647 3654.37Z"></path>
<path stroke-miterlimit="10" stroke-width="0.5" stroke-opacity="0.5" stroke="white" d="M70.503 3720.41L61.2656 3654.39L-13.9665 3662.49L-4.72911 3728.52L70.503 3720.41Z"></path>
<path stroke-miterlimit="10" stroke-width="0.5" stroke-opacity="0.5" stroke="white" d="M79.7403 3786.44L70.5029 3720.41L-4.72915 3728.52L4.50819 3794.55L79.7403 3786.44Z"></path>
<path stroke-miterlimit="10" stroke-width="0.5" stroke-opacity="0.5" stroke="white" d="M88.9785 3852.48L79.7412 3786.45L4.50913 3794.56L13.7465 3860.58L88.9785 3852.48Z"></path>
<path stroke-miterlimit="10" stroke-width="0.5" stroke-opacity="0.5" stroke="white" d="M5.83695 3258.19L-3.40039 3192.16L-78.6325 3200.27L-69.3951 3266.3L5.83695 3258.19Z"></path>
<path stroke-miterlimit="10" stroke-width="0.5" stroke-opacity="0.5" stroke="white" d="M15.0743 3324.22L5.83691 3258.19L-69.3952 3266.3L-60.1578 3332.32L15.0743 3324.22Z"></path>
<path stroke-miterlimit="10" stroke-width="0.5" stroke-opacity="0.5" stroke="white" d="M24.3125 3390.26L15.0752 3324.23L-60.1569 3332.34L-50.9195 3398.36L24.3125 3390.26Z"></path>
<path stroke-miterlimit="10" stroke-width="0.5" stroke-opacity="0.5" stroke="white" d="M33.5518 3456.28L24.3145 3390.25L-50.9176 3398.36L-41.6803 3464.39L33.5518 3456.28Z"></path>
<path stroke-miterlimit="10" stroke-width="0.5" stroke-opacity="0.5" stroke="white" d="M71.8321 3184.06L62.5947 3118.03L-12.6373 3126.14L-3.40001 3192.16L71.8321 3184.06Z"></path>
<path stroke-miterlimit="10" stroke-width="0.5" stroke-opacity="0.5" stroke="white" d="M173.45 3910.4L164.213 3844.37L88.9808 3852.48L98.2182 3918.5L173.45 3910.4Z"></path>
<path stroke-miterlimit="10" stroke-width="0.5" stroke-opacity="0.5" stroke="white" d="M118.022 3514.21L108.785 3448.19L33.5531 3456.29L42.7904 3522.32L118.022 3514.21Z"></path>
<path stroke-miterlimit="10" stroke-width="0.5" stroke-opacity="0.5" stroke="white" d="M127.26 3580.24L118.022 3514.21L42.7904 3522.32L52.0277 3588.35L127.26 3580.24Z"></path>
<path stroke-miterlimit="10" stroke-width="0.5" stroke-opacity="0.5" stroke="white" d="M136.497 3646.27L127.26 3580.24L52.0277 3588.35L61.265 3654.37L136.497 3646.27Z"></path>
<path stroke-miterlimit="10" stroke-width="0.5" stroke-opacity="0.5" stroke="white" d="M145.737 3712.3L136.5 3646.28L61.2679 3654.39L70.5053 3720.41L145.737 3712.3Z"></path>
<path stroke-miterlimit="10" stroke-width="0.5" stroke-opacity="0.5" stroke="white" d="M154.973 3778.33L145.735 3712.3L70.5033 3720.41L79.7406 3786.44L154.973 3778.33Z"></path>
<path stroke-miterlimit="10" stroke-width="0.5" stroke-opacity="0.5" stroke="white" d="M164.211 3844.37L154.974 3778.34L79.7416 3786.45L88.9789 3852.48L164.211 3844.37Z"></path>
<path stroke-miterlimit="10" stroke-width="0.5" stroke-opacity="0.5" stroke="white" d="M81.0694 3250.08L71.832 3184.06L-3.40005 3192.16L5.83729 3258.19L81.0694 3250.08Z"></path>
<path stroke-miterlimit="10" stroke-width="0.5" stroke-opacity="0.5" stroke="white" d="M90.3057 3316.11L81.0684 3250.08L5.83628 3258.19L15.0736 3324.22L90.3057 3316.11Z"></path>
<path stroke-miterlimit="10" stroke-width="0.5" stroke-opacity="0.5" stroke="white" d="M99.5469 3382.15L90.3096 3316.12L15.0775 3324.23L24.3148 3390.26L99.5469 3382.15Z"></path>
<path stroke-miterlimit="10" stroke-width="0.5" stroke-opacity="0.5" stroke="white" d="M108.784 3448.17L99.5469 3382.15L24.3148 3390.25L33.5521 3456.28L108.784 3448.17Z"></path>
<path stroke-miterlimit="10" stroke-width="0.5" stroke-opacity="0.5" stroke="white" d="M147.077 3175.95L137.84 3109.92L62.6078 3118.03L71.8451 3184.06L147.077 3175.95Z"></path>
<path stroke-miterlimit="10" stroke-width="0.5" stroke-opacity="0.5" stroke="white" d="M248.693 3902.29L239.456 3836.26L164.224 3844.37L173.461 3910.4L248.693 3902.29Z"></path>
<path stroke-miterlimit="10" stroke-width="0.5" stroke-opacity="0.5" stroke="white" d="M193.268 3506.1L184.03 3440.08L108.798 3448.19L118.036 3514.21L193.268 3506.1Z"></path>
<path stroke-miterlimit="10" stroke-width="0.5" stroke-opacity="0.5" stroke="white" d="M202.505 3572.13L193.268 3506.1L118.036 3514.21L127.273 3580.24L202.505 3572.13Z"></path>
<path stroke-miterlimit="10" stroke-width="0.5" stroke-opacity="0.5" stroke="white" d="M211.741 3638.16L202.504 3572.13L127.272 3580.24L136.509 3646.26L211.741 3638.16Z"></path>
<path stroke-miterlimit="10" stroke-width="0.5" stroke-opacity="0.5" stroke="white" d="M220.981 3704.2L211.743 3638.17L136.511 3646.28L145.748 3712.3L220.981 3704.2Z"></path>
<path stroke-miterlimit="10" stroke-width="0.5" stroke-opacity="0.5" stroke="white" d="M230.218 3770.22L220.98 3704.2L145.748 3712.3L154.986 3778.33L230.218 3770.22Z"></path>
<path stroke-miterlimit="10" stroke-width="0.5" stroke-opacity="0.5" stroke="white" d="M239.458 3836.26L230.221 3770.24L154.989 3778.34L164.226 3844.37L239.458 3836.26Z"></path>
<path stroke-miterlimit="10" stroke-width="0.5" stroke-opacity="0.5" stroke="white" d="M156.314 3241.97L147.077 3175.95L71.8451 3184.05L81.0824 3250.08L156.314 3241.97Z"></path>
<path stroke-miterlimit="10" stroke-width="0.5" stroke-opacity="0.5" stroke="white" d="M165.551 3308L156.313 3241.97L81.0814 3250.08L90.3187 3316.11L165.551 3308Z"></path>
<path stroke-miterlimit="10" stroke-width="0.5" stroke-opacity="0.5" stroke="white" d="M174.79 3374.04L165.553 3308.01L90.3207 3316.12L99.558 3382.15L174.79 3374.04Z"></path>
<path stroke-miterlimit="10" stroke-width="0.5" stroke-opacity="0.5" stroke="white" d="M184.028 3440.07L174.791 3374.04L99.5589 3382.15L108.796 3448.17L184.028 3440.07Z"></path>
<path stroke-miterlimit="10" stroke-width="0.5" stroke-opacity="0.5" stroke="white" d="M222.308 3167.84L213.07 3101.81L137.838 3109.92L147.075 3175.95L222.308 3167.84Z"></path>
<path stroke-miterlimit="10" stroke-width="0.5" stroke-opacity="0.5" stroke="white" d="M323.926 3894.18L314.688 3828.16L239.456 3836.26L248.694 3902.29L323.926 3894.18Z"></path>
<path stroke-miterlimit="10" stroke-width="0.5" stroke-opacity="0.5" stroke="white" d="M268.498 3498L259.261 3431.97L184.029 3440.08L193.266 3506.1L268.498 3498Z"></path>
<path stroke-miterlimit="10" stroke-width="0.5" stroke-opacity="0.5" stroke="white" d="M277.736 3564.02L268.499 3498L193.267 3506.11L202.504 3572.13L277.736 3564.02Z"></path>
<path stroke-miterlimit="10" stroke-width="0.5" stroke-opacity="0.5" stroke="white" d="M286.974 3630.05L277.736 3564.02L202.504 3572.13L211.742 3638.16L286.974 3630.05Z"></path>
<path stroke-miterlimit="10" stroke-width="0.5" stroke-opacity="0.5" stroke="white" d="M296.213 3696.09L286.976 3630.06L211.743 3638.17L220.981 3704.2L296.213 3696.09Z"></path>
<path stroke-miterlimit="10" stroke-width="0.5" stroke-opacity="0.5" stroke="white" d="M305.449 3762.12L296.212 3696.09L220.98 3704.2L230.217 3770.22L305.449 3762.12Z"></path>
<path stroke-miterlimit="10" stroke-width="0.5" stroke-opacity="0.5" stroke="white" d="M314.689 3828.15L305.451 3762.13L230.219 3770.23L239.456 3836.26L314.689 3828.15Z"></path>
<path stroke-miterlimit="10" stroke-width="0.5" stroke-opacity="0.5" stroke="white" d="M231.546 3233.87L222.309 3167.84L147.076 3175.95L156.314 3241.97L231.546 3233.87Z"></path>
<path stroke-miterlimit="10" stroke-width="0.5" stroke-opacity="0.5" stroke="white" d="M240.783 3299.89L231.546 3233.87L156.314 3241.97L165.551 3308L240.783 3299.89Z"></path>
<path stroke-miterlimit="10" stroke-width="0.5" stroke-opacity="0.5" stroke="white" d="M250.022 3365.93L240.785 3299.91L165.553 3308.01L174.79 3374.04L250.022 3365.93Z"></path>
<path stroke-miterlimit="10" stroke-width="0.5" stroke-opacity="0.5" stroke="white" d="M259.261 3431.96L250.023 3365.93L174.791 3374.04L184.029 3440.07L259.261 3431.96Z"></path>
<path stroke-miterlimit="10" stroke-width="0.5" stroke-opacity="0.5" stroke="white" d="M297.543 3159.73L288.306 3093.71L213.074 3101.81L222.311 3167.84L297.543 3159.73Z"></path>
<path stroke-miterlimit="10" stroke-width="0.5" stroke-opacity="0.5" stroke="white" d="M399.159 3886.07L389.922 3820.05L314.69 3828.15L323.927 3894.18L399.159 3886.07Z"></path>
<path stroke-miterlimit="10" stroke-width="0.5" stroke-opacity="0.5" stroke="white" d="M343.733 3489.89L334.496 3423.86L259.264 3431.97L268.501 3498L343.733 3489.89Z"></path>
<path stroke-miterlimit="10" stroke-width="0.5" stroke-opacity="0.5" stroke="white" d="M352.971 3555.92L343.733 3489.89L268.501 3498L277.739 3564.02L352.971 3555.92Z"></path>
<path stroke-miterlimit="10" stroke-width="0.5" stroke-opacity="0.5" stroke="white" d="M362.208 3621.94L352.971 3555.92L277.739 3564.02L286.976 3630.05L362.208 3621.94Z"></path>
<path stroke-miterlimit="10" stroke-width="0.5" stroke-opacity="0.5" stroke="white" d="M371.446 3687.98L362.209 3621.96L286.977 3630.06L296.214 3696.09L371.446 3687.98Z"></path>
<path stroke-miterlimit="10" stroke-width="0.5" stroke-opacity="0.5" stroke="white" d="M380.684 3754.01L371.446 3687.98L296.214 3696.09L305.452 3762.12L380.684 3754.01Z"></path>
<path stroke-miterlimit="10" stroke-width="0.5" stroke-opacity="0.5" stroke="white" d="M389.925 3820.05L380.688 3754.02L305.455 3762.13L314.693 3828.16L389.925 3820.05Z"></path>
<path stroke-miterlimit="10" stroke-width="0.5" stroke-opacity="0.5" stroke="white" d="M306.78 3225.76L297.543 3159.73L222.311 3167.84L231.548 3233.87L306.78 3225.76Z"></path>
<path stroke-miterlimit="10" stroke-width="0.5" stroke-opacity="0.5" stroke="white" d="M316.018 3291.79L306.78 3225.76L231.548 3233.87L240.786 3299.89L316.018 3291.79Z"></path>
<path stroke-miterlimit="10" stroke-width="0.5" stroke-opacity="0.5" stroke="white" d="M325.258 3357.83L316.021 3291.8L240.788 3299.91L250.026 3365.93L325.258 3357.83Z"></path>
<path stroke-miterlimit="10" stroke-width="0.5" stroke-opacity="0.5" stroke="white" d="M334.493 3423.85L325.256 3357.83L250.024 3365.93L259.261 3431.96L334.493 3423.85Z"></path>
<path stroke-miterlimit="10" stroke-width="0.5" stroke-opacity="0.5" stroke="white" d="M372.788 3151.63L363.551 3085.6L288.319 3093.71L297.556 3159.73L372.788 3151.63Z"></path>
<path stroke-miterlimit="10" stroke-width="0.5" stroke-opacity="0.5" stroke="white" d="M474.404 3877.97L465.167 3811.94L389.935 3820.05L399.172 3886.07L474.404 3877.97Z"></path>
<path stroke-miterlimit="10" stroke-width="0.5" stroke-opacity="0.5" stroke="white" d="M418.977 3481.78L409.739 3415.76L334.507 3423.86L343.745 3489.89L418.977 3481.78Z"></path>
<path stroke-miterlimit="10" stroke-width="0.5" stroke-opacity="0.5" stroke="white" d="M428.214 3547.81L418.977 3481.78L343.744 3489.89L352.982 3555.92L428.214 3547.81Z"></path>
<path stroke-miterlimit="10" stroke-width="0.5" stroke-opacity="0.5" stroke="white" d="M437.453 3613.84L428.216 3547.81L352.984 3555.92L362.221 3621.94L437.453 3613.84Z"></path>
<path stroke-miterlimit="10" stroke-width="0.5" stroke-opacity="0.5" stroke="white" d="M446.691 3679.87L437.454 3613.85L362.222 3621.95L371.459 3687.98L446.691 3679.87Z"></path>
<path stroke-miterlimit="10" stroke-width="0.5" stroke-opacity="0.5" stroke="white" d="M455.927 3745.9L446.689 3679.87L371.457 3687.98L380.695 3754.01L455.927 3745.9Z"></path>
<path stroke-miterlimit="10" stroke-width="0.5" stroke-opacity="0.5" stroke="white" d="M465.168 3811.94L455.931 3745.91L380.699 3754.02L389.936 3820.05L465.168 3811.94Z"></path>
<path stroke-miterlimit="10" stroke-width="0.5" stroke-opacity="0.5" stroke="white" d="M382.025 3217.65L372.788 3151.63L297.556 3159.73L306.793 3225.76L382.025 3217.65Z"></path>
<path stroke-miterlimit="10" stroke-width="0.5" stroke-opacity="0.5" stroke="white" d="M391.263 3283.68L382.025 3217.65L306.793 3225.76L316.031 3291.79L391.263 3283.68Z"></path>
<path stroke-miterlimit="10" stroke-width="0.5" stroke-opacity="0.5" stroke="white" d="M400.501 3349.72L391.264 3283.69L316.032 3291.8L325.269 3357.82L400.501 3349.72Z"></path>
<path stroke-miterlimit="10" stroke-width="0.5" stroke-opacity="0.5" stroke="white" d="M409.738 3415.74L400.501 3349.72L325.269 3357.82L334.506 3423.85L409.738 3415.74Z"></path>
<path stroke-miterlimit="10" stroke-width="0.5" stroke-opacity="0.5" stroke="white" d="M448.019 3143.52L438.781 3077.49L363.549 3085.6L372.786 3151.63L448.019 3143.52Z"></path>
<path stroke-miterlimit="10" stroke-width="0.5" stroke-opacity="0.5" stroke="white" d="M494.209 3473.68L484.972 3407.65L409.74 3415.76L418.977 3481.78L494.209 3473.68Z"></path>
<path stroke-miterlimit="10" stroke-width="0.5" stroke-opacity="0.5" stroke="white" d="M457.258 3209.54L448.021 3143.52L372.788 3151.63L382.026 3217.65L457.258 3209.54Z"></path>
<path stroke-miterlimit="10" stroke-width="0.5" stroke-opacity="0.5" stroke="white" d="M466.494 3275.57L457.257 3209.54L382.025 3217.65L391.262 3283.68L466.494 3275.57Z"></path>
<path stroke-miterlimit="10" stroke-width="0.5" stroke-opacity="0.5" stroke="white" d="M475.733 3341.61L466.496 3275.58L391.264 3283.69L400.501 3349.72L475.733 3341.61Z"></path>
<path stroke-miterlimit="10" stroke-width="0.5" stroke-opacity="0.5" stroke="white" d="M484.971 3407.64L475.733 3341.61L400.501 3349.72L409.739 3415.74L484.971 3407.64Z"></path>
<path stroke-miterlimit="10" stroke-width="0.5" stroke-opacity="0.5" stroke="white" d="M3.25882 4330.93L-5.97852 4264.91L-81.2106 4273.01L-71.9733 4339.04L3.25882 4330.93Z"></path>
<path stroke-miterlimit="10" stroke-width="0.5" stroke-opacity="0.5" stroke="white" d="M12.4951 4396.96L3.25781 4330.93L-71.9743 4339.04L-62.7369 4405.07L12.4951 4396.96Z"></path>
<path stroke-miterlimit="10" stroke-width="0.5" stroke-opacity="0.5" stroke="white" d="M21.7325 4462.99L12.4951 4396.96L-62.737 4405.07L-53.4996 4471.09L21.7325 4462.99Z"></path>
<path stroke-miterlimit="10" stroke-width="0.5" stroke-opacity="0.5" stroke="white" d="M30.9717 4529.02L21.7344 4463L-53.4977 4471.11L-44.2604 4537.13L30.9717 4529.02Z"></path>
<path stroke-miterlimit="10" stroke-width="0.5" stroke-opacity="0.5" stroke="white" d="M32.3145 3992.67L23.0771 3926.64L-52.1549 3934.75L-42.9176 4000.77L32.3145 3992.67Z"></path>
<path stroke-miterlimit="10" stroke-width="0.5" stroke-opacity="0.5" stroke="white" d="M78.5049 4322.82L69.2676 4256.8L-5.9645 4264.9L3.27284 4330.93L78.5049 4322.82Z"></path>
<path stroke-miterlimit="10" stroke-width="0.5" stroke-opacity="0.5" stroke="white" d="M87.7422 4388.85L78.5049 4322.82L3.27281 4330.93L12.5101 4396.96L87.7422 4388.85Z"></path>
<path stroke-miterlimit="10" stroke-width="0.5" stroke-opacity="0.5" stroke="white" d="M96.9795 4454.88L87.7422 4388.85L12.5101 4396.96L21.7474 4462.98L96.9795 4454.88Z"></path>
<path stroke-miterlimit="10" stroke-width="0.5" stroke-opacity="0.5" stroke="white" d="M106.218 4520.92L96.9805 4454.89L21.7484 4463L30.9857 4529.02L106.218 4520.92Z"></path>
<path stroke-miterlimit="10" stroke-width="0.5" stroke-opacity="0.5" stroke="white" d="M41.5518 4058.69L32.3145 3992.67L-42.9176 4000.77L-33.6803 4066.8L41.5518 4058.69Z"></path>
<path stroke-miterlimit="10" stroke-width="0.5" stroke-opacity="0.5" stroke="white" d="M50.7891 4124.72L41.5518 4058.69L-33.6803 4066.8L-24.443 4132.83L50.7891 4124.72Z"></path>
<path stroke-miterlimit="10" stroke-width="0.5" stroke-opacity="0.5" stroke="white" d="M60.0274 4190.76L50.79 4124.73L-24.442 4132.84L-15.2047 4198.87L60.0274 4190.76Z"></path>
<path stroke-miterlimit="10" stroke-width="0.5" stroke-opacity="0.5" stroke="white" d="M69.2666 4256.79L60.0293 4190.76L-15.2028 4198.87L-5.96545 4264.89L69.2666 4256.79Z"></path>
<path stroke-miterlimit="10" stroke-width="0.5" stroke-opacity="0.5" stroke="white" d="M107.547 3984.56L98.3096 3918.53L23.0775 3926.64L32.3148 3992.67L107.547 3984.56Z"></path>
<path stroke-miterlimit="10" stroke-width="0.5" stroke-opacity="0.5" stroke="white" d="M153.737 4314.72L144.5 4248.69L69.2679 4256.8L78.5053 4322.82L153.737 4314.72Z"></path>
<path stroke-miterlimit="10" stroke-width="0.5" stroke-opacity="0.5" stroke="white" d="M162.975 4380.74L153.737 4314.72L78.5052 4322.82L87.7426 4388.85L162.975 4380.74Z"></path>
<path stroke-miterlimit="10" stroke-width="0.5" stroke-opacity="0.5" stroke="white" d="M172.212 4446.77L162.975 4380.74L87.7425 4388.85L96.9799 4454.88L172.212 4446.77Z"></path>
<path stroke-miterlimit="10" stroke-width="0.5" stroke-opacity="0.5" stroke="white" d="M181.452 4512.81L172.215 4446.78L96.9828 4454.89L106.22 4520.92L181.452 4512.81Z"></path>
<path stroke-miterlimit="10" stroke-width="0.5" stroke-opacity="0.5" stroke="white" d="M116.784 4050.59L107.547 3984.56L32.3148 3992.67L41.5521 4058.69L116.784 4050.59Z"></path>
<path stroke-miterlimit="10" stroke-width="0.5" stroke-opacity="0.5" stroke="white" d="M126.021 4116.61L116.783 4050.59L41.5511 4058.69L50.7885 4124.72L126.021 4116.61Z"></path>
<path stroke-miterlimit="10" stroke-width="0.5" stroke-opacity="0.5" stroke="white" d="M135.262 4182.65L126.024 4116.62L50.7923 4124.73L60.0297 4190.76L135.262 4182.65Z"></path>
<path stroke-miterlimit="10" stroke-width="0.5" stroke-opacity="0.5" stroke="white" d="M144.499 4248.68L135.262 4182.65L60.0296 4190.76L69.267 4256.79L144.499 4248.68Z"></path>
<path stroke-miterlimit="10" stroke-width="0.5" stroke-opacity="0.5" stroke="white" d="M182.792 3976.45L173.555 3910.42L98.3226 3918.53L107.56 3984.56L182.792 3976.45Z"></path>
<path stroke-miterlimit="10" stroke-width="0.5" stroke-opacity="0.5" stroke="white" d="M228.982 4306.61L219.745 4240.58L144.513 4248.69L153.75 4314.72L228.982 4306.61Z"></path>
<path stroke-miterlimit="10" stroke-width="0.5" stroke-opacity="0.5" stroke="white" d="M238.22 4372.64L228.982 4306.61L153.75 4314.72L162.988 4380.74L238.22 4372.64Z"></path>
<path stroke-miterlimit="10" stroke-width="0.5" stroke-opacity="0.5" stroke="white" d="M247.456 4438.66L238.219 4372.63L162.987 4380.74L172.224 4446.77L247.456 4438.66Z"></path>
<path stroke-miterlimit="10" stroke-width="0.5" stroke-opacity="0.5" stroke="white" d="M256.695 4504.7L247.458 4438.67L172.226 4446.78L181.463 4512.81L256.695 4504.7Z"></path>
<path stroke-miterlimit="10" stroke-width="0.5" stroke-opacity="0.5" stroke="white" d="M192.029 4042.48L182.792 3976.45L107.56 3984.56L116.797 4050.58L192.029 4042.48Z"></path>
<path stroke-miterlimit="10" stroke-width="0.5" stroke-opacity="0.5" stroke="white" d="M201.266 4108.5L192.028 4042.48L116.796 4050.58L126.034 4116.61L201.266 4108.5Z"></path>
<path stroke-miterlimit="10" stroke-width="0.5" stroke-opacity="0.5" stroke="white" d="M210.505 4174.54L201.268 4108.52L126.036 4116.62L135.273 4182.65L210.505 4174.54Z"></path>
<path stroke-miterlimit="10" stroke-width="0.5" stroke-opacity="0.5" stroke="white" d="M219.743 4240.57L210.506 4174.54L135.274 4182.65L144.511 4248.68L219.743 4240.57Z"></path>
<path stroke-miterlimit="10" stroke-width="0.5" stroke-opacity="0.5" stroke="white" d="M258.022 3968.34L248.785 3902.32L173.553 3910.42L182.79 3976.45L258.022 3968.34Z"></path>
<path stroke-miterlimit="10" stroke-width="0.5" stroke-opacity="0.5" stroke="white" d="M304.213 4298.5L294.976 4232.47L219.743 4240.58L228.981 4306.61L304.213 4298.5Z"></path>
<path stroke-miterlimit="10" stroke-width="0.5" stroke-opacity="0.5" stroke="white" d="M313.451 4364.53L304.214 4298.5L228.982 4306.61L238.219 4372.64L313.451 4364.53Z"></path>
<path stroke-miterlimit="10" stroke-width="0.5" stroke-opacity="0.5" stroke="white" d="M322.689 4430.55L313.451 4364.53L238.219 4372.64L247.456 4438.66L322.689 4430.55Z"></path>
<path stroke-miterlimit="10" stroke-width="0.5" stroke-opacity="0.5" stroke="white" d="M331.928 4496.59L322.69 4430.57L247.458 4438.67L256.696 4504.7L331.928 4496.59Z"></path>
<path stroke-miterlimit="10" stroke-width="0.5" stroke-opacity="0.5" stroke="white" d="M341.164 4562.62L331.927 4496.59L256.695 4504.7L265.932 4570.73L341.164 4562.62Z"></path>
<path stroke-miterlimit="10" stroke-width="0.5" stroke-opacity="0.5" stroke="white" d="M267.261 4034.37L258.023 3968.34L182.791 3976.45L192.029 4042.48L267.261 4034.37Z"></path>
<path stroke-miterlimit="10" stroke-width="0.5" stroke-opacity="0.5" stroke="white" d="M276.498 4100.4L267.261 4034.37L192.029 4042.48L201.266 4108.5L276.498 4100.4Z"></path>
<path stroke-miterlimit="10" stroke-width="0.5" stroke-opacity="0.5" stroke="white" d="M285.737 4166.44L276.5 4100.41L201.268 4108.52L210.505 4174.54L285.737 4166.44Z"></path>
<path stroke-miterlimit="10" stroke-width="0.5" stroke-opacity="0.5" stroke="white" d="M294.976 4232.46L285.738 4166.44L210.506 4174.54L219.743 4240.57L294.976 4232.46Z"></path>
<path stroke-miterlimit="10" stroke-width="0.5" stroke-opacity="0.5" stroke="white" d="M333.258 3960.24L324.021 3894.21L248.788 3902.32L258.026 3968.34L333.258 3960.24Z"></path>
<path stroke-miterlimit="10" stroke-width="0.5" stroke-opacity="0.5" stroke="white" d="M379.448 4290.39L370.211 4224.37L294.979 4232.48L304.216 4298.5L379.448 4290.39Z"></path>
<path stroke-miterlimit="10" stroke-width="0.5" stroke-opacity="0.5" stroke="white" d="M388.686 4356.42L379.448 4290.39L304.216 4298.5L313.453 4364.53L388.686 4356.42Z"></path>
<path stroke-miterlimit="10" stroke-width="0.5" stroke-opacity="0.5" stroke="white" d="M397.923 4422.45L388.686 4356.42L313.453 4364.53L322.691 4430.55L397.923 4422.45Z"></path>
<path stroke-miterlimit="10" stroke-width="0.5" stroke-opacity="0.5" stroke="white" d="M407.161 4488.49L397.924 4422.46L322.692 4430.57L331.929 4496.59L407.161 4488.49Z"></path>
<path stroke-miterlimit="10" stroke-width="0.5" stroke-opacity="0.5" stroke="white" d="M416.398 4554.51L407.161 4488.49L331.929 4496.59L341.166 4562.62L416.398 4554.51Z"></path>
<path stroke-miterlimit="10" stroke-width="0.5" stroke-opacity="0.5" stroke="white" d="M342.495 4026.26L333.258 3960.24L258.026 3968.34L267.263 4034.37L342.495 4026.26Z"></path>
<path stroke-miterlimit="10" stroke-width="0.5" stroke-opacity="0.5" stroke="white" d="M351.732 4092.29L342.495 4026.26L267.263 4034.37L276.5 4100.4L351.732 4092.29Z"></path>
<path stroke-miterlimit="10" stroke-width="0.5" stroke-opacity="0.5" stroke="white" d="M360.973 4158.33L351.735 4092.3L276.503 4100.41L285.741 4166.44L360.973 4158.33Z"></path>
<path stroke-miterlimit="10" stroke-width="0.5" stroke-opacity="0.5" stroke="white" d="M370.208 4224.36L360.971 4158.33L285.739 4166.44L294.976 4232.46L370.208 4224.36Z"></path>
<path stroke-miterlimit="10" stroke-width="0.5" stroke-opacity="0.5" stroke="white" d="M408.503 3952.13L399.266 3886.1L324.034 3894.21L333.271 3960.24L408.503 3952.13Z"></path>
<path stroke-miterlimit="10" stroke-width="0.5" stroke-opacity="0.5" stroke="white" d="M454.691 4282.29L445.454 4216.26L370.222 4224.37L379.459 4290.39L454.691 4282.29Z"></path>
<path stroke-miterlimit="10" stroke-width="0.5" stroke-opacity="0.5" stroke="white" d="M463.929 4348.31L454.691 4282.29L379.459 4290.39L388.697 4356.42L463.929 4348.31Z"></path>
<path stroke-miterlimit="10" stroke-width="0.5" stroke-opacity="0.5" stroke="white" d="M473.168 4414.34L463.931 4348.31L388.699 4356.42L397.936 4422.45L473.168 4414.34Z"></path>
<path stroke-miterlimit="10" stroke-width="0.5" stroke-opacity="0.5" stroke="white" d="M482.406 4480.38L473.169 4414.35L397.937 4422.46L407.174 4488.48L482.406 4480.38Z"></path>
<path stroke-miterlimit="10" stroke-width="0.5" stroke-opacity="0.5" stroke="white" d="M491.642 4546.4L482.404 4480.38L407.172 4488.48L416.41 4554.51L491.642 4546.4Z"></path>
<path stroke-miterlimit="10" stroke-width="0.5" stroke-opacity="0.5" stroke="white" d="M417.74 4018.16L408.503 3952.13L333.271 3960.24L342.508 4026.26L417.74 4018.16Z"></path>
<path stroke-miterlimit="10" stroke-width="0.5" stroke-opacity="0.5" stroke="white" d="M426.978 4084.18L417.74 4018.16L342.508 4026.26L351.745 4092.29L426.978 4084.18Z"></path>
<path stroke-miterlimit="10" stroke-width="0.5" stroke-opacity="0.5" stroke="white" d="M436.216 4150.22L426.979 4084.19L351.746 4092.3L360.984 4158.33L436.216 4150.22Z"></path>
<path stroke-miterlimit="10" stroke-width="0.5" stroke-opacity="0.5" stroke="white" d="M445.453 4216.25L436.216 4150.22L360.984 4158.33L370.221 4224.35L445.453 4216.25Z"></path>
<path stroke-miterlimit="10" stroke-width="0.5" stroke-opacity="0.5" stroke="white" d="M483.733 3944.02L474.496 3878L399.264 3886.1L408.501 3952.13L483.733 3944.02Z"></path>
<path stroke-miterlimit="10" stroke-width="0.5" stroke-opacity="0.5" stroke="white" d="M492.973 4010.05L483.735 3944.02L408.503 3952.13L417.741 4018.16L492.973 4010.05Z"></path>
</g>
</svg>
