<svg xmlns="http://www.w3.org/2000/svg" fill="none" viewBox="0 0 104 94" height="94" width="104">
<path fill="#0035D3" d="M6.02502 36.1699H66.3517C67.376 36.1699 68.208 37.002 68.208 38.0262V82.8266H4.16876V38.0262C4.16876 37.002 5.00082 36.1699 6.02502 36.1699Z"></path>
<path fill="#0035D3" d="M103.638 82.8264H70.0189V44.2817H90.978L103.638 63.5532V82.8264Z"></path>
<path fill="black" d="M86.8285 92.9435C81.2507 92.9435 76.7115 88.4043 76.7115 82.8265C76.7115 77.2486 81.2507 72.7095 86.8285 72.7095C92.4064 72.7095 96.9455 77.2486 96.9455 82.8265C96.9455 88.4043 92.4064 92.9435 86.8285 92.9435Z"></path>
<path fill="white" d="M86.8285 73.7047C91.8662 73.7047 95.9485 77.7871 95.9485 82.8247C95.9485 87.8624 91.8662 91.9447 86.8285 91.9447C81.7909 91.9447 77.7086 87.8624 77.7086 82.8247C77.7086 77.7871 81.7909 73.7047 86.8285 73.7047ZM86.8285 71.7107C80.6996 71.7107 75.7145 76.6958 75.7145 82.8247C75.7145 88.9536 80.6996 93.9387 86.8285 93.9387C92.9575 93.9387 97.9426 88.9536 97.9426 82.8247C97.9426 76.6958 92.9575 71.7107 86.8285 71.7107Z"></path>
<path fill="#FF0006" d="M66.8427 26.3924L30.9409 15.9619L24.2626 38.9489L60.1644 49.3793L66.8427 26.3924Z"></path>
<path fill="black" d="M45.3764 41.4632C49.8896 41.4632 53.5483 37.8045 53.5483 33.2913C53.5483 28.7781 49.8896 25.1194 45.3764 25.1194C40.8632 25.1194 37.2045 28.7781 37.2045 33.2913C37.2045 37.8045 40.8632 41.4632 45.3764 41.4632Z"></path>
<path fill="white" d="M42.9074 41.7896C38.2214 40.4282 35.5168 35.5084 36.8763 30.8224C38.2377 26.1365 43.1575 23.43 47.8435 24.7914C52.5295 26.1528 55.2359 31.0726 53.8745 35.7586C52.5132 40.4445 47.5933 43.1492 42.9074 41.7896ZM47.4646 26.0966C43.4965 24.9437 39.3326 27.235 38.1797 31.2013C37.0268 35.1694 39.3181 39.3333 43.2844 40.4862C47.2507 41.6392 51.4164 39.3478 52.5694 35.3815C53.7223 31.4134 51.4309 27.2495 47.4646 26.0966Z"></path>
<path fill="black" d="M40.0969 16.2868L33.5795 14.3933L32.9544 16.5449L39.4718 18.4384L40.0969 16.2868Z"></path>
<path fill="#FFD400" d="M64.5727 27.3453L57.7001 25.3486L56.8909 28.1339L63.7635 30.1305L64.5727 27.3453Z"></path>
<path fill="#9ADF00" d="M20.7783 0.162983L16.2549 1.04224L18.4531 12.3506L22.9764 11.4714L20.7783 0.162983Z"></path>
<path fill="#00C7E7" d="M32.5439 46.8957L14.1299 51.4856L3.24066 16.2075L25.5974 10.6333L32.5439 46.8957Z"></path>
<path fill="#0035D3" d="M27.5525 8.95754L0.725647 15.6462L1.38127 18.2758L28.2082 11.5871L27.5525 8.95754Z"></path>
<path fill="black" d="M28.4379 46.6368C29.5793 46.6368 30.5045 45.7115 30.5045 44.5702C30.5045 43.4289 29.5793 42.5037 28.4379 42.5037C27.2966 42.5037 26.3714 43.4289 26.3714 44.5702C26.3714 45.7115 27.2966 46.6368 28.4379 46.6368Z"></path>
<path fill="black" d="M23.4837 48.201C24.625 48.201 25.5502 47.2757 25.5502 46.1344C25.5502 44.9931 24.625 44.0679 23.4837 44.0679C22.3423 44.0679 21.4171 44.9931 21.4171 46.1344C21.4171 47.2757 22.3423 48.201 23.4837 48.201Z"></path>
<path fill="black" d="M16.0949 49.6621C17.2362 49.6621 18.1614 48.7369 18.1614 47.5956C18.1614 46.4543 17.2362 45.5291 16.0949 45.5291C14.9535 45.5291 14.0283 46.4543 14.0283 47.5956C14.0283 48.7369 14.9535 49.6621 16.0949 49.6621Z"></path>
<path fill="black" d="M20.4129 44.4759C21.5542 44.4759 22.4795 43.5506 22.4795 42.4093C22.4795 41.268 21.5542 40.3428 20.4129 40.3428C19.2716 40.3428 18.3464 41.268 18.3464 42.4093C18.3464 43.5506 19.2716 44.4759 20.4129 44.4759Z"></path>
<path fill="black" d="M27.557 41.9199C28.6983 41.9199 29.6235 40.9947 29.6235 39.8534C29.6235 38.7121 28.6983 37.7869 27.557 37.7869C26.4156 37.7869 25.4904 38.7121 25.4904 39.8534C25.4904 40.9947 26.4156 41.9199 27.557 41.9199Z"></path>
<path fill="black" d="M15.6381 46.1453C16.7794 46.1453 17.7046 45.2201 17.7046 44.0787C17.7046 42.9374 16.7794 42.0122 15.6381 42.0122C14.4968 42.0122 13.5715 42.9374 13.5715 44.0787C13.5715 45.2201 14.4968 46.1453 15.6381 46.1453Z"></path>
<path fill="black" d="M24.2269 40.7544C25.3683 40.7544 26.2935 39.8292 26.2935 38.6879C26.2935 37.5466 25.3683 36.6213 24.2269 36.6213C23.0856 36.6213 22.1604 37.5466 22.1604 38.6879C22.1604 39.8292 23.0856 40.7544 24.2269 40.7544Z"></path>
<path fill="#FFD400" d="M68.2062 75.9851H4.16876V82.8264H68.2062V75.9851Z"></path>
<path fill="black" d="M19.3595 92.9435C24.947 92.9435 29.4765 88.4139 29.4765 82.8265C29.4765 77.239 24.947 72.7095 19.3595 72.7095C13.7721 72.7095 9.24255 77.239 9.24255 82.8265C9.24255 88.4139 13.7721 92.9435 19.3595 92.9435Z"></path>
<path fill="white" d="M19.3596 73.7047C24.3973 73.7047 28.4796 77.7871 28.4796 82.8247C28.4796 87.8624 24.3973 91.9447 19.3596 91.9447C14.322 91.9447 10.2396 87.8624 10.2396 82.8247C10.2396 77.7871 14.322 73.7047 19.3596 73.7047ZM19.3596 71.7107C13.2307 71.7107 8.24561 76.6958 8.24561 82.8247C8.24561 88.9536 13.2307 93.9387 19.3596 93.9387C25.4885 93.9387 30.4736 88.9536 30.4736 82.8247C30.4736 76.6958 25.4885 71.7107 19.3596 71.7107Z"></path>
</svg>
