<svg xmlns="http://www.w3.org/2000/svg" fill="none" viewBox="0 0 345 198" height="198" width="345">
<path stroke-miterlimit="10" stroke-width="2" stroke="#1237CA" fill="white" d="M36.3351 90.4302H16.0051V110.76H36.3351V90.4302Z"></path>
<path stroke-miterlimit="10" stroke-width="2" stroke="#1237CA" fill="white" d="M56.6652 90.4302H36.3352V110.76H56.6652V90.4302Z"></path>
<path stroke-miterlimit="10" stroke-width="2" stroke="#1237CA" fill="white" d="M76.9951 90.4302H56.665V110.76H76.9951V90.4302Z"></path>
<path stroke-miterlimit="10" stroke-width="2" stroke="#1237CA" fill="white" d="M97.3254 90.4302H76.9954V110.76H97.3254V90.4302Z"></path>
<path stroke-miterlimit="10" stroke-width="2" stroke="#1237CA" fill="white" d="M117.659 90.4302H97.3289V110.76H117.659V90.4302Z"></path>
<path stroke-miterlimit="10" stroke-width="2" stroke="#1237CA" fill="white" d="M137.989 90.4302H117.659V110.76H137.989V90.4302Z"></path>
<path stroke-miterlimit="10" stroke-width="2" stroke="#1237CA" fill="white" d="M158.319 90.4302H137.989V110.76H158.319V90.4302Z"></path>
<path stroke-miterlimit="10" stroke-width="2" stroke="#1237CA" fill="white" d="M178.649 90.4302H158.319V110.76H178.649V90.4302Z"></path>
<path stroke-miterlimit="10" stroke-width="2" stroke="#1237CA" fill="white" d="M198.979 90.4302H178.649V110.76H198.979V90.4302Z"></path>
<path stroke-miterlimit="10" stroke-width="2" stroke="#1237CA" fill="white" d="M219.309 90.4302H198.979V110.76H219.309V90.4302Z"></path>
<path stroke-miterlimit="10" stroke-width="2" stroke="#1237CA" fill="white" d="M239.643 90.4302H219.313V110.76H239.643V90.4302Z"></path>
<path stroke-miterlimit="10" stroke-width="2" stroke="#1237CA" fill="white" d="M259.973 90.4302H239.643V110.76H259.973V90.4302Z"></path>
<path stroke-miterlimit="10" stroke-width="2" stroke="#1237CA" fill="white" d="M280.303 90.4302H259.973V110.76H280.303V90.4302Z"></path>
<path stroke-miterlimit="10" stroke-width="2" stroke="#1237CA" fill="white" d="M300.633 90.4302H280.303V110.76H300.633V90.4302Z"></path>
<path stroke-miterlimit="10" stroke-width="2" stroke="#1237CA" fill="white" d="M320.963 90.4302H300.633V110.76H320.963V90.4302Z"></path>
<path stroke-miterlimit="10" stroke-width="2" stroke="#1237CA" fill="white" d="M56.6652 70.1006H36.3352V90.4306H56.6652V70.1006Z"></path>
<path stroke-miterlimit="10" stroke-width="2" stroke="#1237CA" fill="white" d="M76.9951 70.1006H56.665V90.4306H76.9951V70.1006Z"></path>
<path stroke-miterlimit="10" stroke-width="2" stroke="#1237CA" fill="white" d="M97.3254 70.1006H76.9954V90.4306H97.3254V70.1006Z"></path>
<path stroke-miterlimit="10" stroke-width="2" stroke="#1237CA" fill="white" d="M117.659 70.1006H97.3289V90.4306H117.659V70.1006Z"></path>
<path stroke-miterlimit="10" stroke-width="2" stroke="#1237CA" fill="white" d="M137.989 70.1006H117.659V90.4306H137.989V70.1006Z"></path>
<path stroke-miterlimit="10" stroke-width="2" stroke="#1237CA" fill="white" d="M158.319 70.1006H137.989V90.4306H158.319V70.1006Z"></path>
<path stroke-miterlimit="10" stroke-width="2" stroke="#1237CA" fill="white" d="M178.649 70.1006H158.319V90.4306H178.649V70.1006Z"></path>
<path stroke-miterlimit="10" stroke-width="2" stroke="#1237CA" fill="white" d="M198.979 70.1006H178.649V90.4306H198.979V70.1006Z"></path>
<path stroke-miterlimit="10" stroke-width="2" stroke="#1237CA" fill="white" d="M219.309 70.1006H198.979V90.4306H219.309V70.1006Z"></path>
<path stroke-miterlimit="10" stroke-width="2" stroke="#1237CA" fill="white" d="M239.643 70.1006H219.313V90.4306H239.643V70.1006Z"></path>
<path stroke-miterlimit="10" stroke-width="2" stroke="#1237CA" fill="white" d="M259.973 70.1006H239.643V90.4306H259.973V70.1006Z"></path>
<path stroke-miterlimit="10" stroke-width="2" stroke="#1237CA" fill="white" d="M280.303 70.1006H259.973V90.4306H280.303V70.1006Z"></path>
<path stroke-miterlimit="10" stroke-width="2" stroke="#1237CA" fill="white" d="M76.9951 49.77H56.665V70.1H76.9951V49.77Z"></path>
<path stroke-miterlimit="10" stroke-width="2" stroke="#1237CA" fill="white" d="M97.3254 49.77H76.9954V70.1H97.3254V49.77Z"></path>
<path stroke-miterlimit="10" stroke-width="2" stroke="#1237CA" fill="white" d="M117.659 49.77H97.3289V70.1H117.659V49.77Z"></path>
<path stroke-miterlimit="10" stroke-width="2" stroke="#1237CA" fill="white" d="M137.989 49.77H117.659V70.1H137.989V49.77Z"></path>
<path stroke-miterlimit="10" stroke-width="2" stroke="#1237CA" fill="white" d="M158.319 49.77H137.989V70.1H158.319V49.77Z"></path>
<path stroke-miterlimit="10" stroke-width="2" stroke="#1237CA" fill="white" d="M178.649 49.77H158.319V70.1H178.649V49.77Z"></path>
<path stroke-miterlimit="10" stroke-width="2" stroke="#1237CA" fill="white" d="M198.979 49.77H178.649V70.1H198.979V49.77Z"></path>
<path stroke-miterlimit="10" stroke-width="2" stroke="#1237CA" fill="#9ADF00" d="M219.309 49.77H198.979V70.1H219.309V49.77Z"></path>
<path stroke-miterlimit="10" stroke-width="2" stroke="#1237CA" fill="#9ADF00" d="M239.643 49.77H219.313V70.1H239.643V49.77Z"></path>
<path stroke-miterlimit="10" stroke-width="2" stroke="#1237CA" fill="white" d="M97.3254 29.4399H76.9954V49.77H97.3254V29.4399Z"></path>
<path stroke-miterlimit="10" stroke-width="2" stroke="#1237CA" fill="white" d="M117.659 29.4399H97.3289V49.77H117.659V29.4399Z"></path>
<path stroke-miterlimit="10" stroke-width="2" stroke="#1237CA" fill="white" d="M137.989 29.4399H117.659V49.77H137.989V29.4399Z"></path>
<path stroke-miterlimit="10" stroke-width="2" stroke="#1237CA" fill="white" d="M158.319 29.4399H137.989V49.77H158.319V29.4399Z"></path>
<path stroke-miterlimit="10" stroke-width="2" stroke="#1237CA" fill="white" d="M178.649 29.4399H158.319V49.77H178.649V29.4399Z"></path>
<path stroke-miterlimit="10" stroke-width="2" stroke="#1237CA" fill="white" d="M198.979 29.4399H178.649V49.77H198.979V29.4399Z"></path>
<path stroke-miterlimit="10" stroke-width="2" stroke="#1237CA" fill="#9ADF00" d="M219.309 29.4399H198.979V49.77H219.309V29.4399Z"></path>
<path stroke-miterlimit="10" stroke-width="2" stroke="#1237CA" fill="white" d="M158.319 9.10986H137.989V29.4399H158.319V9.10986Z"></path>
<path stroke-miterlimit="10" stroke-width="2" stroke="#1237CA" fill="white" d="M178.649 9.10986H158.319V29.4399H178.649V9.10986Z"></path>
<path stroke-miterlimit="10" stroke-width="2" stroke="#1237CA" fill="white" d="M198.979 9.10986H178.649V29.4399H198.979V9.10986Z"></path>
<path stroke-miterlimit="10" stroke-width="2" stroke="#1237CA" fill="white" d="M36.3351 110.76H16.0051V131.09H36.3351V110.76Z"></path>
<path stroke-miterlimit="10" stroke-width="2" stroke="#1237CA" fill="#FFD400" d="M76.9951 110.76H56.665V131.09H76.9951V110.76Z"></path>
<path stroke-miterlimit="10" stroke-width="2" stroke="#1237CA" fill="#FFD400" d="M97.3254 110.76H76.9954V131.09H97.3254V110.76Z"></path>
<path stroke-miterlimit="10" stroke-width="2" stroke="#1237CA" fill="white" d="M117.659 110.76H97.3289V131.09H117.659V110.76Z"></path>
<path stroke-miterlimit="10" stroke-width="2" stroke="#1237CA" fill="white" d="M137.989 110.76H117.659V131.09H137.989V110.76Z"></path>
<path stroke-miterlimit="10" stroke-width="2" stroke="#1237CA" fill="white" d="M158.319 110.76H137.989V131.09H158.319V110.76Z"></path>
<path stroke-miterlimit="10" stroke-width="2" stroke="#1237CA" fill="white" d="M178.649 110.76H158.319V131.09H178.649V110.76Z"></path>
<path stroke-miterlimit="10" stroke-width="2" stroke="#1237CA" fill="white" d="M198.979 110.76H178.649V131.09H198.979V110.76Z"></path>
<path stroke-miterlimit="10" stroke-width="2" stroke="#1237CA" fill="white" d="M219.309 110.76H198.979V131.09H219.309V110.76Z"></path>
<path stroke-miterlimit="10" stroke-width="2" stroke="#1237CA" fill="white" d="M239.643 110.76H219.313V131.09H239.643V110.76Z"></path>
<path stroke-miterlimit="10" stroke-width="2" stroke="#1237CA" fill="#00CBE7" d="M259.973 110.76H239.643V131.09H259.973V110.76Z"></path>
<path stroke-miterlimit="10" stroke-width="2" stroke="#1237CA" fill="#00CBE7" d="M280.303 110.76H259.973V131.09H280.303V110.76Z"></path>
<path stroke-miterlimit="10" stroke-width="2" stroke="#1237CA" fill="white" d="M300.633 110.76H280.303V131.09H300.633V110.76Z"></path>
<path stroke-miterlimit="10" stroke-width="2" stroke="#1237CA" fill="white" d="M320.963 110.76H300.633V131.09H320.963V110.76Z"></path>
<path stroke-miterlimit="10" stroke-width="2" stroke="#1237CA" fill="white" d="M117.659 131.093H97.3289V151.423H117.659V131.093Z"></path>
<path stroke-miterlimit="10" stroke-width="2" stroke="#1237CA" fill="white" d="M137.989 131.093H117.659V151.423H137.989V131.093Z"></path>
<path stroke-miterlimit="10" stroke-width="2" stroke="#1237CA" fill="white" d="M158.319 131.093H137.989V151.423H158.319V131.093Z"></path>
<path stroke-miterlimit="10" stroke-width="2" stroke="#1237CA" fill="white" d="M178.649 131.093H158.319V151.423H178.649V131.093Z"></path>
<path stroke-miterlimit="10" stroke-width="2" stroke="#1237CA" fill="white" d="M198.979 131.093H178.649V151.423H198.979V131.093Z"></path>
<path stroke-miterlimit="10" stroke-width="2" stroke="#1237CA" fill="white" d="M239.643 131.093H219.313V151.423H239.643V131.093Z"></path>
<path stroke-miterlimit="10" stroke-width="2" stroke="#1237CA" fill="white" d="M219.381 131.093H199.051V151.423H219.381V131.093Z"></path>
<path stroke-miterlimit="10" stroke-width="2" stroke="#1237CA" fill="#00CBE7" d="M259.973 131.093H239.643V151.423H259.973V131.093Z"></path>
<path stroke-miterlimit="10" stroke-width="2" stroke="#1237CA" fill="white" d="M158.319 151.424H137.989V171.754H158.319V151.424Z"></path>
<path stroke-miterlimit="10" stroke-width="2" stroke="#1237CA" fill="white" d="M178.649 151.424H158.319V171.754H178.649V151.424Z"></path>
<path stroke-miterlimit="10" stroke-width="2" stroke="#1237CA" fill="white" d="M198.979 151.424H178.649V171.754H198.979V151.424Z"></path>
<path stroke-miterlimit="10" stroke-width="2" stroke="#1237CA" fill="white" d="M219.309 151.424H198.979V171.754H219.309V151.424Z"></path>
<path stroke-miterlimit="10" stroke-width="2" stroke="#1237CA" fill="white" d="M178.649 171.754H158.319V192.084H178.649V171.754Z"></path>
<path stroke-miterlimit="10" stroke-width="2" stroke="#1237CA" fill="white" d="M198.979 171.754H178.649V192.084H198.979V171.754Z"></path>
<path fill="white" d="M76.4515 70.647H57.2122V89.8863H76.4515V70.647Z"></path>
<path fill="white" d="M117.112 29.9834H97.8723V49.2228H117.112V29.9834Z"></path>
<path fill="white" d="M117.112 131.637H97.8723V150.877H117.112V131.637Z"></path>
<path fill="white" d="M279.756 70.647H260.516V89.8863H279.756V70.647Z"></path>
<path fill="white" d="M270.14 83.7313C270.917 83.7313 271.547 83.1011 271.547 82.3237C271.547 81.5462 270.917 80.916 270.14 80.916C269.362 80.916 268.732 81.5462 268.732 82.3237C268.732 83.1011 269.362 83.7313 270.14 83.7313Z"></path>
<path fill="white" d="M218.766 151.967H199.526V171.206H218.766V151.967Z"></path>
<path fill="white" d="M214.69 166.081C214.986 166.081 215.226 165.841 215.226 165.545C215.226 165.249 214.986 165.009 214.69 165.009C214.394 165.009 214.154 165.249 214.154 165.545C214.154 165.841 214.394 166.081 214.69 166.081Z"></path>
<path fill="white" d="M157.776 151.967H138.532V171.206H157.776V151.967Z"></path>
<path fill="white" d="M178.106 131.637H158.866V150.877H178.106V131.637Z"></path>
<path fill="white" d="M178.185 29.9077H158.787V49.3056H178.185V29.9077Z"></path>
<path fill="white" d="M239.096 90.9771H219.856V110.216H239.096V90.9771Z"></path>
<path fill="white" d="M224.539 101.725C224.792 101.725 224.996 101.52 224.996 101.268C224.996 101.016 224.792 100.812 224.539 100.812C224.287 100.812 224.083 101.016 224.083 101.268C224.083 101.52 224.287 101.725 224.539 101.725Z"></path>
<path fill="white" d="M226.358 101.725C226.611 101.725 226.815 101.52 226.815 101.268C226.815 101.016 226.611 100.812 226.358 100.812C226.106 100.812 225.902 101.016 225.902 101.268C225.902 101.52 226.106 101.725 226.358 101.725Z"></path>
<path fill="white" d="M117.191 90.8979H97.7932V110.296H117.191V90.8979Z"></path>
<path fill="white" d="M107.62 96.7739H103.45V98.8986H107.62V96.7739Z"></path>
<path fill="white" d="M107.62 100.189H103.45V102.314H107.62V100.189Z"></path>
<path fill="white" d="M107.62 103.608H103.45V105.733H107.62V103.608Z"></path>
<path fill="white" d="M107.62 107.027H103.45V109.152H107.62V107.027Z"></path>
<path fill="white" d="M113.466 96.7739H109.296V98.8986H113.466V96.7739Z"></path>
<path fill="white" d="M113.466 100.189H109.296V102.314H113.466V100.189Z"></path>
<path fill="white" d="M113.466 103.608H109.296V105.733H113.466V103.608Z"></path>
<path fill="white" d="M113.466 107.027H109.296V109.152H113.466V107.027Z"></path>
<path fill="white" d="M117.191 96.7739H115.108V98.8986H117.191V96.7739Z"></path>
<path fill="white" d="M117.191 100.189H115.108V102.314H117.191V100.189Z"></path>
<path fill="white" d="M117.191 103.608H115.108V105.733H117.191V103.608Z"></path>
<path fill="white" d="M117.191 107.027H115.108V109.152H117.191V107.027Z"></path>
<path fill="white" d="M46.502 103.993C48.3778 103.993 49.8985 102.473 49.8985 100.597C49.8985 98.7209 48.3778 97.2002 46.502 97.2002C44.6261 97.2002 43.1055 98.7209 43.1055 100.597C43.1055 102.473 44.6261 103.993 46.502 103.993Z"></path>
<path fill="white" d="M96.6948 50.4043H77.6328V69.4663H96.6948V50.4043Z"></path>
<path fill="white" d="M300.003 111.391H280.933V130.46H300.003V111.391Z"></path>
<path stroke-miterlimit="10" stroke-width="2" stroke="#1237CA" fill="#FFD400" d="M56.6652 110.76H36.3352V131.09H56.6652V110.76Z"></path>
<path stroke-miterlimit="10" stroke-width="2" stroke="#1237CA" fill="white" d="M56.6652 131.093H36.3352V151.423H56.6652V131.093Z"></path>
<path fill="#FFD400" d="M314.593 122.312H286.632V150.272H314.593V122.312Z"></path>
<path fill="white" d="M300.61 146.518C306.256 146.518 310.834 141.941 310.834 136.294C310.834 130.648 306.256 126.071 300.61 126.071C294.964 126.071 290.387 130.648 290.387 136.294C290.387 141.941 294.964 146.518 300.61 146.518Z"></path>
<path fill="black" d="M303.879 139.699C306.741 139.699 309.06 137.379 309.06 134.517C309.06 131.655 306.741 129.335 303.879 129.335C301.017 129.335 298.697 131.655 298.697 134.517C298.697 137.379 301.017 139.699 303.879 139.699Z"></path>
<path fill="white" d="M304.671 132.66C305.2 132.66 305.63 132.231 305.63 131.701C305.63 131.172 305.2 130.743 304.671 130.743C304.142 130.743 303.712 131.172 303.712 131.701C303.712 132.231 304.142 132.66 304.671 132.66Z"></path>
<path fill="#00CBE7" d="M314.079 152.612H294.213V172.478H314.079V152.612Z"></path>
<path fill="white" d="M308.324 165.271C308.34 167.577 306.483 169.464 304.173 169.482C304.154 169.482 304.135 169.482 304.12 169.482C306.758 168.637 307.336 165.467 305.807 163.255C305.886 165.535 305.728 167.758 303.381 168.731C303.079 168.875 302.754 168.996 302.415 169.109C300.977 168.456 299.973 167.014 299.961 165.331C299.946 163.025 304.075 155.613 304.075 155.613C304.075 155.613 308.306 162.965 308.324 165.274V165.271Z"></path>
<path fill="#9ADF00" d="M344.98 133.418H317.019V161.379H344.98V133.418Z"></path>
<path stroke-miterlimit="10" stroke-width="2.4" stroke="#FFD400" d="M329.394 146.212L335.583 144.748L334.119 150.937"></path>
<path fill="black" d="M335.432 146.148C336.205 146.148 336.832 145.522 336.832 144.748C336.832 143.975 336.205 143.348 335.432 143.348C334.659 143.348 334.032 143.975 334.032 144.748C334.032 145.522 334.659 146.148 335.432 146.148Z"></path>
<path fill="white" d="M341.444 155.062C336.976 159.53 329.733 159.53 325.269 155.062C320.801 150.594 320.801 143.352 325.269 138.887"></path>
<path fill="#FFD400" d="M325.265 156.851C324.276 156.851 323.476 156.051 323.476 155.062C323.476 154.074 324.276 153.273 325.265 153.273C326.254 153.273 327.054 154.074 327.054 155.062C327.054 156.051 326.254 156.851 325.265 156.851Z"></path>
<path fill="#FFD400" d="M326.084 155.493H324.393V161.335H326.084V155.493Z"></path>
<path fill="#00CBE7" d="M64.6884 35.7578H39.2146V61.2317H64.6884V35.7578Z"></path>
<path fill="white" d="M51.9517 57.8233C55.8847 57.8233 59.073 54.6349 59.073 50.7019C59.073 46.7689 55.8847 43.5806 51.9517 43.5806C48.0187 43.5806 44.8303 46.7689 44.8303 50.7019C44.8303 54.6349 48.0187 57.8233 51.9517 57.8233Z"></path>
<path fill="white" d="M54.6916 39.7769V47.3813H49.2119V42.8337H50.9555C51.1253 42.8337 51.2649 42.6941 51.2649 42.5243C51.2649 42.3544 51.1253 42.2148 50.9555 42.2148H49.2119V41.5053H50.9555C51.1253 41.5053 51.2649 41.3657 51.2649 41.1958C51.2649 41.026 51.1253 40.8864 50.9555 40.8864H49.2119V39.7769H54.6916V39.7769Z"></path>
<path fill="white" d="M55.1255 39.1616H48.7778C48.5548 39.1616 48.374 39.3424 48.374 39.5654V39.7881C48.374 40.0111 48.5548 40.1919 48.7778 40.1919H55.1255C55.3486 40.1919 55.5293 40.0111 55.5293 39.7881V39.5654C55.5293 39.3424 55.3486 39.1616 55.1255 39.1616Z"></path>
<path fill="#0035D3" d="M57.9823 50.7021C57.9823 54.0345 55.2802 56.7328 51.9516 56.7328C48.623 56.7328 45.9209 54.0345 45.9209 50.7021H57.9823Z"></path>
<path fill="black" d="M36.3917 11.4497H0V47.8414H36.3917V11.4497Z"></path>
<path fill="white" d="M26.4251 38.5615H8.06885V36.935H24.7986V19.4165H26.4251V38.5615Z"></path>
<path fill="white" d="M25.4343 19.2363L7.49634 37.1743L8.64648 38.3245L26.5845 20.3865L25.4343 19.2363Z"></path>
<path fill="#00CBE7" d="M25.6097 23.0622C27.6231 23.0622 29.2553 21.43 29.2553 19.4166C29.2553 17.4032 27.6231 15.771 25.6097 15.771C23.5963 15.771 21.9641 17.4032 21.9641 19.4166C21.9641 21.43 23.5963 23.0622 25.6097 23.0622Z"></path>
<path fill="#0035D3" d="M8.06869 41.3957C10.0821 41.3957 11.7143 39.7635 11.7143 37.7501C11.7143 35.7367 10.0821 34.1045 8.06869 34.1045C6.05528 34.1045 4.4231 35.7367 4.4231 37.7501C4.4231 39.7635 6.05528 41.3957 8.06869 41.3957Z"></path>
<path fill="#FF0000" d="M25.6101 43.5211C28.797 43.5211 31.3804 40.9376 31.3804 37.7508C31.3804 34.5639 28.797 31.9805 25.6101 31.9805C22.4233 31.9805 19.8398 34.5639 19.8398 37.7508C19.8398 40.9376 22.4233 43.5211 25.6101 43.5211Z"></path>
<path fill="white" d="M28.6818 38.139C29.2404 38.139 29.6932 37.6862 29.6932 37.1276C29.6932 36.569 29.2404 36.1162 28.6818 36.1162C28.1232 36.1162 27.6704 36.569 27.6704 37.1276C27.6704 37.6862 28.1232 38.139 28.6818 38.139Z"></path>
<path fill="#FFD400" d="M72.1608 0H39.2222V32.9386H72.1608V0Z"></path>
<path fill="#FF0000" d="M58.9674 27.5419C55.4161 31.0931 50.227 30.5233 46.6795 26.972C43.1283 23.4208 42.5584 18.2317 46.1097 14.6842C47.5626 13.2312 50.9592 12.2878 53.8273 11.0499C57.9635 9.26109 61.3223 7.1628 63.9074 9.75169C66.4925 12.3368 64.3942 15.6956 62.6092 19.8318C61.3676 22.7 60.4279 26.0965 58.9749 27.5494L58.9674 27.5419Z"></path>
<path fill="#9ADF00" d="M64.3337 6.46457C64.9376 8.62702 64.4319 9.60446 63.5374 9.85354C62.6468 10.1026 61.7071 9.52521 61.1033 7.36654C60.4994 5.20409 61.6278 3.00391 61.6278 3.00391C61.6278 3.00391 63.7299 4.3059 64.3337 6.46835V6.46457Z"></path>
<path fill="black" d="M67.6728 7.40619L66.2451 5.97852L61.8207 10.403L63.2483 11.8307L67.6728 7.40619Z"></path>
<path fill="black" d="M299.893 50.0454H270.313V79.6253H299.893V50.0454Z"></path>
<path fill="white" d="M285.103 74.5761C290.483 74.5761 294.844 70.2152 294.844 64.8357C294.844 59.4562 290.483 55.0952 285.103 55.0952C279.724 55.0952 275.363 59.4562 275.363 64.8357C275.363 70.2152 279.724 74.5761 285.103 74.5761Z"></path>
<path fill="#FF0000" d="M296.255 53.6796C296.033 53.4607 295.712 53.3513 295.3 53.3551C294.029 53.3551 291.927 54.3627 289.436 56.11C290.36 56.5704 291.202 57.1743 291.93 57.8913C292.044 57.8196 292.153 57.7479 292.259 57.68C292.191 57.7856 292.123 57.8951 292.047 58.0083C291.934 58.1819 291.813 58.363 291.685 58.548C290.21 60.7066 288.111 63.1785 285.779 65.5108C283.447 67.8431 280.975 69.9414 278.816 71.417C278.627 71.5453 278.45 71.666 278.276 71.7793C278.163 71.8547 278.054 71.9227 277.944 71.9906C278.012 71.8849 278.084 71.7755 278.156 71.6585C277.439 70.9301 276.835 70.0886 276.374 69.164C274.065 72.4586 273.042 75.0814 273.948 75.9834C274.167 76.2061 274.491 76.3117 274.903 76.3117C276.174 76.3117 278.276 75.3003 280.767 73.5568C282.926 72.0434 285.371 69.9791 287.809 67.5412C290.247 65.1032 292.312 62.6577 293.825 60.4991C296.135 57.2045 297.157 54.5816 296.252 53.6796H296.255Z"></path>
<path fill="#FF0000" d="M150.858 158.564H129.596V179.826H150.858V158.564Z"></path>
<path fill="white" d="M134.245 175.173H144.42V171.422H140.653L146.205 165.866L143.552 163.213L137.997 168.765V164.78H134.245V175.173Z"></path>
<path fill="#9ADF00" d="M137.415 181.841H121.772V197.484H137.415V181.841Z"></path>
<path fill="white" d="M124.41 191.578V187.744L127.184 189.661L124.41 191.578Z"></path>
<path fill="white" d="M128.207 191.578V187.744L130.981 189.661L128.207 191.578Z"></path>
<path fill="white" d="M132.004 191.578V187.744L134.781 189.661L132.004 191.578Z"></path>
</svg>
