<svg xmlns="http://www.w3.org/2000/svg" fill="none" viewBox="0 0 360 136" height="136" width="360">
<rect fill="#FFD700" height="45" width="183.609" y="0.243164" x="0.333496"></rect>
<rect fill="black" height="45" width="188" y="45.2432" x="171.333"></rect>
<rect fill="#75D200" height="45" width="131" y="45.2432" x="0.333496"></rect>
<rect fill="#FF0000" height="45" width="40" y="45.2432" x="131.333"></rect>
<rect fill="#FF0000" height="45" width="40" y="90.2432" x="58.3335"></rect>
<rect fill="#00C5E4" height="45" width="202" y="90.2432" x="98.3335"></rect>
<path fill="black" d="M25.5975 24.8512C25.5975 21.2672 25.8855 18.3552 23.2295 15.6992C21.6615 14.1312 19.4535 13.4592 17.0855 13.4592H8.6375V36.2432H17.0855C19.4535 36.2432 21.6615 35.5712 23.2295 34.0032C25.8855 31.3472 25.5975 28.4352 25.5975 24.8512ZM19.9975 24.8512C19.9975 28.7232 19.8375 29.3312 19.3895 29.9712C18.8775 30.7392 18.1095 31.2512 16.7015 31.2512H14.2375V18.4512H16.7015C18.1095 18.4512 18.8775 18.9632 19.3895 19.7312C19.8375 20.3712 19.9975 21.0112 19.9975 24.8512ZM42.3772 20.4352C41.1932 19.2512 40.0412 18.8352 38.3452 18.8352C36.5532 18.8352 35.0492 19.6672 34.2812 20.4352V19.0272H29.1612V36.2432H34.4092V25.9392C34.4092 23.9872 35.8172 23.5712 36.5212 23.5712C37.4172 23.5712 37.8972 23.9552 38.4092 24.4672L42.3772 20.4352ZM49.5967 17.2672V13.2672H44.3487V17.2672H49.5967ZM49.5967 36.2432V19.6992H44.3487V36.2432H49.5967ZM68.2555 19.0272H62.7515L59.9355 27.9552L57.0875 19.0272H51.5835L57.9195 36.2432H61.9195L68.2555 19.0272ZM75.503 17.2672V13.2672H70.255V17.2672H75.503ZM75.503 36.2432V19.6992H70.255V36.2432H75.503ZM94.1937 36.2432V25.2352C94.1937 23.4112 93.9377 21.7792 92.4657 20.3072C91.5377 19.3792 90.2257 18.8352 88.5937 18.8352C87.2177 18.8352 85.6497 19.3792 84.5937 20.4352V19.0272H79.4737V36.2432H84.7217V25.9392C84.7217 23.9552 86.1297 23.5712 86.8337 23.5712C87.5377 23.5712 88.9457 23.9552 88.9457 25.9392V36.2432H94.1937ZM111.989 34.9952V19.0272H106.901V20.4352C105.845 19.3792 104.821 18.8352 103.061 18.8352C101.397 18.8352 99.989 19.3792 98.997 20.3712C97.429 21.9392 97.397 23.8592 97.397 26.9952C97.397 30.1312 97.429 32.0512 98.997 33.6192C99.989 34.6112 101.365 35.1552 103.029 35.1552C104.629 35.1552 105.781 34.6752 106.741 33.7152V34.9632C106.741 36.0832 106.165 37.5872 103.957 37.5872C102.773 37.5872 101.813 37.2992 101.013 36.4992L97.749 39.7632C99.509 41.5232 101.525 42.0032 104.213 42.0032C108.917 42.0032 111.989 39.0592 111.989 34.9952ZM106.741 26.9952C106.741 28.7552 106.613 30.4192 104.693 30.4192C102.773 30.4192 102.645 28.7552 102.645 26.9952C102.645 25.2352 102.773 23.5712 104.693 23.5712C106.613 23.5712 106.741 25.2352 106.741 26.9952ZM128.284 17.2672V13.2672H123.036V17.2672H128.284ZM128.284 36.2432V19.6992H123.036V36.2432H128.284ZM146.975 36.2432V25.2352C146.975 23.4112 146.719 21.7792 145.247 20.3072C144.319 19.3792 143.007 18.8352 141.375 18.8352C139.999 18.8352 138.431 19.3792 137.375 20.4352V19.0272H132.255V36.2432H137.503V25.9392C137.503 23.9552 138.911 23.5712 139.615 23.5712C140.319 23.5712 141.727 23.9552 141.727 25.9392V36.2432H146.975ZM159.138 36.2432V31.8272H157.474C156.77 31.8272 156.418 31.4432 156.418 30.7712V23.7312H159.138V19.6992H156.418V14.7712H151.17V19.6992H149.602V23.7312H151.17V31.1552C151.17 33.5232 152.706 36.2432 156.514 36.2432H159.138ZM176.651 27.6352C176.651 24.2752 176.203 22.6112 174.763 21.0432C173.739 19.9552 172.011 18.8352 169.227 18.8352C166.443 18.8352 164.715 19.9552 163.691 21.0432C162.251 22.6112 161.803 24.2752 161.803 27.6352C161.803 31.0272 162.251 32.6592 163.691 34.2272C164.715 35.3152 166.443 36.4352 169.227 36.4352C172.011 36.4352 173.739 35.3152 174.763 34.2272C176.203 32.6592 176.651 31.0272 176.651 27.6352ZM171.403 27.6352C171.403 29.3312 171.307 30.5472 170.635 31.2192C170.315 31.5392 169.867 31.6992 169.227 31.6992C168.587 31.6992 168.139 31.5392 167.819 31.2192C167.147 30.5472 167.051 29.3312 167.051 27.6352C167.051 25.9392 167.147 24.7232 167.819 24.0512C168.139 23.7312 168.587 23.5712 169.227 23.5712C169.867 23.5712 170.315 23.7312 170.635 24.0512C171.307 24.7232 171.403 25.9392 171.403 27.6352Z"></path>
<path fill="white" d="M197.099 61.4463H191.49V79.2432H185.896V61.4463H180.287V56.4619H197.099V61.4463ZM214.724 72.3369H204.427C204.427 73.0869 204.698 73.7223 205.24 74.2432C205.792 74.764 206.531 75.0244 207.458 75.0244C208.333 75.0244 209.016 74.9098 209.505 74.6807C210.005 74.4515 210.505 74.0869 211.005 73.5869L214.146 76.7119C213.198 77.6598 212.235 78.3525 211.255 78.79C210.276 79.2171 209.011 79.4307 207.458 79.4307C202 79.4307 199.271 76.4984 199.271 70.6338C199.271 67.8734 199.979 65.7171 201.396 64.165C202.823 62.613 204.682 61.8369 206.974 61.8369C208.589 61.8369 209.979 62.1963 211.146 62.915C212.323 63.6338 213.214 64.6077 213.818 65.8369C214.422 67.0661 214.724 68.4515 214.724 69.9932V72.3369ZM209.537 68.8369C209.537 68.3265 209.443 67.8786 209.255 67.4932C209.089 67.1077 208.807 66.79 208.412 66.54C208.026 66.2796 207.547 66.1494 206.974 66.1494C206.401 66.1494 205.917 66.2796 205.521 66.54C205.136 66.79 204.865 67.1077 204.708 67.4932C204.521 67.8786 204.427 68.3265 204.427 68.8369H209.537ZM230.583 77.2275C230.125 77.6859 229.599 78.0869 229.005 78.4307C228.422 78.764 227.781 79.014 227.083 79.1807C226.386 79.3473 225.662 79.4307 224.912 79.4307C223.693 79.4307 222.505 79.1963 221.349 78.7275C220.203 78.2588 219.219 77.363 218.396 76.04C217.583 74.7171 217.177 72.915 217.177 70.6338C217.177 68.3525 217.583 66.5505 218.396 65.2275C219.219 63.9046 220.203 63.0088 221.349 62.54C222.505 62.0713 223.693 61.8369 224.912 61.8369C226.078 61.8369 227.136 62.0244 228.083 62.3994C229.031 62.7744 229.865 63.3213 230.583 64.04L227.037 67.6025C226.349 66.915 225.641 66.5713 224.912 66.5713C224.276 66.5713 223.735 66.7952 223.287 67.2432C222.714 67.8473 222.427 68.9775 222.427 70.6338C222.427 72.29 222.714 73.4202 223.287 74.0244C223.735 74.4723 224.276 74.6963 224.912 74.6963C225.651 74.6963 226.36 74.3577 227.037 73.6807L230.583 77.2275ZM247.693 79.2432H242.443V68.8057C242.443 67.9827 242.224 67.4046 241.787 67.0713C241.36 66.738 240.906 66.5713 240.427 66.5713C239.948 66.5713 239.49 66.7432 239.052 67.0869C238.625 67.4307 238.412 68.0036 238.412 68.8057V79.2432H233.162V56.4619H238.412V63.4307C238.932 62.9098 239.521 62.514 240.177 62.2432C240.844 61.9723 241.516 61.8369 242.193 61.8369C243.391 61.8369 244.401 62.1077 245.224 62.6494C246.047 63.1807 246.662 63.9255 247.068 64.8838C247.485 65.8421 247.693 66.9046 247.693 68.0713V79.2432ZM266.224 79.2432H260.974V68.9463C260.974 68.0609 260.745 67.4463 260.287 67.1025C259.839 66.7484 259.365 66.5713 258.865 66.5713C258.365 66.5713 257.886 66.7484 257.427 67.1025C256.979 67.4567 256.755 68.0713 256.755 68.9463V79.2432H251.505V62.0244H256.63V63.4307C257.13 62.9307 257.745 62.54 258.474 62.2588C259.214 61.9775 259.932 61.8369 260.63 61.8369C262.224 61.8369 263.511 62.3265 264.49 63.3057C265.167 63.9619 265.625 64.6859 265.865 65.4775C266.104 66.2692 266.224 67.1859 266.224 68.2275V79.2432ZM284.271 70.6338C284.271 72.3317 284.136 73.665 283.865 74.6338C283.594 75.5921 283.104 76.4567 282.396 77.2275C281.011 78.6963 279.162 79.4307 276.849 79.4307C274.526 79.4307 272.682 78.6963 271.318 77.2275C270.849 76.7275 270.474 76.1807 270.193 75.5869C269.912 74.9932 269.714 74.3161 269.599 73.5557C269.485 72.7848 269.427 71.8109 269.427 70.6338C269.427 69.4671 269.485 68.5036 269.599 67.7432C269.714 66.9723 269.912 66.2952 270.193 65.7119C270.474 65.1182 270.849 64.5609 271.318 64.04C271.922 63.4046 272.677 62.8786 273.583 62.4619C274.49 62.0452 275.578 61.8369 276.849 61.8369C278.12 61.8369 279.208 62.0452 280.115 62.4619C281.031 62.8682 281.792 63.3942 282.396 64.04C283.104 64.8109 283.594 65.6807 283.865 66.6494C284.136 67.6182 284.271 68.9463 284.271 70.6338ZM279.021 70.6338C279.021 69.6338 278.969 68.863 278.865 68.3213C278.771 67.7692 278.568 67.3473 278.255 67.0557C277.943 66.7327 277.474 66.5713 276.849 66.5713C276.235 66.5713 275.766 66.7327 275.443 67.0557C275.13 67.3682 274.922 67.8161 274.818 68.3994C274.724 68.9723 274.677 69.7171 274.677 70.6338C274.677 71.5505 274.724 72.2952 274.818 72.8682C274.922 73.4307 275.13 73.8786 275.443 74.2119C275.766 74.5348 276.235 74.6963 276.849 74.6963C277.474 74.6963 277.943 74.54 278.255 74.2275C278.568 73.9046 278.771 73.4775 278.865 72.9463C278.969 72.4046 279.021 71.6338 279.021 70.6338ZM295.599 79.2432H292.818C291.62 79.2432 290.62 78.9984 289.818 78.5088C289.016 78.0088 288.422 77.3682 288.037 76.5869C287.662 75.7952 287.474 74.9827 287.474 74.1494V56.4619H292.724V73.7744C292.724 74.4723 293.073 74.8213 293.771 74.8213H295.599V79.2432ZM312.771 70.6338C312.771 72.3317 312.636 73.665 312.365 74.6338C312.094 75.5921 311.604 76.4567 310.896 77.2275C309.511 78.6963 307.662 79.4307 305.349 79.4307C303.026 79.4307 301.182 78.6963 299.818 77.2275C299.349 76.7275 298.974 76.1807 298.693 75.5869C298.412 74.9932 298.214 74.3161 298.099 73.5557C297.985 72.7848 297.927 71.8109 297.927 70.6338C297.927 69.4671 297.985 68.5036 298.099 67.7432C298.214 66.9723 298.412 66.2952 298.693 65.7119C298.974 65.1182 299.349 64.5609 299.818 64.04C300.422 63.4046 301.177 62.8786 302.083 62.4619C302.99 62.0452 304.078 61.8369 305.349 61.8369C306.62 61.8369 307.708 62.0452 308.615 62.4619C309.531 62.8682 310.292 63.3942 310.896 64.04C311.604 64.8109 312.094 65.6807 312.365 66.6494C312.636 67.6182 312.771 68.9463 312.771 70.6338ZM307.521 70.6338C307.521 69.6338 307.469 68.863 307.365 68.3213C307.271 67.7692 307.068 67.3473 306.755 67.0557C306.443 66.7327 305.974 66.5713 305.349 66.5713C304.735 66.5713 304.266 66.7327 303.943 67.0557C303.63 67.3682 303.422 67.8161 303.318 68.3994C303.224 68.9723 303.177 69.7171 303.177 70.6338C303.177 71.5505 303.224 72.2952 303.318 72.8682C303.422 73.4307 303.63 73.8786 303.943 74.2119C304.266 74.5348 304.735 74.6963 305.349 74.6963C305.974 74.6963 306.443 74.54 306.755 74.2275C307.068 73.9046 307.271 73.4775 307.365 72.9463C307.469 72.4046 307.521 71.6338 307.521 70.6338ZM330.115 77.9932C330.115 78.9932 329.932 79.9255 329.568 80.79C329.203 81.6546 328.677 82.3994 327.99 83.0244C327.302 83.6598 326.469 84.1494 325.49 84.4932C324.521 84.8369 323.469 85.0088 322.333 85.0088C321.365 85.0088 320.511 84.9411 319.771 84.8057C319.031 84.6702 318.333 84.4359 317.677 84.1025C317.031 83.7796 316.432 83.3317 315.88 82.7588L319.13 79.4932C319.516 79.8786 319.953 80.1546 320.443 80.3213C320.943 80.4984 321.49 80.5869 322.083 80.5869C323.073 80.5869 323.781 80.3213 324.208 79.79C324.646 79.2692 324.865 78.6598 324.865 77.9619V76.7119C323.917 77.6702 322.682 78.1494 321.162 78.1494C319.485 78.1494 318.136 77.639 317.115 76.6182C316.615 76.1182 316.25 75.5661 316.021 74.9619C315.792 74.3473 315.651 73.6911 315.599 72.9932C315.547 72.2952 315.521 71.2952 315.521 69.9932C315.521 68.9932 315.531 68.2275 315.552 67.6963C315.583 67.165 315.651 66.6234 315.755 66.0713C315.86 65.5088 316.016 65.014 316.224 64.5869C316.432 64.1598 316.729 63.7536 317.115 63.3682C317.594 62.889 318.188 62.514 318.896 62.2432C319.615 61.9723 320.38 61.8369 321.193 61.8369C322.037 61.8369 322.755 61.9671 323.349 62.2275C323.943 62.488 324.5 62.889 325.021 63.4307V62.0244H330.115V77.9932ZM324.865 69.9932C324.865 69.2848 324.823 68.6911 324.74 68.2119C324.656 67.7327 324.464 67.3421 324.162 67.04C323.86 66.7275 323.412 66.5713 322.818 66.5713C322.224 66.5713 321.776 66.7275 321.474 67.04C321.172 67.3421 320.979 67.7327 320.896 68.2119C320.813 68.6807 320.771 69.2744 320.771 69.9932C320.771 70.7015 320.813 71.2952 320.896 71.7744C320.979 72.2536 321.172 72.6494 321.474 72.9619C321.776 73.264 322.224 73.415 322.818 73.415C323.412 73.415 323.86 73.264 324.162 72.9619C324.464 72.6494 324.656 72.2588 324.74 71.79C324.823 71.3109 324.865 70.7119 324.865 69.9932ZM348.818 62.0244L341.677 81.29C341.344 82.2484 340.896 83.0036 340.333 83.5557C339.438 84.5244 338.151 85.0088 336.474 85.0088H334.49V80.2744H335.599C336.089 80.2744 336.464 80.1859 336.724 80.0088C336.985 79.8317 337.198 79.4932 337.365 78.9932L337.849 77.54L332.115 62.0244H337.615L340.537 70.9619L343.318 62.0244H348.818Z"></path>
<path fill="white" d="M23.9272 70.2744C23.9272 71.764 23.5314 73.0505 22.7397 74.1338C21.9585 75.2171 20.896 76.04 19.5522 76.6025C18.2189 77.1546 16.745 77.4307 15.1304 77.4307C13.245 77.4307 11.6043 77.2067 10.2085 76.7588C8.81266 76.3109 7.57308 75.5348 6.48975 74.4307L10.0835 70.8369C10.646 71.3994 11.3856 71.8109 12.3022 72.0713C13.2189 72.3213 14.172 72.4463 15.1616 72.4463C17.3387 72.4463 18.4272 71.764 18.4272 70.3994C18.4272 69.8161 18.2762 69.3682 17.9741 69.0557C17.672 68.7432 17.172 68.54 16.4741 68.4463L13.7241 68.0557C11.7033 67.7744 10.1772 67.1025 9.146 66.04C8.10433 64.9671 7.5835 63.4411 7.5835 61.4619C7.5835 60.0765 7.91683 58.8421 8.5835 57.7588C9.26058 56.665 10.2241 55.8109 11.4741 55.1963C12.7345 54.5817 14.2085 54.2744 15.896 54.2744C17.5731 54.2744 19.0366 54.4932 20.2866 54.9307C21.547 55.3577 22.646 56.0452 23.5835 56.9932L20.0679 60.5088C19.4845 59.9255 18.8543 59.5557 18.1772 59.3994C17.5002 59.2432 16.6877 59.165 15.7397 59.165C14.8439 59.165 14.1616 59.3786 13.6929 59.8057C13.2241 60.2327 12.9897 60.7223 12.9897 61.2744C12.9897 61.6807 13.1408 62.0348 13.4429 62.3369C13.797 62.6911 14.3179 62.915 15.0054 63.0088L17.7554 63.3838C19.7554 63.6755 21.2502 64.3057 22.2397 65.2744C22.8335 65.8473 23.2606 66.5452 23.521 67.3682C23.7918 68.1807 23.9272 69.1494 23.9272 70.2744ZM39.9272 75.2275C39.4689 75.6859 38.9429 76.0869 38.3491 76.4307C37.7658 76.764 37.1252 77.014 36.4272 77.1807C35.7293 77.3473 35.0054 77.4307 34.2554 77.4307C33.0366 77.4307 31.8491 77.1963 30.6929 76.7275C29.547 76.2588 28.5627 75.363 27.7397 74.04C26.9272 72.7171 26.521 70.915 26.521 68.6338C26.521 66.3525 26.9272 64.5505 27.7397 63.2275C28.5627 61.9046 29.547 61.0088 30.6929 60.54C31.8491 60.0713 33.0366 59.8369 34.2554 59.8369C35.422 59.8369 36.4793 60.0244 37.4272 60.3994C38.3752 60.7744 39.2085 61.3213 39.9272 62.04L36.3804 65.6025C35.6929 64.915 34.9845 64.5713 34.2554 64.5713C33.62 64.5713 33.0783 64.7952 32.6304 65.2432C32.0575 65.8473 31.771 66.9775 31.771 68.6338C31.771 70.29 32.0575 71.4202 32.6304 72.0244C33.0783 72.4723 33.62 72.6963 34.2554 72.6963C34.995 72.6963 35.7033 72.3577 36.3804 71.6807L39.9272 75.2275ZM47.7554 58.2744H42.5054V54.2744H47.7554V58.2744ZM47.7554 77.2432H42.5054V60.6963H47.7554V77.2432ZM66.4116 70.3369H56.1147C56.1147 71.0869 56.3856 71.7223 56.9272 72.2432C57.4793 72.764 58.2189 73.0244 59.146 73.0244C60.021 73.0244 60.7033 72.9098 61.1929 72.6807C61.6929 72.4515 62.1929 72.0869 62.6929 71.5869L65.8335 74.7119C64.8856 75.6598 63.922 76.3525 62.9429 76.79C61.9637 77.2171 60.6981 77.4307 59.146 77.4307C53.6877 77.4307 50.9585 74.4984 50.9585 68.6338C50.9585 65.8734 51.6668 63.7171 53.0835 62.165C54.5106 60.613 56.37 59.8369 58.6616 59.8369C60.2762 59.8369 61.6668 60.1963 62.8335 60.915C64.0106 61.6338 64.9012 62.6077 65.5054 63.8369C66.1095 65.0661 66.4116 66.4515 66.4116 67.9932V70.3369ZM61.2241 66.8369C61.2241 66.3265 61.1304 65.8786 60.9429 65.4932C60.7762 65.1077 60.495 64.79 60.0991 64.54C59.7137 64.2796 59.2345 64.1494 58.6616 64.1494C58.0887 64.1494 57.6043 64.2796 57.2085 64.54C56.8231 64.79 56.5522 65.1077 56.396 65.4932C56.2085 65.8786 56.1147 66.3265 56.1147 66.8369H61.2241ZM84.3491 77.2432H79.0991V66.9463C79.0991 66.0609 78.87 65.4463 78.4116 65.1025C77.9637 64.7484 77.4897 64.5713 76.9897 64.5713C76.4897 64.5713 76.0106 64.7484 75.5522 65.1025C75.1043 65.4567 74.8804 66.0713 74.8804 66.9463V77.2432H69.6304V60.0244H74.7554V61.4307C75.2554 60.9307 75.87 60.54 76.5991 60.2588C77.3387 59.9775 78.0575 59.8369 78.7554 59.8369C80.3491 59.8369 81.6356 60.3265 82.6147 61.3057C83.2918 61.9619 83.7502 62.6859 83.9897 63.4775C84.2293 64.2692 84.3491 65.1859 84.3491 66.2275V77.2432ZM100.802 75.2275C100.344 75.6859 99.8179 76.0869 99.2241 76.4307C98.6408 76.764 98.0002 77.014 97.3022 77.1807C96.6043 77.3473 95.8804 77.4307 95.1304 77.4307C93.9116 77.4307 92.7241 77.1963 91.5679 76.7275C90.422 76.2588 89.4377 75.363 88.6147 74.04C87.8022 72.7171 87.396 70.915 87.396 68.6338C87.396 66.3525 87.8022 64.5505 88.6147 63.2275C89.4377 61.9046 90.422 61.0088 91.5679 60.54C92.7241 60.0713 93.9116 59.8369 95.1304 59.8369C96.297 59.8369 97.3543 60.0244 98.3022 60.3994C99.2502 60.7744 100.083 61.3213 100.802 62.04L97.2554 65.6025C96.5679 64.915 95.8595 64.5713 95.1304 64.5713C94.495 64.5713 93.9533 64.7952 93.5054 65.2432C92.9325 65.8473 92.646 66.9775 92.646 68.6338C92.646 70.29 92.9325 71.4202 93.5054 72.0244C93.9533 72.4723 94.495 72.6963 95.1304 72.6963C95.87 72.6963 96.5783 72.3577 97.2554 71.6807L100.802 75.2275ZM118.068 70.3369H107.771C107.771 71.0869 108.042 71.7223 108.583 72.2432C109.136 72.764 109.875 73.0244 110.802 73.0244C111.677 73.0244 112.36 72.9098 112.849 72.6807C113.349 72.4515 113.849 72.0869 114.349 71.5869L117.49 74.7119C116.542 75.6598 115.578 76.3525 114.599 76.79C113.62 77.2171 112.354 77.4307 110.802 77.4307C105.344 77.4307 102.615 74.4984 102.615 68.6338C102.615 65.8734 103.323 63.7171 104.74 62.165C106.167 60.613 108.026 59.8369 110.318 59.8369C111.932 59.8369 113.323 60.1963 114.49 60.915C115.667 61.6338 116.557 62.6077 117.162 63.8369C117.766 65.0661 118.068 66.4515 118.068 67.9932V70.3369ZM112.88 66.8369C112.88 66.3265 112.787 65.8786 112.599 65.4932C112.432 65.1077 112.151 64.79 111.755 64.54C111.37 64.2796 110.891 64.1494 110.318 64.1494C109.745 64.1494 109.261 64.2796 108.865 64.54C108.479 64.79 108.208 65.1077 108.052 65.4932C107.865 65.8786 107.771 66.3265 107.771 66.8369H112.88Z"></path>
<path fill="white" d="M158.552 69.6494H153.693V74.5088H148.771V69.6494H143.896V64.7275H148.771V59.8525H153.693V64.7275H158.552V69.6494Z"></path>
<path fill="white" d="M85.5522 114.649H80.6929V119.509H75.771V114.649H70.896V109.728H75.771V104.853H80.6929V109.728H85.5522V114.649Z"></path>
<path fill="white" d="M129.13 121.243H113.63V98.4619H129.13V103.446H119.24V107.259H127.693V112.259H119.24V116.259H129.13V121.243ZM147.505 121.243H142.255V110.946C142.255 110.061 142.026 109.446 141.568 109.103C141.12 108.748 140.646 108.571 140.146 108.571C139.646 108.571 139.167 108.748 138.708 109.103C138.261 109.457 138.037 110.071 138.037 110.946V121.243H132.787V104.024H137.912V105.431C138.412 104.931 139.026 104.54 139.755 104.259C140.495 103.978 141.214 103.837 141.912 103.837C143.505 103.837 144.792 104.326 145.771 105.306C146.448 105.962 146.906 106.686 147.146 107.478C147.386 108.269 147.505 109.186 147.505 110.228V121.243ZM165.302 119.993C165.302 120.993 165.12 121.925 164.755 122.79C164.391 123.655 163.865 124.399 163.177 125.024C162.49 125.66 161.656 126.149 160.677 126.493C159.708 126.837 158.656 127.009 157.521 127.009C156.552 127.009 155.698 126.941 154.958 126.806C154.219 126.67 153.521 126.436 152.865 126.103C152.219 125.78 151.62 125.332 151.068 124.759L154.318 121.493C154.703 121.879 155.141 122.155 155.63 122.321C156.13 122.498 156.677 122.587 157.271 122.587C158.261 122.587 158.969 122.321 159.396 121.79C159.833 121.269 160.052 120.66 160.052 119.962V118.712C159.104 119.67 157.87 120.149 156.349 120.149C154.672 120.149 153.323 119.639 152.302 118.618C151.802 118.118 151.438 117.566 151.208 116.962C150.979 116.347 150.839 115.691 150.787 114.993C150.735 114.295 150.708 113.295 150.708 111.993C150.708 110.993 150.719 110.228 150.74 109.696C150.771 109.165 150.839 108.623 150.943 108.071C151.047 107.509 151.203 107.014 151.412 106.587C151.62 106.16 151.917 105.754 152.302 105.368C152.781 104.889 153.375 104.514 154.083 104.243C154.802 103.972 155.568 103.837 156.38 103.837C157.224 103.837 157.943 103.967 158.537 104.228C159.13 104.488 159.688 104.889 160.208 105.431V104.024H165.302V119.993ZM160.052 111.993C160.052 111.285 160.011 110.691 159.927 110.212C159.844 109.733 159.651 109.342 159.349 109.04C159.047 108.728 158.599 108.571 158.005 108.571C157.412 108.571 156.964 108.728 156.662 109.04C156.36 109.342 156.167 109.733 156.083 110.212C156 110.681 155.958 111.274 155.958 111.993C155.958 112.701 156 113.295 156.083 113.774C156.167 114.254 156.36 114.649 156.662 114.962C156.964 115.264 157.412 115.415 158.005 115.415C158.599 115.415 159.047 115.264 159.349 114.962C159.651 114.649 159.844 114.259 159.927 113.79C160.011 113.311 160.052 112.712 160.052 111.993ZM174.537 102.274H169.287V98.2744H174.537V102.274ZM174.537 121.243H169.287V104.696H174.537V121.243ZM193.224 121.243H187.974V110.946C187.974 110.061 187.745 109.446 187.287 109.103C186.839 108.748 186.365 108.571 185.865 108.571C185.365 108.571 184.886 108.748 184.427 109.103C183.979 109.457 183.755 110.071 183.755 110.946V121.243H178.505V104.024H183.63V105.431C184.13 104.931 184.745 104.54 185.474 104.259C186.214 103.978 186.932 103.837 187.63 103.837C189.224 103.837 190.511 104.326 191.49 105.306C192.167 105.962 192.625 106.686 192.865 107.478C193.104 108.269 193.224 109.186 193.224 110.228V121.243ZM211.724 114.337H201.427C201.427 115.087 201.698 115.722 202.24 116.243C202.792 116.764 203.531 117.024 204.458 117.024C205.333 117.024 206.016 116.91 206.505 116.681C207.005 116.451 207.505 116.087 208.005 115.587L211.146 118.712C210.198 119.66 209.235 120.353 208.255 120.79C207.276 121.217 206.011 121.431 204.458 121.431C199 121.431 196.271 118.498 196.271 112.634C196.271 109.873 196.979 107.717 198.396 106.165C199.823 104.613 201.682 103.837 203.974 103.837C205.589 103.837 206.979 104.196 208.146 104.915C209.323 105.634 210.214 106.608 210.818 107.837C211.422 109.066 211.724 110.451 211.724 111.993V114.337ZM206.537 110.837C206.537 110.326 206.443 109.879 206.255 109.493C206.089 109.108 205.807 108.79 205.412 108.54C205.026 108.28 204.547 108.149 203.974 108.149C203.401 108.149 202.917 108.28 202.521 108.54C202.136 108.79 201.865 109.108 201.708 109.493C201.521 109.879 201.427 110.326 201.427 110.837H206.537ZM229.63 114.337H219.333C219.333 115.087 219.604 115.722 220.146 116.243C220.698 116.764 221.438 117.024 222.365 117.024C223.24 117.024 223.922 116.91 224.412 116.681C224.912 116.451 225.412 116.087 225.912 115.587L229.052 118.712C228.104 119.66 227.141 120.353 226.162 120.79C225.182 121.217 223.917 121.431 222.365 121.431C216.906 121.431 214.177 118.498 214.177 112.634C214.177 109.873 214.886 107.717 216.302 106.165C217.729 104.613 219.589 103.837 221.88 103.837C223.495 103.837 224.886 104.196 226.052 104.915C227.229 105.634 228.12 106.608 228.724 107.837C229.328 109.066 229.63 110.451 229.63 111.993V114.337ZM224.443 110.837C224.443 110.326 224.349 109.879 224.162 109.493C223.995 109.108 223.714 108.79 223.318 108.54C222.932 108.28 222.453 108.149 221.88 108.149C221.307 108.149 220.823 108.28 220.427 108.54C220.042 108.79 219.771 109.108 219.615 109.493C219.427 109.879 219.333 110.326 219.333 110.837H224.443ZM246.068 105.431L242.099 109.462C241.807 109.17 241.526 108.951 241.255 108.806C240.985 108.649 240.636 108.571 240.208 108.571C239.719 108.571 239.245 108.754 238.787 109.118C238.328 109.472 238.099 110.082 238.099 110.946V121.243H232.849V104.024H237.974V105.431C238.412 104.993 238.985 104.618 239.693 104.306C240.412 103.993 241.193 103.837 242.037 103.837C242.891 103.837 243.63 103.957 244.255 104.196C244.88 104.436 245.485 104.847 246.068 105.431ZM253.318 102.274H248.068V98.2744H253.318V102.274ZM253.318 121.243H248.068V104.696H253.318V121.243ZM272.005 121.243H266.755V110.946C266.755 110.061 266.526 109.446 266.068 109.103C265.62 108.748 265.146 108.571 264.646 108.571C264.146 108.571 263.667 108.748 263.208 109.103C262.761 109.457 262.537 110.071 262.537 110.946V121.243H257.287V104.024H262.412V105.431C262.912 104.931 263.526 104.54 264.255 104.259C264.995 103.978 265.714 103.837 266.412 103.837C268.005 103.837 269.292 104.326 270.271 105.306C270.948 105.962 271.406 106.686 271.646 107.478C271.886 108.269 272.005 109.186 272.005 110.228V121.243ZM289.802 119.993C289.802 120.993 289.62 121.925 289.255 122.79C288.891 123.655 288.365 124.399 287.677 125.024C286.99 125.66 286.156 126.149 285.177 126.493C284.208 126.837 283.156 127.009 282.021 127.009C281.052 127.009 280.198 126.941 279.458 126.806C278.719 126.67 278.021 126.436 277.365 126.103C276.719 125.78 276.12 125.332 275.568 124.759L278.818 121.493C279.203 121.879 279.641 122.155 280.13 122.321C280.63 122.498 281.177 122.587 281.771 122.587C282.761 122.587 283.469 122.321 283.896 121.79C284.333 121.269 284.552 120.66 284.552 119.962V118.712C283.604 119.67 282.37 120.149 280.849 120.149C279.172 120.149 277.823 119.639 276.802 118.618C276.302 118.118 275.938 117.566 275.708 116.962C275.479 116.347 275.339 115.691 275.287 114.993C275.235 114.295 275.208 113.295 275.208 111.993C275.208 110.993 275.219 110.228 275.24 109.696C275.271 109.165 275.339 108.623 275.443 108.071C275.547 107.509 275.703 107.014 275.912 106.587C276.12 106.16 276.417 105.754 276.802 105.368C277.281 104.889 277.875 104.514 278.583 104.243C279.302 103.972 280.068 103.837 280.88 103.837C281.724 103.837 282.443 103.967 283.037 104.228C283.63 104.488 284.188 104.889 284.708 105.431V104.024H289.802V119.993ZM284.552 111.993C284.552 111.285 284.511 110.691 284.427 110.212C284.344 109.733 284.151 109.342 283.849 109.04C283.547 108.728 283.099 108.571 282.505 108.571C281.912 108.571 281.464 108.728 281.162 109.04C280.86 109.342 280.667 109.733 280.583 110.212C280.5 110.681 280.458 111.274 280.458 111.993C280.458 112.701 280.5 113.295 280.583 113.774C280.667 114.254 280.86 114.649 281.162 114.962C281.464 115.264 281.912 115.415 282.505 115.415C283.099 115.415 283.547 115.264 283.849 114.962C284.151 114.649 284.344 114.259 284.427 113.79C284.511 113.311 284.552 112.712 284.552 111.993Z"></path>
</svg>
