<svg xmlns="http://www.w3.org/2000/svg" fill="none" viewBox="0 0 357 135" height="135" width="357">
<rect fill="#FFD700" height="45" width="337.671" x="11"></rect>
<rect fill="black" height="45" width="186" y="45" x="171"></rect>
<rect fill="#75D200" height="45" width="131" y="45"></rect>
<rect fill="#FF0000" height="45" width="40" y="45" x="131"></rect>
<path fill="black" d="M48.3203 11.2188L42.0859 34H37.5078L33.8359 22.7656L30.1484 34H25.6016L19.3359 11.2188H25.1953L28.1641 23.25L31.8516 11.2188H35.8203L39.4922 23.25L42.4766 11.2188H48.3203ZM64.8516 34H59.6016V23.5625C59.6016 22.7396 59.3828 22.1615 58.9453 21.8281C58.5182 21.4948 58.0651 21.3281 57.5859 21.3281C57.1068 21.3281 56.6484 21.5 56.2109 21.8438C55.7839 22.1875 55.5703 22.7604 55.5703 23.5625V34H50.3203V11.2188H55.5703V18.1875C56.0911 17.6667 56.6797 17.2708 57.3359 17C58.0026 16.7292 58.6745 16.5938 59.3516 16.5938C60.5495 16.5938 61.5599 16.8646 62.3828 17.4062C63.2057 17.9375 63.8203 18.6823 64.2266 19.6406C64.6432 20.599 64.8516 21.6615 64.8516 22.8281V34ZM82.8984 25.3906C82.8984 27.0885 82.763 28.4219 82.4922 29.3906C82.2214 30.349 81.7318 31.2135 81.0234 31.9844C79.638 33.4531 77.7891 34.1875 75.4766 34.1875C73.1536 34.1875 71.3099 33.4531 69.9453 31.9844C69.4766 31.4844 69.1016 30.9375 68.8203 30.3438C68.5391 29.75 68.3411 29.0729 68.2266 28.3125C68.112 27.5417 68.0547 26.5677 68.0547 25.3906C68.0547 24.224 68.112 23.2604 68.2266 22.5C68.3411 21.7292 68.5391 21.0521 68.8203 20.4688C69.1016 19.875 69.4766 19.3177 69.9453 18.7969C70.5495 18.1615 71.3047 17.6354 72.2109 17.2188C73.1172 16.8021 74.2057 16.5938 75.4766 16.5938C76.7474 16.5938 77.8359 16.8021 78.7422 17.2188C79.6589 17.625 80.4193 18.151 81.0234 18.7969C81.7318 19.5677 82.2214 20.4375 82.4922 21.4062C82.763 22.375 82.8984 23.7031 82.8984 25.3906ZM77.6484 25.3906C77.6484 24.3906 77.5964 23.6198 77.4922 23.0781C77.3984 22.526 77.1953 22.1042 76.8828 21.8125C76.5703 21.4896 76.1016 21.3281 75.4766 21.3281C74.862 21.3281 74.3932 21.4896 74.0703 21.8125C73.7578 22.125 73.5495 22.5729 73.4453 23.1562C73.3516 23.7292 73.3047 24.474 73.3047 25.3906C73.3047 26.3073 73.3516 27.0521 73.4453 27.625C73.5495 28.1875 73.7578 28.6354 74.0703 28.9688C74.3932 29.2917 74.862 29.4531 75.4766 29.4531C76.1016 29.4531 76.5703 29.2969 76.8828 28.9844C77.1953 28.6615 77.3984 28.2344 77.4922 27.7031C77.5964 27.1615 77.6484 26.3906 77.6484 25.3906ZM111.711 34H105.227L101.195 25.5156H99.3047V34H93.6953V11.2188H102.727C104.362 11.2188 105.763 11.5625 106.93 12.25C108.096 12.9271 108.982 13.8229 109.586 14.9375C110.201 16.0521 110.508 17.2552 110.508 18.5469C110.508 19.974 110.143 21.1979 109.414 22.2188C108.695 23.2292 107.82 23.9896 106.789 24.5L111.711 34ZM104.898 18.5469C104.898 18.1406 104.799 17.7604 104.602 17.4062C104.414 17.0521 104.133 16.7708 103.758 16.5625C103.393 16.3438 102.966 16.2344 102.477 16.2344H99.3047V20.8438H102.477C102.966 20.8438 103.393 20.7396 103.758 20.5312C104.133 20.3125 104.414 20.0312 104.602 19.6875C104.799 19.3333 104.898 18.9531 104.898 18.5469ZM128.82 34H123.695V32.5938C123.185 33.1042 122.565 33.5 121.836 33.7812C121.107 34.0521 120.393 34.1875 119.695 34.1875C118.112 34.1875 116.82 33.6979 115.82 32.7188C115.154 32.0521 114.701 31.3281 114.461 30.5469C114.221 29.7552 114.102 28.8385 114.102 27.7969V16.7812H119.352V27.0938C119.352 27.9583 119.576 28.5677 120.023 28.9219C120.482 29.276 120.961 29.4531 121.461 29.4531C121.961 29.4531 122.435 29.2812 122.883 28.9375C123.341 28.5833 123.57 27.9688 123.57 27.0938V16.7812H128.82V34ZM147.508 34H142.258V23.7031C142.258 22.8177 142.029 22.2031 141.57 21.8594C141.122 21.5052 140.648 21.3281 140.148 21.3281C139.648 21.3281 139.169 21.5052 138.711 21.8594C138.263 22.2135 138.039 22.8281 138.039 23.7031V34H132.789V16.7812H137.914V18.1875C138.414 17.6875 139.029 17.2969 139.758 17.0156C140.497 16.7344 141.216 16.5938 141.914 16.5938C143.508 16.5938 144.794 17.0833 145.773 18.0625C146.451 18.7188 146.909 19.4427 147.148 20.2344C147.388 21.026 147.508 21.9427 147.508 22.9844V34ZM164.602 28.375C164.602 29.6771 164.268 30.7656 163.602 31.6406C162.935 32.5052 162.039 33.1458 160.914 33.5625C159.789 33.9792 158.534 34.1875 157.148 34.1875C156.086 34.1875 155.159 34.1354 154.367 34.0312C153.586 33.9375 152.789 33.7135 151.977 33.3594C151.174 33.0052 150.398 32.4531 149.648 31.7031L153.055 28.2969C154.013 29.2656 155.409 29.75 157.242 29.75C157.753 29.75 158.253 29.6615 158.742 29.4844C159.232 29.3073 159.477 29.0208 159.477 28.625C159.477 27.9688 159.06 27.6042 158.227 27.5312L155.57 27.2812C154.57 27.1875 153.69 26.9583 152.93 26.5938C152.18 26.2188 151.602 25.6823 151.195 24.9844C150.789 24.276 150.586 23.375 150.586 22.2812C150.586 21.375 150.773 20.5573 151.148 19.8281C151.534 19.099 152.044 18.5 152.68 18.0312C153.315 17.5625 154.039 17.2083 154.852 16.9688C155.674 16.7188 156.534 16.5938 157.43 16.5938C158.961 16.5938 160.273 16.7448 161.367 17.0469C162.461 17.349 163.409 17.901 164.211 18.7031L160.977 21.9375C160.289 21.25 159.076 20.9062 157.336 20.9062C156.763 20.9062 156.336 21.0104 156.055 21.2188C155.773 21.4271 155.633 21.6562 155.633 21.9062C155.633 22.4583 156.008 22.776 156.758 22.8594L159.414 23.125C160.591 23.2292 161.565 23.5208 162.336 24C163.107 24.4688 163.674 25.0781 164.039 25.8281C164.414 26.5781 164.602 27.4271 164.602 28.375ZM190.352 16.2031H184.742V34H179.148V16.2031H173.539V11.2188H190.352V16.2031ZM207.82 34H202.57V23.5625C202.57 22.7396 202.352 22.1615 201.914 21.8281C201.487 21.4948 201.034 21.3281 200.555 21.3281C200.076 21.3281 199.617 21.5 199.18 21.8438C198.753 22.1875 198.539 22.7604 198.539 23.5625V34H193.289V11.2188H198.539V18.1875C199.06 17.6667 199.648 17.2708 200.305 17C200.971 16.7292 201.643 16.5938 202.32 16.5938C203.518 16.5938 204.529 16.8646 205.352 17.4062C206.174 17.9375 206.789 18.6823 207.195 19.6406C207.612 20.599 207.82 21.6615 207.82 22.8281V34ZM226.32 27.0938H216.023C216.023 27.8438 216.294 28.4792 216.836 29C217.388 29.5208 218.128 29.7812 219.055 29.7812C219.93 29.7812 220.612 29.6667 221.102 29.4375C221.602 29.2083 222.102 28.8438 222.602 28.3438L225.742 31.4688C224.794 32.4167 223.831 33.1094 222.852 33.5469C221.872 33.974 220.607 34.1875 219.055 34.1875C213.596 34.1875 210.867 31.2552 210.867 25.3906C210.867 22.6302 211.576 20.474 212.992 18.9219C214.419 17.3698 216.279 16.5938 218.57 16.5938C220.185 16.5938 221.576 16.9531 222.742 17.6719C223.919 18.3906 224.81 19.3646 225.414 20.5938C226.018 21.8229 226.32 23.2083 226.32 24.75V27.0938ZM221.133 23.5938C221.133 23.0833 221.039 22.6354 220.852 22.25C220.685 21.8646 220.404 21.5469 220.008 21.2969C219.622 21.0365 219.143 20.9062 218.57 20.9062C217.997 20.9062 217.513 21.0365 217.117 21.2969C216.732 21.5469 216.461 21.8646 216.305 22.25C216.117 22.6354 216.023 23.0833 216.023 23.5938H221.133ZM263.664 11.2188L257.43 34H252.852L249.18 22.7656L245.492 34H240.945L234.68 11.2188H240.539L243.508 23.25L247.195 11.2188H251.164L254.836 23.25L257.82 11.2188H263.664ZM279.898 25.3906C279.898 27.0885 279.763 28.4219 279.492 29.3906C279.221 30.349 278.732 31.2135 278.023 31.9844C276.638 33.4531 274.789 34.1875 272.477 34.1875C270.154 34.1875 268.31 33.4531 266.945 31.9844C266.477 31.4844 266.102 30.9375 265.82 30.3438C265.539 29.75 265.341 29.0729 265.227 28.3125C265.112 27.5417 265.055 26.5677 265.055 25.3906C265.055 24.224 265.112 23.2604 265.227 22.5C265.341 21.7292 265.539 21.0521 265.82 20.4688C266.102 19.875 266.477 19.3177 266.945 18.7969C267.549 18.1615 268.305 17.6354 269.211 17.2188C270.117 16.8021 271.206 16.5938 272.477 16.5938C273.747 16.5938 274.836 16.8021 275.742 17.2188C276.659 17.625 277.419 18.151 278.023 18.7969C278.732 19.5677 279.221 20.4375 279.492 21.4062C279.763 22.375 279.898 23.7031 279.898 25.3906ZM274.648 25.3906C274.648 24.3906 274.596 23.6198 274.492 23.0781C274.398 22.526 274.195 22.1042 273.883 21.8125C273.57 21.4896 273.102 21.3281 272.477 21.3281C271.862 21.3281 271.393 21.4896 271.07 21.8125C270.758 22.125 270.549 22.5729 270.445 23.1562C270.352 23.7292 270.305 24.474 270.305 25.3906C270.305 26.3073 270.352 27.0521 270.445 27.625C270.549 28.1875 270.758 28.6354 271.07 28.9688C271.393 29.2917 271.862 29.4531 272.477 29.4531C273.102 29.4531 273.57 29.2969 273.883 28.9844C274.195 28.6615 274.398 28.2344 274.492 27.7031C274.596 27.1615 274.648 26.3906 274.648 25.3906ZM296.477 18.1875L292.508 22.2188C292.216 21.9271 291.935 21.7083 291.664 21.5625C291.393 21.4062 291.044 21.3281 290.617 21.3281C290.128 21.3281 289.654 21.5104 289.195 21.875C288.737 22.2292 288.508 22.8385 288.508 23.7031V34H283.258V16.7812H288.383V18.1875C288.82 17.75 289.393 17.375 290.102 17.0625C290.82 16.75 291.602 16.5938 292.445 16.5938C293.299 16.5938 294.039 16.7135 294.664 16.9531C295.289 17.1927 295.893 17.6042 296.477 18.1875ZM306.445 34H303.664C302.466 34 301.466 33.7552 300.664 33.2656C299.862 32.7656 299.268 32.125 298.883 31.3438C298.508 30.5521 298.32 29.7396 298.32 28.9062V11.2188H303.57V28.5312C303.57 29.2292 303.919 29.5781 304.617 29.5781H306.445V34ZM323.617 34H318.539V32.5938C317.966 33.1458 317.378 33.5521 316.773 33.8125C316.169 34.0625 315.435 34.1875 314.57 34.1875C312.831 34.1875 311.43 33.6667 310.367 32.625C309.701 31.9583 309.268 31.1042 309.07 30.0625C308.872 29.0104 308.773 27.7188 308.773 26.1875V25.3906V24.5938C308.773 23.0625 308.872 21.776 309.07 20.7344C309.268 19.6823 309.701 18.8229 310.367 18.1562C310.69 17.8333 311.076 17.5521 311.523 17.3125C311.982 17.0729 312.456 16.8958 312.945 16.7812C313.445 16.6562 313.977 16.5938 314.539 16.5938C316.133 16.5938 317.409 17.0729 318.367 18.0312V11.2188H323.617V34ZM318.367 25.3906C318.367 24.4844 318.315 23.7396 318.211 23.1562C318.117 22.5625 317.914 22.1094 317.602 21.7969C317.299 21.4844 316.831 21.3281 316.195 21.3281C315.299 21.3281 314.711 21.651 314.43 22.2969C314.159 22.9427 314.023 23.974 314.023 25.3906C314.023 26.2969 314.07 27.0469 314.164 27.6406C314.268 28.224 314.471 28.6719 314.773 28.9844C315.086 29.2969 315.56 29.4531 316.195 29.4531C316.831 29.4531 317.299 29.2969 317.602 28.9844C317.914 28.6719 318.117 28.224 318.211 27.6406C318.315 27.0469 318.367 26.2969 318.367 25.3906ZM341.867 17.75C341.867 19.0729 341.326 20.4375 340.242 21.8438L338.039 24.625C337.862 24.8333 337.721 25.0781 337.617 25.3594C337.513 25.6406 337.461 25.8958 337.461 26.125V26.4219H332.211V25.6875C332.211 24.9688 332.31 24.3333 332.508 23.7812C332.706 23.2292 333.044 22.6771 333.523 22.125L335.758 19.5C336.341 18.8438 336.633 18.25 336.633 17.7188C336.633 17.125 336.471 16.651 336.148 16.2969C335.826 15.9427 335.346 15.7656 334.711 15.7656C334.065 15.7656 333.581 15.9479 333.258 16.3125C332.945 16.6771 332.789 17.1667 332.789 17.7812H327.539C327.539 16.7083 327.727 15.75 328.102 14.9062C328.487 14.0521 328.997 13.3438 329.633 12.7812C330.279 12.2188 331.034 11.7865 331.898 11.4844C332.773 11.1823 333.711 11.0312 334.711 11.0312C336.721 11.0312 338.414 11.6198 339.789 12.7969C341.174 13.974 341.867 15.625 341.867 17.75ZM337.523 34H332.148V28.8438H337.523V34Z"></path>
<path fill="white" d="M197.766 60.2031H192.156V78H186.562V60.2031H180.953V55.2188H197.766V60.2031ZM215.391 71.0938H205.094C205.094 71.8438 205.365 72.4792 205.906 73C206.458 73.5208 207.198 73.7812 208.125 73.7812C209 73.7812 209.682 73.6667 210.172 73.4375C210.672 73.2083 211.172 72.8438 211.672 72.3438L214.812 75.4688C213.865 76.4167 212.901 77.1094 211.922 77.5469C210.943 77.974 209.677 78.1875 208.125 78.1875C202.667 78.1875 199.938 75.2552 199.938 69.3906C199.938 66.6302 200.646 64.474 202.062 62.9219C203.49 61.3698 205.349 60.5938 207.641 60.5938C209.255 60.5938 210.646 60.9531 211.812 61.6719C212.99 62.3906 213.88 63.3646 214.484 64.5938C215.089 65.8229 215.391 67.2083 215.391 68.75V71.0938ZM210.203 67.5938C210.203 67.0833 210.109 66.6354 209.922 66.25C209.755 65.8646 209.474 65.5469 209.078 65.2969C208.693 65.0365 208.214 64.9062 207.641 64.9062C207.068 64.9062 206.583 65.0365 206.188 65.2969C205.802 65.5469 205.531 65.8646 205.375 66.25C205.188 66.6354 205.094 67.0833 205.094 67.5938H210.203ZM231.25 75.9844C230.792 76.4427 230.266 76.8438 229.672 77.1875C229.089 77.5208 228.448 77.7708 227.75 77.9375C227.052 78.1042 226.328 78.1875 225.578 78.1875C224.359 78.1875 223.172 77.9531 222.016 77.4844C220.87 77.0156 219.885 76.1198 219.062 74.7969C218.25 73.474 217.844 71.6719 217.844 69.3906C217.844 67.1094 218.25 65.3073 219.062 63.9844C219.885 62.6615 220.87 61.7656 222.016 61.2969C223.172 60.8281 224.359 60.5938 225.578 60.5938C226.745 60.5938 227.802 60.7812 228.75 61.1562C229.698 61.5312 230.531 62.0781 231.25 62.7969L227.703 66.3594C227.016 65.6719 226.307 65.3281 225.578 65.3281C224.943 65.3281 224.401 65.5521 223.953 66C223.38 66.6042 223.094 67.7344 223.094 69.3906C223.094 71.0469 223.38 72.1771 223.953 72.7812C224.401 73.2292 224.943 73.4531 225.578 73.4531C226.318 73.4531 227.026 73.1146 227.703 72.4375L231.25 75.9844ZM248.359 78H243.109V67.5625C243.109 66.7396 242.891 66.1615 242.453 65.8281C242.026 65.4948 241.573 65.3281 241.094 65.3281C240.615 65.3281 240.156 65.5 239.719 65.8438C239.292 66.1875 239.078 66.7604 239.078 67.5625V78H233.828V55.2188H239.078V62.1875C239.599 61.6667 240.188 61.2708 240.844 61C241.51 60.7292 242.182 60.5938 242.859 60.5938C244.057 60.5938 245.068 60.8646 245.891 61.4062C246.714 61.9375 247.328 62.6823 247.734 63.6406C248.151 64.599 248.359 65.6615 248.359 66.8281V78ZM266.891 78H261.641V67.7031C261.641 66.8177 261.411 66.2031 260.953 65.8594C260.505 65.5052 260.031 65.3281 259.531 65.3281C259.031 65.3281 258.552 65.5052 258.094 65.8594C257.646 66.2135 257.422 66.8281 257.422 67.7031V78H252.172V60.7812H257.297V62.1875C257.797 61.6875 258.411 61.2969 259.141 61.0156C259.88 60.7344 260.599 60.5938 261.297 60.5938C262.891 60.5938 264.177 61.0833 265.156 62.0625C265.833 62.7188 266.292 63.4427 266.531 64.2344C266.771 65.026 266.891 65.9427 266.891 66.9844V78ZM284.938 69.3906C284.938 71.0885 284.802 72.4219 284.531 73.3906C284.26 74.349 283.771 75.2135 283.062 75.9844C281.677 77.4531 279.828 78.1875 277.516 78.1875C275.193 78.1875 273.349 77.4531 271.984 75.9844C271.516 75.4844 271.141 74.9375 270.859 74.3438C270.578 73.75 270.38 73.0729 270.266 72.3125C270.151 71.5417 270.094 70.5677 270.094 69.3906C270.094 68.224 270.151 67.2604 270.266 66.5C270.38 65.7292 270.578 65.0521 270.859 64.4688C271.141 63.875 271.516 63.3177 271.984 62.7969C272.589 62.1615 273.344 61.6354 274.25 61.2188C275.156 60.8021 276.245 60.5938 277.516 60.5938C278.786 60.5938 279.875 60.8021 280.781 61.2188C281.698 61.625 282.458 62.151 283.062 62.7969C283.771 63.5677 284.26 64.4375 284.531 65.4062C284.802 66.375 284.938 67.7031 284.938 69.3906ZM279.688 69.3906C279.688 68.3906 279.635 67.6198 279.531 67.0781C279.438 66.526 279.234 66.1042 278.922 65.8125C278.609 65.4896 278.141 65.3281 277.516 65.3281C276.901 65.3281 276.432 65.4896 276.109 65.8125C275.797 66.125 275.589 66.5729 275.484 67.1562C275.391 67.7292 275.344 68.474 275.344 69.3906C275.344 70.3073 275.391 71.0521 275.484 71.625C275.589 72.1875 275.797 72.6354 276.109 72.9688C276.432 73.2917 276.901 73.4531 277.516 73.4531C278.141 73.4531 278.609 73.2969 278.922 72.9844C279.234 72.6615 279.438 72.2344 279.531 71.7031C279.635 71.1615 279.688 70.3906 279.688 69.3906ZM296.266 78H293.484C292.286 78 291.286 77.7552 290.484 77.2656C289.682 76.7656 289.089 76.125 288.703 75.3438C288.328 74.5521 288.141 73.7396 288.141 72.9062V55.2188H293.391V72.5312C293.391 73.2292 293.74 73.5781 294.438 73.5781H296.266V78ZM313.438 69.3906C313.438 71.0885 313.302 72.4219 313.031 73.3906C312.76 74.349 312.271 75.2135 311.562 75.9844C310.177 77.4531 308.328 78.1875 306.016 78.1875C303.693 78.1875 301.849 77.4531 300.484 75.9844C300.016 75.4844 299.641 74.9375 299.359 74.3438C299.078 73.75 298.88 73.0729 298.766 72.3125C298.651 71.5417 298.594 70.5677 298.594 69.3906C298.594 68.224 298.651 67.2604 298.766 66.5C298.88 65.7292 299.078 65.0521 299.359 64.4688C299.641 63.875 300.016 63.3177 300.484 62.7969C301.089 62.1615 301.844 61.6354 302.75 61.2188C303.656 60.8021 304.745 60.5938 306.016 60.5938C307.286 60.5938 308.375 60.8021 309.281 61.2188C310.198 61.625 310.958 62.151 311.562 62.7969C312.271 63.5677 312.76 64.4375 313.031 65.4062C313.302 66.375 313.438 67.7031 313.438 69.3906ZM308.188 69.3906C308.188 68.3906 308.135 67.6198 308.031 67.0781C307.938 66.526 307.734 66.1042 307.422 65.8125C307.109 65.4896 306.641 65.3281 306.016 65.3281C305.401 65.3281 304.932 65.4896 304.609 65.8125C304.297 66.125 304.089 66.5729 303.984 67.1562C303.891 67.7292 303.844 68.474 303.844 69.3906C303.844 70.3073 303.891 71.0521 303.984 71.625C304.089 72.1875 304.297 72.6354 304.609 72.9688C304.932 73.2917 305.401 73.4531 306.016 73.4531C306.641 73.4531 307.109 73.2969 307.422 72.9844C307.734 72.6615 307.938 72.2344 308.031 71.7031C308.135 71.1615 308.188 70.3906 308.188 69.3906ZM330.781 76.75C330.781 77.75 330.599 78.6823 330.234 79.5469C329.87 80.4115 329.344 81.1562 328.656 81.7812C327.969 82.4167 327.135 82.9062 326.156 83.25C325.188 83.5938 324.135 83.7656 323 83.7656C322.031 83.7656 321.177 83.6979 320.438 83.5625C319.698 83.4271 319 83.1927 318.344 82.8594C317.698 82.5365 317.099 82.0885 316.547 81.5156L319.797 78.25C320.182 78.6354 320.62 78.9115 321.109 79.0781C321.609 79.2552 322.156 79.3438 322.75 79.3438C323.74 79.3438 324.448 79.0781 324.875 78.5469C325.312 78.026 325.531 77.4167 325.531 76.7188V75.4688C324.583 76.4271 323.349 76.9062 321.828 76.9062C320.151 76.9062 318.802 76.3958 317.781 75.375C317.281 74.875 316.917 74.3229 316.688 73.7188C316.458 73.1042 316.318 72.4479 316.266 71.75C316.214 71.0521 316.188 70.0521 316.188 68.75C316.188 67.75 316.198 66.9844 316.219 66.4531C316.25 65.9219 316.318 65.3802 316.422 64.8281C316.526 64.2656 316.682 63.7708 316.891 63.3438C317.099 62.9167 317.396 62.5104 317.781 62.125C318.26 61.6458 318.854 61.2708 319.562 61C320.281 60.7292 321.047 60.5938 321.859 60.5938C322.703 60.5938 323.422 60.724 324.016 60.9844C324.609 61.2448 325.167 61.6458 325.688 62.1875V60.7812H330.781V76.75ZM325.531 68.75C325.531 68.0417 325.49 67.4479 325.406 66.9688C325.323 66.4896 325.13 66.099 324.828 65.7969C324.526 65.4844 324.078 65.3281 323.484 65.3281C322.891 65.3281 322.443 65.4844 322.141 65.7969C321.839 66.099 321.646 66.4896 321.562 66.9688C321.479 67.4375 321.438 68.0312 321.438 68.75C321.438 69.4583 321.479 70.0521 321.562 70.5312C321.646 71.0104 321.839 71.4062 322.141 71.7188C322.443 72.0208 322.891 72.1719 323.484 72.1719C324.078 72.1719 324.526 72.0208 324.828 71.7188C325.13 71.4062 325.323 71.0156 325.406 70.5469C325.49 70.0677 325.531 69.4688 325.531 68.75ZM349.484 60.7812L342.344 80.0469C342.01 81.0052 341.562 81.7604 341 82.3125C340.104 83.2812 338.818 83.7656 337.141 83.7656H335.156V79.0312H336.266C336.755 79.0312 337.13 78.9427 337.391 78.7656C337.651 78.5885 337.865 78.25 338.031 77.75L338.516 76.2969L332.781 60.7812H338.281L341.203 69.7188L343.984 60.7812H349.484Z"></path>
<path fill="white" d="M27.5938 71.3267C27.5938 72.8162 27.1979 74.1027 26.4062 75.186C25.625 76.2694 24.5625 77.0923 23.2188 77.6548C21.8854 78.2069 20.4115 78.4829 18.7969 78.4829C16.9115 78.4829 15.2708 78.259 13.875 77.811C12.4792 77.3631 11.2396 76.5871 10.1562 75.4829L13.75 71.8892C14.3125 72.4517 15.0521 72.8631 15.9688 73.1235C16.8854 73.3735 17.8385 73.4985 18.8281 73.4985C21.0052 73.4985 22.0938 72.8162 22.0938 71.4517C22.0938 70.8683 21.9427 70.4204 21.6406 70.1079C21.3385 69.7954 20.8385 69.5923 20.1406 69.4985L17.3906 69.1079C15.3698 68.8267 13.8438 68.1548 12.8125 67.0923C11.7708 66.0194 11.25 64.4933 11.25 62.5142C11.25 61.1287 11.5833 59.8944 12.25 58.811C12.9271 57.7173 13.8906 56.8631 15.1406 56.2485C16.401 55.634 17.875 55.3267 19.5625 55.3267C21.2396 55.3267 22.7031 55.5454 23.9531 55.9829C25.2135 56.41 26.3125 57.0975 27.25 58.0454L23.7344 61.561C23.151 60.9777 22.5208 60.6079 21.8438 60.4517C21.1667 60.2954 20.3542 60.2173 19.4062 60.2173C18.5104 60.2173 17.8281 60.4308 17.3594 60.8579C16.8906 61.285 16.6562 61.7746 16.6562 62.3267C16.6562 62.7329 16.8073 63.0871 17.1094 63.3892C17.4635 63.7433 17.9844 63.9673 18.6719 64.061L21.4219 64.436C23.4219 64.7277 24.9167 65.3579 25.9062 66.3267C26.5 66.8996 26.9271 67.5975 27.1875 68.4204C27.4583 69.2329 27.5938 70.2017 27.5938 71.3267ZM43.5938 76.2798C43.1354 76.7381 42.6094 77.1392 42.0156 77.4829C41.4323 77.8162 40.7917 78.0662 40.0938 78.2329C39.3958 78.3996 38.6719 78.4829 37.9219 78.4829C36.7031 78.4829 35.5156 78.2485 34.3594 77.7798C33.2135 77.311 32.2292 76.4152 31.4062 75.0923C30.5938 73.7694 30.1875 71.9673 30.1875 69.686C30.1875 67.4048 30.5938 65.6027 31.4062 64.2798C32.2292 62.9569 33.2135 62.061 34.3594 61.5923C35.5156 61.1235 36.7031 60.8892 37.9219 60.8892C39.0885 60.8892 40.1458 61.0767 41.0938 61.4517C42.0417 61.8267 42.875 62.3735 43.5938 63.0923L40.0469 66.6548C39.3594 65.9673 38.651 65.6235 37.9219 65.6235C37.2865 65.6235 36.7448 65.8475 36.2969 66.2954C35.724 66.8996 35.4375 68.0298 35.4375 69.686C35.4375 71.3423 35.724 72.4725 36.2969 73.0767C36.7448 73.5246 37.2865 73.7485 37.9219 73.7485C38.6615 73.7485 39.3698 73.41 40.0469 72.7329L43.5938 76.2798ZM51.4219 59.3267H46.1719V55.3267H51.4219V59.3267ZM51.4219 78.2954H46.1719V61.7485H51.4219V78.2954ZM70.0781 71.3892H59.7812C59.7812 72.1392 60.0521 72.7746 60.5938 73.2954C61.1458 73.8162 61.8854 74.0767 62.8125 74.0767C63.6875 74.0767 64.3698 73.9621 64.8594 73.7329C65.3594 73.5037 65.8594 73.1392 66.3594 72.6392L69.5 75.7642C68.5521 76.7121 67.5885 77.4048 66.6094 77.8423C65.6302 78.2694 64.3646 78.4829 62.8125 78.4829C57.3542 78.4829 54.625 75.5506 54.625 69.686C54.625 66.9256 55.3333 64.7694 56.75 63.2173C58.1771 61.6652 60.0365 60.8892 62.3281 60.8892C63.9427 60.8892 65.3333 61.2485 66.5 61.9673C67.6771 62.686 68.5677 63.66 69.1719 64.8892C69.776 66.1183 70.0781 67.5037 70.0781 69.0454V71.3892ZM64.8906 67.8892C64.8906 67.3787 64.7969 66.9308 64.6094 66.5454C64.4427 66.16 64.1615 65.8423 63.7656 65.5923C63.3802 65.3319 62.901 65.2017 62.3281 65.2017C61.7552 65.2017 61.2708 65.3319 60.875 65.5923C60.4896 65.8423 60.2188 66.16 60.0625 66.5454C59.875 66.9308 59.7812 67.3787 59.7812 67.8892H64.8906ZM88.0156 78.2954H82.7656V67.9985C82.7656 67.1131 82.5365 66.4985 82.0781 66.1548C81.6302 65.8006 81.1562 65.6235 80.6562 65.6235C80.1562 65.6235 79.6771 65.8006 79.2188 66.1548C78.7708 66.509 78.5469 67.1235 78.5469 67.9985V78.2954H73.2969V61.0767H78.4219V62.4829C78.9219 61.9829 79.5365 61.5923 80.2656 61.311C81.0052 61.0298 81.724 60.8892 82.4219 60.8892C84.0156 60.8892 85.3021 61.3787 86.2812 62.3579C86.9583 63.0142 87.4167 63.7381 87.6562 64.5298C87.8958 65.3215 88.0156 66.2381 88.0156 67.2798V78.2954ZM104.469 76.2798C104.01 76.7381 103.484 77.1392 102.891 77.4829C102.307 77.8162 101.667 78.0662 100.969 78.2329C100.271 78.3996 99.5469 78.4829 98.7969 78.4829C97.5781 78.4829 96.3906 78.2485 95.2344 77.7798C94.0885 77.311 93.1042 76.4152 92.2812 75.0923C91.4688 73.7694 91.0625 71.9673 91.0625 69.686C91.0625 67.4048 91.4688 65.6027 92.2812 64.2798C93.1042 62.9569 94.0885 62.061 95.2344 61.5923C96.3906 61.1235 97.5781 60.8892 98.7969 60.8892C99.9635 60.8892 101.021 61.0767 101.969 61.4517C102.917 61.8267 103.75 62.3735 104.469 63.0923L100.922 66.6548C100.234 65.9673 99.526 65.6235 98.7969 65.6235C98.1615 65.6235 97.6198 65.8475 97.1719 66.2954C96.599 66.8996 96.3125 68.0298 96.3125 69.686C96.3125 71.3423 96.599 72.4725 97.1719 73.0767C97.6198 73.5246 98.1615 73.7485 98.7969 73.7485C99.5365 73.7485 100.245 73.41 100.922 72.7329L104.469 76.2798ZM121.734 71.3892H111.438C111.438 72.1392 111.708 72.7746 112.25 73.2954C112.802 73.8162 113.542 74.0767 114.469 74.0767C115.344 74.0767 116.026 73.9621 116.516 73.7329C117.016 73.5037 117.516 73.1392 118.016 72.6392L121.156 75.7642C120.208 76.7121 119.245 77.4048 118.266 77.8423C117.286 78.2694 116.021 78.4829 114.469 78.4829C109.01 78.4829 106.281 75.5506 106.281 69.686C106.281 66.9256 106.99 64.7694 108.406 63.2173C109.833 61.6652 111.693 60.8892 113.984 60.8892C115.599 60.8892 116.99 61.2485 118.156 61.9673C119.333 62.686 120.224 63.66 120.828 64.8892C121.432 66.1183 121.734 67.5037 121.734 69.0454V71.3892ZM116.547 67.8892C116.547 67.3787 116.453 66.9308 116.266 66.5454C116.099 66.16 115.818 65.8423 115.422 65.5923C115.036 65.3319 114.557 65.2017 113.984 65.2017C113.411 65.2017 112.927 65.3319 112.531 65.5923C112.146 65.8423 111.875 66.16 111.719 66.5454C111.531 66.9308 111.438 67.3787 111.438 67.8892H116.547Z"></path>
<path fill="white" d="M158.219 69.4062H153.359V74.2656H148.438V69.4062H143.562V64.4844H148.438V59.6094H153.359V64.4844H158.219V69.4062Z"></path>
<rect fill="#FF0000" height="45" width="40" y="90" x="60"></rect>
<rect fill="#00C5E4" height="45" width="202" y="90" x="100"></rect>
<path fill="white" d="M87.2188 114.406H82.3594V119.266H77.4375V114.406H72.5625V109.484H77.4375V104.609H82.3594V109.484H87.2188V114.406Z"></path>
<path fill="white" d="M129.797 121H114.297V98.2188H129.797V103.203H119.906V107.016H128.359V112.016H119.906V116.016H129.797V121ZM148.172 121H142.922V110.703C142.922 109.818 142.693 109.203 142.234 108.859C141.786 108.505 141.312 108.328 140.812 108.328C140.312 108.328 139.833 108.505 139.375 108.859C138.927 109.214 138.703 109.828 138.703 110.703V121H133.453V103.781H138.578V105.188C139.078 104.688 139.693 104.297 140.422 104.016C141.161 103.734 141.88 103.594 142.578 103.594C144.172 103.594 145.458 104.083 146.438 105.062C147.115 105.719 147.573 106.443 147.812 107.234C148.052 108.026 148.172 108.943 148.172 109.984V121ZM165.969 119.75C165.969 120.75 165.786 121.682 165.422 122.547C165.057 123.411 164.531 124.156 163.844 124.781C163.156 125.417 162.323 125.906 161.344 126.25C160.375 126.594 159.323 126.766 158.188 126.766C157.219 126.766 156.365 126.698 155.625 126.562C154.885 126.427 154.188 126.193 153.531 125.859C152.885 125.536 152.286 125.089 151.734 124.516L154.984 121.25C155.37 121.635 155.807 121.911 156.297 122.078C156.797 122.255 157.344 122.344 157.938 122.344C158.927 122.344 159.635 122.078 160.062 121.547C160.5 121.026 160.719 120.417 160.719 119.719V118.469C159.771 119.427 158.536 119.906 157.016 119.906C155.339 119.906 153.99 119.396 152.969 118.375C152.469 117.875 152.104 117.323 151.875 116.719C151.646 116.104 151.505 115.448 151.453 114.75C151.401 114.052 151.375 113.052 151.375 111.75C151.375 110.75 151.385 109.984 151.406 109.453C151.438 108.922 151.505 108.38 151.609 107.828C151.714 107.266 151.87 106.771 152.078 106.344C152.286 105.917 152.583 105.51 152.969 105.125C153.448 104.646 154.042 104.271 154.75 104C155.469 103.729 156.234 103.594 157.047 103.594C157.891 103.594 158.609 103.724 159.203 103.984C159.797 104.245 160.354 104.646 160.875 105.188V103.781H165.969V119.75ZM160.719 111.75C160.719 111.042 160.677 110.448 160.594 109.969C160.51 109.49 160.318 109.099 160.016 108.797C159.714 108.484 159.266 108.328 158.672 108.328C158.078 108.328 157.63 108.484 157.328 108.797C157.026 109.099 156.833 109.49 156.75 109.969C156.667 110.438 156.625 111.031 156.625 111.75C156.625 112.458 156.667 113.052 156.75 113.531C156.833 114.01 157.026 114.406 157.328 114.719C157.63 115.021 158.078 115.172 158.672 115.172C159.266 115.172 159.714 115.021 160.016 114.719C160.318 114.406 160.51 114.016 160.594 113.547C160.677 113.068 160.719 112.469 160.719 111.75ZM175.203 102.031H169.953V98.0312H175.203V102.031ZM175.203 121H169.953V104.453H175.203V121ZM193.891 121H188.641V110.703C188.641 109.818 188.411 109.203 187.953 108.859C187.505 108.505 187.031 108.328 186.531 108.328C186.031 108.328 185.552 108.505 185.094 108.859C184.646 109.214 184.422 109.828 184.422 110.703V121H179.172V103.781H184.297V105.188C184.797 104.688 185.411 104.297 186.141 104.016C186.88 103.734 187.599 103.594 188.297 103.594C189.891 103.594 191.177 104.083 192.156 105.062C192.833 105.719 193.292 106.443 193.531 107.234C193.771 108.026 193.891 108.943 193.891 109.984V121ZM212.391 114.094H202.094C202.094 114.844 202.365 115.479 202.906 116C203.458 116.521 204.198 116.781 205.125 116.781C206 116.781 206.682 116.667 207.172 116.438C207.672 116.208 208.172 115.844 208.672 115.344L211.812 118.469C210.865 119.417 209.901 120.109 208.922 120.547C207.943 120.974 206.677 121.188 205.125 121.188C199.667 121.188 196.938 118.255 196.938 112.391C196.938 109.63 197.646 107.474 199.062 105.922C200.49 104.37 202.349 103.594 204.641 103.594C206.255 103.594 207.646 103.953 208.812 104.672C209.99 105.391 210.88 106.365 211.484 107.594C212.089 108.823 212.391 110.208 212.391 111.75V114.094ZM207.203 110.594C207.203 110.083 207.109 109.635 206.922 109.25C206.755 108.865 206.474 108.547 206.078 108.297C205.693 108.036 205.214 107.906 204.641 107.906C204.068 107.906 203.583 108.036 203.188 108.297C202.802 108.547 202.531 108.865 202.375 109.25C202.188 109.635 202.094 110.083 202.094 110.594H207.203ZM230.297 114.094H220C220 114.844 220.271 115.479 220.812 116C221.365 116.521 222.104 116.781 223.031 116.781C223.906 116.781 224.589 116.667 225.078 116.438C225.578 116.208 226.078 115.844 226.578 115.344L229.719 118.469C228.771 119.417 227.807 120.109 226.828 120.547C225.849 120.974 224.583 121.188 223.031 121.188C217.573 121.188 214.844 118.255 214.844 112.391C214.844 109.63 215.552 107.474 216.969 105.922C218.396 104.37 220.255 103.594 222.547 103.594C224.161 103.594 225.552 103.953 226.719 104.672C227.896 105.391 228.786 106.365 229.391 107.594C229.995 108.823 230.297 110.208 230.297 111.75V114.094ZM225.109 110.594C225.109 110.083 225.016 109.635 224.828 109.25C224.661 108.865 224.38 108.547 223.984 108.297C223.599 108.036 223.12 107.906 222.547 107.906C221.974 107.906 221.49 108.036 221.094 108.297C220.708 108.547 220.438 108.865 220.281 109.25C220.094 109.635 220 110.083 220 110.594H225.109ZM246.734 105.188L242.766 109.219C242.474 108.927 242.193 108.708 241.922 108.562C241.651 108.406 241.302 108.328 240.875 108.328C240.385 108.328 239.911 108.51 239.453 108.875C238.995 109.229 238.766 109.839 238.766 110.703V121H233.516V103.781H238.641V105.188C239.078 104.75 239.651 104.375 240.359 104.062C241.078 103.75 241.859 103.594 242.703 103.594C243.557 103.594 244.297 103.714 244.922 103.953C245.547 104.193 246.151 104.604 246.734 105.188ZM253.984 102.031H248.734V98.0312H253.984V102.031ZM253.984 121H248.734V104.453H253.984V121ZM272.672 121H267.422V110.703C267.422 109.818 267.193 109.203 266.734 108.859C266.286 108.505 265.812 108.328 265.312 108.328C264.812 108.328 264.333 108.505 263.875 108.859C263.427 109.214 263.203 109.828 263.203 110.703V121H257.953V103.781H263.078V105.188C263.578 104.688 264.193 104.297 264.922 104.016C265.661 103.734 266.38 103.594 267.078 103.594C268.672 103.594 269.958 104.083 270.938 105.062C271.615 105.719 272.073 106.443 272.312 107.234C272.552 108.026 272.672 108.943 272.672 109.984V121ZM290.469 119.75C290.469 120.75 290.286 121.682 289.922 122.547C289.557 123.411 289.031 124.156 288.344 124.781C287.656 125.417 286.823 125.906 285.844 126.25C284.875 126.594 283.823 126.766 282.688 126.766C281.719 126.766 280.865 126.698 280.125 126.562C279.385 126.427 278.688 126.193 278.031 125.859C277.385 125.536 276.786 125.089 276.234 124.516L279.484 121.25C279.87 121.635 280.307 121.911 280.797 122.078C281.297 122.255 281.844 122.344 282.438 122.344C283.427 122.344 284.135 122.078 284.562 121.547C285 121.026 285.219 120.417 285.219 119.719V118.469C284.271 119.427 283.036 119.906 281.516 119.906C279.839 119.906 278.49 119.396 277.469 118.375C276.969 117.875 276.604 117.323 276.375 116.719C276.146 116.104 276.005 115.448 275.953 114.75C275.901 114.052 275.875 113.052 275.875 111.75C275.875 110.75 275.885 109.984 275.906 109.453C275.938 108.922 276.005 108.38 276.109 107.828C276.214 107.266 276.37 106.771 276.578 106.344C276.786 105.917 277.083 105.51 277.469 105.125C277.948 104.646 278.542 104.271 279.25 104C279.969 103.729 280.734 103.594 281.547 103.594C282.391 103.594 283.109 103.724 283.703 103.984C284.297 104.245 284.854 104.646 285.375 105.188V103.781H290.469V119.75ZM285.219 111.75C285.219 111.042 285.177 110.448 285.094 109.969C285.01 109.49 284.818 109.099 284.516 108.797C284.214 108.484 283.766 108.328 283.172 108.328C282.578 108.328 282.13 108.484 281.828 108.797C281.526 109.099 281.333 109.49 281.25 109.969C281.167 110.438 281.125 111.031 281.125 111.75C281.125 112.458 281.167 113.052 281.25 113.531C281.333 114.01 281.526 114.406 281.828 114.719C282.13 115.021 282.578 115.172 283.172 115.172C283.766 115.172 284.214 115.021 284.516 114.719C284.818 114.406 285.01 114.016 285.094 113.547C285.177 113.068 285.219 112.469 285.219 111.75Z"></path>
</svg>
